<?xml version="1.0" encoding="UTF-8" standalone="no"?>
<!-- Created with Inkscape (http://www.inkscape.org/) -->

<svg
   xmlns:dc="http://purl.org/dc/elements/1.1/"
   xmlns:cc="http://creativecommons.org/ns#"
   xmlns:rdf="http://www.w3.org/1999/02/22-rdf-syntax-ns#"
   xmlns:svg="http://www.w3.org/2000/svg"
   xmlns="http://www.w3.org/2000/svg"
   xmlns:sodipodi="http://sodipodi.sourceforge.net/DTD/sodipodi-0.dtd"
   xmlns:inkscape="http://www.inkscape.org/namespaces/inkscape"
   width="53"
   height="60"
   viewBox="0 0 14.022918 15.875"
   version="1.1"
   id="svg8"
   inkscape:version="0.92.2 (5c3e80d, 2017-08-06)"
   sodipodi:docname="css-logo.svg">
  <defs
     id="defs2" />
  <sodipodi:namedview
     id="base"
     pagecolor="#ffffff"
     bordercolor="#666666"
     borderopacity="1.0"
     inkscape:pageopacity="0.0"
     inkscape:pageshadow="2"
     inkscape:zoom="5.6"
     inkscape:cx="38.949944"
     inkscape:cy="36.245011"
     inkscape:document-units="mm"
     inkscape:current-layer="layer1"
     showgrid="false"
     units="px"
     inkscape:window-width="1531"
     inkscape:window-height="851"
     inkscape:window-x="1952"
     inkscape:window-y="170"
     inkscape:window-maximized="0" />
  <metadata
     id="metadata5">
    <rdf:RDF>
      <cc:Work
         rdf:about="">
        <dc:format>image/svg+xml</dc:format>
        <dc:type
           rdf:resource="http://purl.org/dc/dcmitype/StillImage" />
        <dc:title></dc:title>
      </cc:Work>
    </rdf:RDF>
  </metadata>
  <g
     inkscape:label="Layer 1"
     inkscape:groupmode="layer"
     id="layer1"
     transform="translate(0,-281.12499)">
    <g
       id="g989"
       transform="matrix(0.63308218,0,0,0.63308218,1.9245703,121.65693)">
      <polygon
         transform="matrix(0.07143362,0,0,0.07143362,-34.773872,240.80986)"
         id="polygon914"
         points="722.425,467.241 600.614,501.011 479.142,467.29 452.071,163.67 749.521,163.67 "
         style="fill:#1572b6" />
      <polygon
         transform="matrix(0.07143362,0,0,0.07143362,-34.773872,240.80986)"
         id="polygon916"
         points="600.798,475.199 699.225,447.911 722.382,188.496 600.798,188.496 "
         style="fill:#33a9dc" />
      <g
         transform="matrix(0.07143362,0,0,0.07143362,-34.773872,240.80986)"
         id="g928">
        <polygon
           id="polygon918"
           points="684.127,335.732 600.797,335.732 600.797,298.496 650.072,298.496 653.475,260.364 600.797,260.364 600.797,223.125 600.926,223.125 694.172,223.125 693.279,233.116 "
           style="fill:#ffffff" />
        <polygon
           id="polygon920"
           points="600.857,395.25 559.385,384.051 556.733,354.353 536.582,354.353 519.354,354.353 524.57,412.82 600.848,433.996 601.02,433.948 601.02,395.204 "
           style="fill:#ebebeb" />
        <polygon
           id="polygon922"
           points="646.907,334.156 642.423,384.026 600.891,395.236 600.891,433.978 677.23,412.82 677.79,406.53 684.268,334.156 "
           style="fill:#ffffff" />
        <polygon
           id="polygon924"
           points="600.926,223.125 600.926,246.253 600.926,260.272 600.926,260.364 511.098,260.364 510.979,260.364 510.232,251.994 508.535,233.116 507.645,223.125 "
           style="fill:#ebebeb" />
        <polygon
           id="polygon926"
           points="600.797,298.5 600.797,321.629 600.797,335.646 600.797,335.738 559.969,335.738 559.85,335.738 559.104,327.369 557.406,308.491 556.516,298.5 "
           style="fill:#ebebeb" />
      </g>
    </g>
  </g>
</svg>
