<?xml version="1.0" encoding="UTF-8" standalone="no"?>
<!-- Created with Inkscape (http://www.inkscape.org/) -->

<svg
   xmlns:dc="http://purl.org/dc/elements/1.1/"
   xmlns:cc="http://creativecommons.org/ns#"
   xmlns:rdf="http://www.w3.org/1999/02/22-rdf-syntax-ns#"
   xmlns:svg="http://www.w3.org/2000/svg"
   xmlns="http://www.w3.org/2000/svg"
   xmlns:sodipodi="http://sodipodi.sourceforge.net/DTD/sodipodi-0.dtd"
   xmlns:inkscape="http://www.inkscape.org/namespaces/inkscape"
   width="200"
   height="200"
   viewBox="0 0 52.916665 52.916668"
   version="1.1"
   id="svg8"
   inkscape:version="0.92.2 (5c3e80d, 2017-08-06)"
   sodipodi:docname="da-logo.svg">
  <defs
     id="defs2">
    <inkscape:perspective
       sodipodi:type="inkscape:persp3d"
       inkscape:vp_x="0 : 148.5 : 1"
       inkscape:vp_y="0 : 1000 : 0"
       inkscape:vp_z="210 : 148.5 : 1"
       inkscape:persp3d-origin="105 : 99 : 1"
       id="perspective979" />
  </defs>
  <sodipodi:namedview
     id="base"
     pagecolor="#ffffff"
     bordercolor="#666666"
     borderopacity="1.0"
     inkscape:pageopacity="0.0"
     inkscape:pageshadow="2"
     inkscape:zoom="1.4"
     inkscape:cx="138.4398"
     inkscape:cy="47.969983"
     inkscape:document-units="mm"
     inkscape:current-layer="layer1"
     showgrid="false"
     showguides="false"
     inkscape:guide-bbox="true"
     objecttolerance="1"
     gridtolerance="1"
     guidetolerance="1"
     inkscape:window-width="1506"
     inkscape:window-height="889"
     inkscape:window-x="2026"
     inkscape:window-y="62"
     inkscape:window-maximized="0"
     units="px">
    <sodipodi:guide
       position="89.958331,201.46132"
       orientation="0,1"
       id="guide831"
       inkscape:locked="false" />
    <sodipodi:guide
       position="115.28274,36.285715"
       orientation="0,1"
       id="guide833"
       inkscape:locked="false" />
    <sodipodi:guide
       position="13.985119,118.68453"
       orientation="1,0"
       id="guide835"
       inkscape:locked="false" />
    <sodipodi:guide
       position="179.16071,85.800598"
       orientation="1,0"
       id="guide837"
       inkscape:locked="false" />
  </sodipodi:namedview>
  <metadata
     id="metadata5">
    <rdf:RDF>
      <cc:Work
         rdf:about="">
        <dc:format>image/svg+xml</dc:format>
        <dc:type
           rdf:resource="http://purl.org/dc/dcmitype/StillImage" />
        <dc:title></dc:title>
      </cc:Work>
    </rdf:RDF>
  </metadata>
  <g
     inkscape:label="Layer 1"
     inkscape:groupmode="layer"
     id="layer1"
     transform="translate(0,-244.08332)">
    <g
       id="g1008"
       transform="matrix(0.27680919,0,0,0.27680919,63.115345,221.42896)">
      <path
         sodipodi:nodetypes="ccccccccccccc"
         inkscape:connector-curvature="0"
         id="path839-9"
         d="m -188.76194,95.53868 h 112.939481 c 0,0 9.070819,-0.08167 16.955224,6.93415 8.084862,7.41673 8.898199,17.25633 8.898199,17.25633 v 118.30655 c 0,0 0.667487,5.94734 -7.885085,15.03451 -9.153929,8.35217 -18.195118,7.64406 -18.195118,7.64406 H -190.19826 c 0,0 -11.38467,-0.61844 -17.86599,-8.63652 -7.61723,-9.28762 -7.08058,-17.82181 -7.08058,-17.82181 V 119.72916 c 0,0 1.57459,-10.48343 8.99136,-16.8979 7.1495,-7.082642 17.39153,-7.29258 17.39153,-7.29258 z"
         style="fill:#05cc47;fill-opacity:1;stroke:none;stroke-width:0.26458332px;stroke-linecap:butt;stroke-linejoin:miter;stroke-opacity:1" />
      <path
         sodipodi:nodetypes="ccccccc"
         inkscape:connector-curvature="0"
         id="path882-1"
         d="m -204.54109,154.27807 v -31.00326 c 0.17802,-11.34246 10.89099,-18.2637 21.64895,-18.17433 l 33.14161,-0.26727 -32.87434,5.07812 c -11.0376,1.5772 -15.46401,6.88817 -16.5708,15.50164 z"
         style="fill:#92fbb4;fill-opacity:1;stroke:none;stroke-width:0.26458332px;stroke-linecap:butt;stroke-linejoin:miter;stroke-opacity:1" />
      <path
         sodipodi:nodetypes="ccccccc"
         inkscape:connector-curvature="0"
         id="path882-3-27"
         d="m -61.55168,199.98116 v 31.00326 c -0.17803,11.34246 -10.89087,18.2637 -21.648707,18.17433 l -33.141333,0.26727 32.874063,-5.07812 c 11.037477,-1.5772 15.463833,-6.88816 16.570617,-15.50164 z"
         style="fill:#0a6428;fill-opacity:1;stroke:none;stroke-width:0.26458332px;stroke-linecap:butt;stroke-linejoin:miter;stroke-opacity:1" />
      <path
         inkscape:connector-curvature="0"
         id="path981"
         d="m -141.103,145.43548 12.38794,-22.85154 21.52856,-8.53927 6.25411,21.28802 -19.96503,44.50038 h 32.473246 v 28.14348 l -44.139566,0.24054 -13.95147,26.8205 -20.9272,6.49465 -6.25411,-18.28123 21.28802,-51.35585 h -27.42186 v -26.45968 z"
         style="fill:#ffffff;fill-opacity:1;stroke:none;stroke-width:0.23812498px;stroke-linecap:butt;stroke-linejoin:miter;stroke-opacity:1" />
    </g>
  </g>
</svg>
