<?xml version="1.0" encoding="UTF-8" standalone="no"?>
<!-- Created with Inkscape (http://www.inkscape.org/) -->

<svg
   xmlns:dc="http://purl.org/dc/elements/1.1/"
   xmlns:cc="http://creativecommons.org/ns#"
   xmlns:rdf="http://www.w3.org/1999/02/22-rdf-syntax-ns#"
   xmlns:svg="http://www.w3.org/2000/svg"
   xmlns="http://www.w3.org/2000/svg"
   xmlns:sodipodi="http://sodipodi.sourceforge.net/DTD/sodipodi-0.dtd"
   xmlns:inkscape="http://www.inkscape.org/namespaces/inkscape"
   version="1.1"
   id="svg2"
   xml:space="preserve"
   width="100"
   height="34"
   viewBox="0 0 100 34"
   sodipodi:docname="deviantart-logo.svg"
   inkscape:version="0.92.2 (5c3e80d, 2017-08-06)"><metadata
     id="metadata8"><rdf:RDF><cc:Work
         rdf:about=""><dc:format>image/svg+xml</dc:format><dc:type
           rdf:resource="http://purl.org/dc/dcmitype/StillImage" /><dc:title></dc:title></cc:Work></rdf:RDF></metadata><defs
     id="defs6" /><sodipodi:namedview
     pagecolor="#ffffff"
     bordercolor="#666666"
     borderopacity="1"
     objecttolerance="10"
     gridtolerance="10"
     guidetolerance="10"
     inkscape:pageopacity="0"
     inkscape:pageshadow="2"
     inkscape:window-width="1204"
     inkscape:window-height="736"
     id="namedview4"
     showgrid="false"
     inkscape:zoom="3.4766083"
     inkscape:cx="47.758808"
     inkscape:cy="22.965691"
     inkscape:window-x="2141"
     inkscape:window-y="132"
     inkscape:window-maximized="0"
     inkscape:current-layer="g10" /><g
     id="g10"
     inkscape:groupmode="layer"
     inkscape:label="ink_ext_XXXXXX"
     transform="matrix(1.3333333,0,0,-1.3333333,0,34)"><path
       inkscape:connector-curvature="0"
       id="path16"
       style="fill:#47bb3a;fill-opacity:1;fill-rule:nonzero;stroke:none;stroke-width:0.0087261"
       d="m 13.987201,18.384041 v 3.241568 H 10.745542 L 10.422069,21.29934 8.8924703,18.384389 8.4114892,18.059865 h -5.45922 V 13.608249 H 5.9535216 L 6.2208018,13.284948 2.9522692,7.039157 V 3.7974966 h 8.69e-4 3.2405226 L 6.5172213,4.1236814 8.046909,7.0387219 8.5278018,7.3631562 h 5.4592412 v 4.4517088 h -3.001267 l -0.26702,0.325482 3.268272,6.243694" /><path
       inkscape:connector-curvature="0"
       id="path18"
       style="fill:#222222;fill-opacity:1;fill-rule:nonzero;stroke:none;stroke-width:0.0087261"
       d="m 20.320687,6.8906404 0.920949,1.7577836 0.424876,-1.7577836 z m 0.08971,4.9236956 -4.195158,-8.0168394 h 2.489468 l 0.608731,1.1665955 2.810935,3.768e-4 0.278104,-1.1667656 h 2.489295 l -1.91861,8.0168377 h -2.562765" /><path
       inkscape:connector-curvature="0"
       id="path20"
       style="fill:#222222;fill-opacity:1;fill-rule:nonzero;stroke:none;stroke-width:0.0087261"
       d="m 28.806814,8.0664809 h -1.063626 v 1.6209593 h 1.063626 c 0.648088,0 0.894254,-0.324262 0.894254,-0.8169383 0,-0.4800229 -0.246166,-0.804021 -0.894254,-0.804021 z m 3.332496,0.8435506 c 0,1.8409425 -1.245127,2.9043045 -2.995582,2.9043045 H 25.344997 V 3.7967139 h 2.398191 v 2.33842 h 0.583517 l 0.476357,0.00133 1.161094,-2.3397279 h 2.489556 l -1.480468,2.8290054 c 0.726099,0.4625706 1.166066,1.2466111 1.166066,2.284318" /><path
       inkscape:connector-curvature="0"
       id="path22"
       style="fill:#222222;fill-opacity:1;fill-rule:nonzero;stroke:none;stroke-width:0.0087261"
       d="M 32.494027,11.814336 V 9.6890089 h 2.265994 v -5.892295 h 1.365457 l 1.030903,1.9721881 v 3.9201069 h 2.055248 l 1.111274,2.1253291 h -7.828876" /><path
       inkscape:connector-curvature="0"
       id="path24"
       style="fill:#222222;fill-opacity:1;fill-rule:nonzero;stroke:none;stroke-width:0.0087261"
       d="m 45.929331,13.609121 h 2.39592 v 8.016486 h -2.39592 v -8.016486" /><path
       inkscape:connector-curvature="0"
       id="path26"
       style="fill:#222222;fill-opacity:1;fill-rule:nonzero;stroke:none;stroke-width:0.0087261"
       d="M 25.549889,21.621596 24.47326,19.566251 h 0.661089 c 1.180293,0 1.927598,-0.75437 1.927598,-1.947838 0,-1.179594 -0.747305,-1.934226 -1.927598,-1.934226 h -0.747127 v 3.717841 l -2.317737,-4.424743 v -1.366942 h 3.224728 c 2.598457,0 4.125785,1.56677 4.125785,4.008157 0,2.360582 -1.427676,3.902832 -3.870109,4.003096" /><path
       inkscape:connector-curvature="0"
       id="path28"
       style="fill:#222222;fill-opacity:1;fill-rule:nonzero;stroke:none;stroke-width:0.0087261"
       d="m 30.053688,13.609121 h 6.119172 v 2.124978 h -3.723336 v 0.866328 h 3.423247 v 2.034052 h -3.423247 v 0.866063 h 3.723336 v 2.125065 h -6.119172 v -8.016486" /><path
       inkscape:connector-curvature="0"
       id="path30"
       style="fill:#222222;fill-opacity:1;fill-rule:nonzero;stroke:none;stroke-width:0.0087261"
       d="m 40.432939,16.774424 -1.161359,4.851185 h -2.486931 l 1.91974,-8.016223 h 2.558312 l 4.199003,8.016223 H 42.97197 l -2.539031,-4.851185" /><path
       inkscape:connector-curvature="0"
       id="path32"
       style="fill:#222222;fill-opacity:1;fill-rule:nonzero;stroke:none;stroke-width:0.0087261"
       d="m 65.873689,21.62622 v -2.125329 h 2.265992 V 13.6086 h 1.365461 l 1.030989,1.972183 v 3.920108 h 2.055257 l 1.111185,2.125329 h -7.828884" /><path
       inkscape:connector-curvature="0"
       id="path34"
       style="fill:#222222;fill-opacity:1;fill-rule:nonzero;stroke:none;stroke-width:0.0087261"
       d="m 52.897034,16.701825 0.919463,1.756212 0.424788,-1.756212 z m 0.09329,4.923782 -4.196293,-8.016221 h 2.485275 l 0.61092,1.167984 2.808232,9e-5 0.278796,-1.168075 2.485981,-5.76e-4 -1.9187,8.016487 h -2.554211" /><path
       inkscape:connector-curvature="0"
       id="path36"
       style="fill:#222222;fill-opacity:1;fill-rule:nonzero;stroke:none;stroke-width:0.0087261"
       d="m 62.964677,17.828278 -2.683456,3.797331 h -2.362938 v -8.016488 h 2.395234 v 4.071246 l 2.9708,-4.071246 h 2.075763 v 8.016488 h -2.395403 v -3.797331" /></g></svg>