<?xml version="1.0" encoding="UTF-8" standalone="no"?>
<!-- Created with Inkscape (http://www.inkscape.org/) -->

<svg
   xmlns:dc="http://purl.org/dc/elements/1.1/"
   xmlns:cc="http://creativecommons.org/ns#"
   xmlns:rdf="http://www.w3.org/1999/02/22-rdf-syntax-ns#"
   xmlns:svg="http://www.w3.org/2000/svg"
   xmlns="http://www.w3.org/2000/svg"
   xmlns:sodipodi="http://sodipodi.sourceforge.net/DTD/sodipodi-0.dtd"
   xmlns:inkscape="http://www.inkscape.org/namespaces/inkscape"
   width="53"
   height="60"
   viewBox="0 0 14.022918 15.875"
   version="1.1"
   id="svg8"
   inkscape:version="0.92.2 (5c3e80d, 2017-08-06)"
   sodipodi:docname="html-logo.svg">
  <defs
     id="defs2" />
  <sodipodi:namedview
     id="base"
     pagecolor="#ffffff"
     bordercolor="#666666"
     borderopacity="1.0"
     inkscape:pageopacity="0.0"
     inkscape:pageshadow="2"
     inkscape:zoom="5.6"
     inkscape:cx="44.788307"
     inkscape:cy="37.981955"
     inkscape:document-units="mm"
     inkscape:current-layer="layer1"
     showgrid="false"
     units="px"
     inkscape:window-width="1531"
     inkscape:window-height="851"
     inkscape:window-x="1952"
     inkscape:window-y="170"
     inkscape:window-maximized="0" />
  <metadata
     id="metadata5">
    <rdf:RDF>
      <cc:Work
         rdf:about="">
        <dc:format>image/svg+xml</dc:format>
        <dc:type
           rdf:resource="http://purl.org/dc/dcmitype/StillImage" />
        <dc:title></dc:title>
      </cc:Work>
    </rdf:RDF>
  </metadata>
  <g
     inkscape:label="Layer 1"
     inkscape:groupmode="layer"
     id="layer1"
     transform="translate(0,-281.12499)">
    <g
       id="g1119"
       transform="matrix(0.17208824,0,0,0.17208824,17.465108,236.84875)">
      <polygon
         transform="matrix(0.26458333,0,0,0.26458333,-112.58659,216.15992)"
         style="fill:#e44f26"
         points="196.856,500.986 75.383,467.266 48.313,163.646 345.763,163.646 318.665,467.217 "
         id="polygon1010" />
      <polygon
         transform="matrix(0.26458333,0,0,0.26458333,-112.58659,216.15992)"
         style="fill:#f1662a"
         points="318.623,188.471 197.038,188.471 197.038,475.175 295.465,447.887 "
         id="polygon1012" />
      <polygon
         transform="matrix(0.26458333,0,0,0.26458333,-112.58659,216.15992)"
         style="fill:#ebebeb"
         points="197.038,225.709 196.909,225.709 103.663,225.709 104.555,235.7 113.707,338.316 197.038,338.316 197.038,301.08 147.763,301.08 144.359,262.948 197.038,262.948 "
         id="polygon1014" />
      <polygon
         transform="matrix(0.26458333,0,0,0.26458333,-112.58659,216.15992)"
         style="fill:#ebebeb"
         points="115.371,356.937 120.588,415.404 196.866,436.58 197.038,436.532 197.038,397.788 196.875,397.834 155.403,386.635 152.751,356.937 132.6,356.937 "
         id="polygon1016" />
      <polygon
         transform="matrix(0.26458333,0,0,0.26458333,-112.58659,216.15992)"
         style="fill:#ffffff"
         points="238.441,386.61 196.909,397.82 196.909,436.562 273.249,415.404 273.808,409.114 282.559,311.079 283.467,301.08 273.433,301.08 196.909,301.08 196.909,338.316 242.763,338.316 "
         id="polygon1026" />
      <polygon
         transform="matrix(0.26458333,0,0,0.26458333,-112.58659,216.15992)"
         style="fill:#ffffff"
         points="286.736,262.948 286.856,262.948 287.603,254.578 289.299,235.7 290.19,225.709 196.909,225.709 196.909,248.837 196.909,262.856 196.909,262.948 "
         id="polygon1028" />
    </g>
  </g>
</svg>
