<?xml version="1.0" encoding="UTF-8" standalone="no"?>
<!-- Created with Inkscape (http://www.inkscape.org/) -->

<svg
   xmlns:dc="http://purl.org/dc/elements/1.1/"
   xmlns:cc="http://creativecommons.org/ns#"
   xmlns:rdf="http://www.w3.org/1999/02/22-rdf-syntax-ns#"
   xmlns:svg="http://www.w3.org/2000/svg"
   xmlns="http://www.w3.org/2000/svg"
   xmlns:sodipodi="http://sodipodi.sourceforge.net/DTD/sodipodi-0.dtd"
   xmlns:inkscape="http://www.inkscape.org/namespaces/inkscape"
   width="60"
   height="60"
   viewBox="0 0 15.874999 15.875"
   version="1.1"
   id="svg8"
   inkscape:version="0.92.2 (5c3e80d, 2017-08-06)"
   sodipodi:docname="illustrator-logo.svg">
  <defs
     id="defs2" />
  <sodipodi:namedview
     id="base"
     pagecolor="#ffffff"
     bordercolor="#666666"
     borderopacity="1.0"
     inkscape:pageopacity="0.0"
     inkscape:pageshadow="2"
     inkscape:zoom="3.959798"
     inkscape:cx="25.72755"
     inkscape:cy="-0.59832996"
     inkscape:document-units="mm"
     inkscape:current-layer="layer1"
     showgrid="false"
     units="px"
     inkscape:window-width="1531"
     inkscape:window-height="851"
     inkscape:window-x="1952"
     inkscape:window-y="170"
     inkscape:window-maximized="0" />
  <metadata
     id="metadata5">
    <rdf:RDF>
      <cc:Work
         rdf:about="">
        <dc:format>image/svg+xml</dc:format>
        <dc:type
           rdf:resource="http://purl.org/dc/dcmitype/StillImage" />
        <dc:title></dc:title>
      </cc:Work>
    </rdf:RDF>
  </metadata>
  <g
     inkscape:label="Layer 1"
     inkscape:groupmode="layer"
     id="layer1"
     transform="translate(0,-281.12499)">
    <g
       id="g837"
       transform="matrix(0.06381569,0,0,0.06381569,0.29759299,281.5825)">
      <g
         id="g817">
        <rect
           id="rect815"
           height="213.99899"
           width="220"
           style="clip-rule:evenodd;fill:#261300;fill-rule:evenodd"
           y="10"
           x="10" />
      </g>
      <g
         id="g821">
        <path
           id="path819"
           d="M 0,0 V 234 H 240.001 V 0 Z M 10,10 H 230.001 V 224 H 10 Z"
           style="clip-rule:evenodd;fill:#ff7c00;fill-rule:evenodd"
           inkscape:connector-curvature="0" />
      </g>
      <path
         id="path823"
         d="m 83.252,132.501 -7.92,29.982 c -0.165,0.824 -0.495,1.018 -1.485,1.018 H 59.16 c -0.988,0 -1.152,-0.33 -0.988,-1.485 l 28.38,-99.448 c 0.495,-1.815 0.825,-3.377 0.99,-8.328 0,-0.66 0.33,-0.99 0.825,-0.99 h 20.955 c 0.66,0 0.99,0.165 1.155,0.99 l 31.845,107.94 c 0.165,0.824 0,1.32 -0.825,1.32 h -16.5 c -0.824,0 -1.319,-0.193 -1.484,-0.854 L 115.263,132.5 H 83.252 Z m 27.885,-16.25 c -2.805,-11.056 -9.405,-35.286 -11.88,-47 h -0.165 c -2.146,11.715 -7.425,31.49 -11.55,47 z M 156.13,60.673 c 0,-6.435 4.455,-10.23 10.23,-10.23 6.105,0 10.23,4.125 10.23,10.23 0,6.6 -4.29,10.23 -10.395,10.23 -5.94,0 -10.065,-3.63 -10.065,-10.23 z m 1.12,22.732 c 0,-0.825 0.33,-1.155 1.155,-1.155 h 15.689 c 0.825,0 1.155,0.33 1.155,1.155 v 78.939 c 0,0.826 -0.165,1.156 -1.155,1.156 H 158.57 c -0.99,0 -1.32,-0.496 -1.32,-1.32 z"
         style="clip-rule:evenodd;fill:#ff7c00;fill-rule:evenodd"
         inkscape:connector-curvature="0" />
    </g>
  </g>
</svg>
