<?xml version="1.0" encoding="UTF-8" standalone="no"?>
<!-- Created with Inkscape (http://www.inkscape.org/) -->

<svg
   xmlns:dc="http://purl.org/dc/elements/1.1/"
   xmlns:cc="http://creativecommons.org/ns#"
   xmlns:rdf="http://www.w3.org/1999/02/22-rdf-syntax-ns#"
   xmlns:svg="http://www.w3.org/2000/svg"
   xmlns="http://www.w3.org/2000/svg"
   xmlns:sodipodi="http://sodipodi.sourceforge.net/DTD/sodipodi-0.dtd"
   xmlns:inkscape="http://www.inkscape.org/namespaces/inkscape"
   version="1.1"
   id="svg2"
   xml:space="preserve"
   width="100"
   height="34"
   viewBox="0 0 100 34"
   sodipodi:docname="linkedin-logo.svg"
   inkscape:version="0.92.2 (5c3e80d, 2017-08-06)"><metadata
     id="metadata8"><rdf:RDF><cc:Work
         rdf:about=""><dc:format>image/svg+xml</dc:format><dc:type
           rdf:resource="http://purl.org/dc/dcmitype/StillImage" /><dc:title></dc:title></cc:Work></rdf:RDF></metadata><defs
     id="defs6" /><sodipodi:namedview
     pagecolor="#ffffff"
     bordercolor="#666666"
     borderopacity="1"
     objecttolerance="10"
     gridtolerance="10"
     guidetolerance="10"
     inkscape:pageopacity="0"
     inkscape:pageshadow="2"
     inkscape:window-width="1197"
     inkscape:window-height="639"
     id="namedview4"
     showgrid="false"
     inkscape:zoom="5.0051376"
     inkscape:cx="47.189102"
     inkscape:cy="12.637364"
     inkscape:window-x="2168"
     inkscape:window-y="195"
     inkscape:window-maximized="0"
     inkscape:current-layer="g10" /><g
     id="g10"
     inkscape:groupmode="layer"
     inkscape:label="ink_ext_XXXXXX"
     transform="matrix(1.3333333,0,0,-1.3333333,0,34)"><path
       inkscape:connector-curvature="0"
       id="path14"
       style="fill:#231f20;fill-opacity:1;fill-rule:nonzero;stroke:none;stroke-width:0.04745901"
       d="m 71.995784,7.5150567 h -0.19839 v 0.4019207 h 0.251533 c 0.130525,0 0.278112,-0.021517 0.278112,-0.191507 0,-0.1946527 -0.149027,-0.2104137 -0.331255,-0.2104137 z m 0.197419,-0.1195729 c 0.200754,0.024651 0.305639,0.1353339 0.305639,0.3207181 0,0.2261707 -0.137621,0.335919 -0.418579,0.335919 H 71.627028 V 6.862495 h 0.170366 v 0.5181575 h 0.210254 l 0.0041,-0.0065 0.326511,-0.5116697 h 0.18177 l -0.350246,0.5298371 0.02274,0.00322" /><path
       inkscape:connector-curvature="0"
       id="path16"
       style="fill:#231f20;fill-opacity:1;fill-rule:nonzero;stroke:none;stroke-width:0.04745901"
       d="m 72.015709,6.4778206 c -0.53913,0 -0.961999,0.425461 -0.961999,0.9779126 0,0.5520809 0.422869,0.9779163 0.961999,0.9779163 0.538662,0 0.960095,-0.4258355 0.960095,-0.9779163 0,-0.5524516 -0.421433,-0.9779126 -0.960095,-0.9779126 z m 0,2.1032132 c -0.632152,0 -1.127141,-0.4940577 -1.127141,-1.1253006 0,-0.6317983 0.494997,-1.1252961 1.127141,-1.1252961 0.630256,0 1.125734,0.4934978 1.125734,1.1252961 0,0.6312429 -0.495478,1.1253006 -1.125734,1.1253006" /><path
       inkscape:connector-curvature="0"
       id="path18"
       style="fill:#231f20;fill-opacity:1;fill-rule:nonzero;stroke:none;stroke-width:0.04745901"
       d="M 2.7421713,18.655884 H 5.3772566 V 9.0565393 H 10.256831 V 6.6242749 H 2.7421713 V 18.655884" /><path
       inkscape:connector-curvature="0"
       id="path20"
       style="fill:#231f20;fill-opacity:1;fill-rule:nonzero;stroke:none;stroke-width:0.04745901"
       d="m 12.687823,18.834424 c 0.810837,0 1.46933,-0.658493 1.46933,-1.469757 0,-0.811075 -0.658493,-1.467527 -1.46933,-1.467527 -0.810552,0 -1.468856,0.656452 -1.468856,1.467527 0,0.811264 0.658304,1.469757 1.468856,1.469757 m -1.266776,-4.053141 h 2.533125 V 6.6279809 h -2.533125 v 8.1533021" /><path
       inkscape:connector-curvature="0"
       id="path22"
       style="fill:#231f20;fill-opacity:1;fill-rule:nonzero;stroke:none;stroke-width:0.04745901"
       d="m 24.543463,18.655884 h 2.531083 v -7.19023 l 2.86961,3.319331 h 3.104103 l -3.321561,-3.775032 3.252034,-4.3856781 h -3.182506 l -2.688695,4.0308741 h -0.03298 V 6.6242749 H 24.543464 V 18.655884" /><path
       inkscape:connector-curvature="0"
       id="path24"
       style="fill:#231f20;fill-opacity:1;fill-rule:nonzero;stroke:none;stroke-width:0.04745901"
       d="m 15.355161,14.779431 h 2.431705 v -1.113815 h 0.03374 c 0.337386,0.641077 1.164977,1.316799 2.397772,1.316799 2.566868,0 3.039607,-1.688829 3.039607,-3.883809 V 6.6279809 h -2.533123 v 3.9641411 c 0,0.945479 -0.01722,2.160856 -1.317558,2.160856 -1.316987,0 -1.51902,-1.02962 -1.51902,-2.093368 V 6.6279809 h -2.533121 v 8.1514501" /><path
       inkscape:connector-curvature="0"
       id="path26"
       style="fill:#231f20;fill-opacity:1;fill-rule:nonzero;stroke:none;stroke-width:0.04745901"
       d="m 40.524904,8.0397011 c -0.811976,-1.0307469 -2.144909,-1.622134 -3.462086,-1.622134 -2.533125,0 -4.559577,1.6888766 -4.559577,4.3071089 0,2.616369 2.026452,4.305388 4.559577,4.305388 2.364978,0 3.849543,-1.689019 3.849543,-4.305388 V 9.9312094 h -5.875995 c 0.201129,-0.9630859 0.929152,-1.5878459 1.907614,-1.5878459 0.828301,0 1.384284,0.4217589 1.806764,0.9958893 z m -2.144909,3.6122769 c 0.01632,0.844771 -0.642169,1.553714 -1.555042,1.553714 -1.113578,0 -1.720911,-0.760104 -1.788587,-1.553714 h 3.343629" /><path
       inkscape:connector-curvature="0"
       id="path28"
       style="fill:#231f20;fill-opacity:1;fill-rule:nonzero;stroke:none;stroke-width:0.04745901"
       d="m 50.547631,6.6289068 h -2.331378 v 1.0817334 h -0.03303 c -0.3902,-0.5919377 -1.368472,-1.2838047 -2.516602,-1.2838047 -2.432843,0 -4.036768,1.7556131 -4.036768,4.2373775 0,2.280833 1.419119,4.374014 3.749404,4.374014 1.04799,0 2.02631,-0.286036 2.600992,-1.079883 h 0.03283 v 4.69754 h 2.534545 z m -4.358207,6.1807882 c -1.265638,0 -2.026643,-0.844961 -2.026643,-2.076856 0,-1.2337926 0.761005,-2.0776513 2.026643,-2.0776513 1.267677,0 2.026829,0.8438587 2.026829,2.0776513 0,1.231895 -0.759152,2.076856 -2.026829,2.076856" /><path
       inkscape:connector-curvature="0"
       id="path30"
       style="fill:#18679e;fill-opacity:1;fill-rule:nonzero;stroke:none;stroke-width:0.04745901"
       d="M 68.901453,21.182698 H 54.341032 c -0.695275,0 -1.260511,-0.551523 -1.260511,-1.231896 V 5.3302763 c 0,-0.6803724 0.565236,-1.2328238 1.260511,-1.2328238 h 14.560421 c 0.697173,0 1.263837,0.5524514 1.263837,1.2328238 V 19.950802 c 0,0.680373 -0.566664,1.231896 -1.263837,1.231896" /><path
       inkscape:connector-curvature="0"
       id="path32"
       style="fill:#ffffff;fill-opacity:1;fill-rule:nonzero;stroke:none;stroke-width:0.04745901"
       d="m 56.881039,18.830677 c 0.810594,0 1.468849,-0.658496 1.468849,-1.469523 0,-0.811262 -0.658255,-1.469568 -1.468849,-1.469568 -0.81392,0 -1.469806,0.658306 -1.469806,1.469568 0,0.811027 0.655878,1.469523 1.469806,1.469523 m -1.268577,-4.053096 h 2.536204 V 6.6242749 h -2.536204 v 8.1533061" /><path
       inkscape:connector-curvature="0"
       id="path34"
       style="fill:#ffffff;fill-opacity:1;fill-rule:nonzero;stroke:none;stroke-width:0.04745901"
       d="m 59.738542,14.777581 h 2.428954 v -1.114527 h 0.03464 c 0.337917,0.640887 1.165124,1.316797 2.398115,1.316797 2.565152,0 3.039275,-1.688164 3.039275,-3.884046 V 6.6242749 h -2.533362 v 3.9648581 c 0,0.945669 -0.01663,2.161995 -1.316996,2.161995 -1.318403,0 -1.519632,-1.030573 -1.519632,-2.094128 V 6.6242749 H 59.73855 v 8.1533061" /></g></svg>