<?xml version="1.0" encoding="UTF-8" standalone="no"?>
<!-- Created with Inkscape (http://www.inkscape.org/) -->

<svg
   xmlns:dc="http://purl.org/dc/elements/1.1/"
   xmlns:cc="http://creativecommons.org/ns#"
   xmlns:rdf="http://www.w3.org/1999/02/22-rdf-syntax-ns#"
   xmlns:svg="http://www.w3.org/2000/svg"
   xmlns="http://www.w3.org/2000/svg"
   xmlns:sodipodi="http://sodipodi.sourceforge.net/DTD/sodipodi-0.dtd"
   xmlns:inkscape="http://www.inkscape.org/namespaces/inkscape"
   width="200"
   height="200"
   viewBox="0 0 52.916665 52.916668"
   version="1.1"
   id="svg8"
   inkscape:version="0.92.2 (5c3e80d, 2017-08-06)"
   sodipodi:docname="linkedin-logo.svg">
  <defs
     id="defs2">
    <inkscape:perspective
       sodipodi:type="inkscape:persp3d"
       inkscape:vp_x="0 : 148.5 : 1"
       inkscape:vp_y="0 : 1000 : 0"
       inkscape:vp_z="210 : 148.5 : 1"
       inkscape:persp3d-origin="105 : 99 : 1"
       id="perspective979" />
  </defs>
  <sodipodi:namedview
     id="base"
     pagecolor="#ffffff"
     bordercolor="#666666"
     borderopacity="1.0"
     inkscape:pageopacity="0.0"
     inkscape:pageshadow="2"
     inkscape:zoom="1.979899"
     inkscape:cx="70.875783"
     inkscape:cy="145.17478"
     inkscape:document-units="mm"
     inkscape:current-layer="layer1"
     showgrid="false"
     showguides="false"
     inkscape:guide-bbox="true"
     objecttolerance="1"
     gridtolerance="1"
     guidetolerance="1"
     inkscape:window-width="1506"
     inkscape:window-height="889"
     inkscape:window-x="2026"
     inkscape:window-y="62"
     inkscape:window-maximized="0"
     units="px">
    <sodipodi:guide
       position="89.958331,201.46132"
       orientation="0,1"
       id="guide831"
       inkscape:locked="false" />
    <sodipodi:guide
       position="115.28274,36.285715"
       orientation="0,1"
       id="guide833"
       inkscape:locked="false" />
    <sodipodi:guide
       position="13.985119,118.68453"
       orientation="1,0"
       id="guide835"
       inkscape:locked="false" />
    <sodipodi:guide
       position="179.16071,85.800598"
       orientation="1,0"
       id="guide837"
       inkscape:locked="false" />
  </sodipodi:namedview>
  <metadata
     id="metadata5">
    <rdf:RDF>
      <cc:Work
         rdf:about="">
        <dc:format>image/svg+xml</dc:format>
        <dc:type
           rdf:resource="http://purl.org/dc/dcmitype/StillImage" />
        <dc:title></dc:title>
      </cc:Work>
    </rdf:RDF>
  </metadata>
  <g
     inkscape:label="Layer 1"
     inkscape:groupmode="layer"
     id="layer1"
     transform="translate(0,-244.08332)">
    <g
       id="g955"
       transform="matrix(0.27680919,0,0,0.27680919,-81.274028,221.61795)">
      <path
         sodipodi:nodetypes="ccccccccccccc"
         inkscape:connector-curvature="0"
         id="path839-6"
         d="m 332.99853,95.53868 h 112.93962 c 0,0 9.07087,-0.08167 16.95532,6.93415 8.08491,7.41673 8.89825,17.25633 8.89825,17.25633 v 118.30655 c 0,0 0.66749,5.94734 -7.88513,15.03451 -9.15398,8.35217 -18.19522,7.64406 -18.19522,7.64406 H 331.56221 c 0,0 -11.38467,-0.61844 -17.86599,-8.63652 -7.61723,-9.28762 -7.08058,-17.82181 -7.08058,-17.82181 V 119.72916 c 0,0 1.57459,-10.48343 8.99136,-16.8979 7.1495,-7.082642 17.39153,-7.29258 17.39153,-7.29258 z"
         style="fill:#007bb5;fill-opacity:1;stroke:none;stroke-width:0.26458332px;stroke-linecap:butt;stroke-linejoin:miter;stroke-opacity:1" />
      <path
         sodipodi:nodetypes="ccccccc"
         inkscape:connector-curvature="0"
         id="path882-6"
         d="m 317.21938,154.27807 v -31.00326 c 0.17802,-11.34246 10.89099,-18.2637 21.64895,-18.17433 l 33.14161,-0.26727 -32.87434,5.07812 c -11.0376,1.5772 -15.46401,6.88817 -16.5708,15.50164 z"
         style="fill:#6dc5ef;fill-opacity:1;stroke:none;stroke-width:0.26458332px;stroke-linecap:butt;stroke-linejoin:miter;stroke-opacity:1" />
      <path
         sodipodi:nodetypes="ccccccc"
         inkscape:connector-curvature="0"
         id="path882-3-2"
         d="m 460.20901,199.98116 v 31.00326 c -0.17803,11.34246 -10.89093,18.2637 -21.64883,18.17433 l -33.14143,0.26727 32.87416,-5.07812 c 11.03754,-1.5772 15.46392,-6.88816 16.57071,-15.50164 z"
         style="fill:#12465f;fill-opacity:1;stroke:none;stroke-width:0.26458332px;stroke-linecap:butt;stroke-linejoin:miter;stroke-opacity:1" />
      <path
         inkscape:connector-curvature="0"
         id="path910"
         d="m 344.53854,154.51596 0.11834,69.83896 h 20.0047 l 0.11834,-69.83896 z"
         style="fill:#ffffff;fill-opacity:1;stroke:none;stroke-width:0.4687255px;stroke-linecap:butt;stroke-linejoin:miter;stroke-opacity:1" />
      <ellipse
         ry="10.535026"
         rx="10.416656"
         cy="139.6012"
         cx="354.71844"
         id="path912"
         style="fill:#ffffff;fill-opacity:1;stroke:none;stroke-width:0.4687255;stroke-opacity:1" />
      <path
         sodipodi:nodetypes="ccccccccccccc"
         inkscape:connector-curvature="0"
         id="path914"
         d="m 374.48643,154.51596 0.23672,69.83896 h 20.1231 l -0.11834,-43.20546 c 0,0 1.18371,-6.74714 9.94318,-6.86552 9.23297,0.35512 10.17988,7.81249 10.17988,7.81249 v 42.37684 l 20.00476,0.11846 v -42.25847 c 0,-7.16143 -2.01233,-27.10697 -19.82718,-27.93556 -20.18226,-0.94696 -20.06388,9.58804 -20.06388,9.58804 l -0.11834,-9.46968 z"
         style="fill:#ffffff;fill-opacity:1;stroke:none;stroke-width:0.4687255px;stroke-linecap:butt;stroke-linejoin:miter;stroke-opacity:1" />
    </g>
  </g>
</svg>
