<?xml version="1.0" encoding="UTF-8" standalone="no"?>
<!-- Created with Inkscape (http://www.inkscape.org/) -->

<svg
   xmlns:dc="http://purl.org/dc/elements/1.1/"
   xmlns:cc="http://creativecommons.org/ns#"
   xmlns:rdf="http://www.w3.org/1999/02/22-rdf-syntax-ns#"
   xmlns:svg="http://www.w3.org/2000/svg"
   xmlns="http://www.w3.org/2000/svg"
   xmlns:sodipodi="http://sodipodi.sourceforge.net/DTD/sodipodi-0.dtd"
   xmlns:inkscape="http://www.inkscape.org/namespaces/inkscape"
   version="1.1"
   id="svg2"
   xml:space="preserve"
   width="1920"
   height="1920"
   viewBox="0 0 1920 1920"
   sodipodi:docname="Mustang.pdf"
   inkscape:version="0.92.2 (5c3e80d, 2017-08-06)"><metadata
     id="metadata8"><rdf:RDF><cc:Work
         rdf:about=""><dc:format>image/svg+xml</dc:format><dc:type
           rdf:resource="http://purl.org/dc/dcmitype/StillImage" /><dc:title></dc:title></cc:Work></rdf:RDF></metadata><defs
     id="defs6"><clipPath
       clipPathUnits="userSpaceOnUse"
       id="clipPath22"><path
         d="M 0,1440 H 1440 V 0 H 0 Z"
         id="path20"
         inkscape:connector-curvature="0" /></clipPath><clipPath
       clipPathUnits="userSpaceOnUse"
       id="clipPath38"><path
         d="M 0,1440 H 1440 V 0 H 0 Z"
         id="path36"
         inkscape:connector-curvature="0" /></clipPath><clipPath
       clipPathUnits="userSpaceOnUse"
       id="clipPath50"><path
         d="m 473.945,821.556 42.962,151.923 h 131.22 v -88.646 l -26.244,1.166 V 662.927 l 26.244,1.166 V 575.447 H 521.185 v 88.646 l 26.243,-1.166 V 817.765 L 498.439,646.306 H 453.922 L 403.573,817.765 V 662.927 l 26.438,1.166 V 575.447 H 302.68 v 88.646 l 26.244,-1.166 v 223.072 l -26.244,-1.166 v 88.646 h 128.498 z"
         id="path48"
         inkscape:connector-curvature="0" /></clipPath><linearGradient
       x1="0"
       y1="0"
       x2="1"
       y2="0"
       gradientUnits="userSpaceOnUse"
       gradientTransform="matrix(-1.53e-5,-392.98111,-392.98111,1.53e-5,475.40381,973.47852)"
       spreadMethod="pad"
       id="linearGradient58"><stop
         style="stop-opacity:1;stop-color:#302a83"
         offset="0"
         id="stop54" /><stop
         style="stop-opacity:1;stop-color:#22174b"
         offset="1"
         id="stop56" /></linearGradient><clipPath
       clipPathUnits="userSpaceOnUse"
       id="clipPath68"><path
         d="M 698.67,947.526 C 679.746,924.39 670.287,893.772 670.287,855.673 v 0 c 0,-34.605 7.709,-63.182 23.134,-85.729 v 0 c 14.254,-20.996 37.583,-34.993 69.983,-41.991 v 0 l 37.13,-7.873 c 9.721,-2.142 17.365,-4.957 22.94,-8.457 v 0 c 6.997,-4.473 10.497,-11.955 10.497,-22.453 v 0 c 0,-7.777 -2.463,-14.193 -7.387,-19.245 v 0 c -4.796,-5.249 -10.303,-7.873 -16.525,-7.873 v 0 c -13.607,0 -26.893,6.706 -39.851,20.12 v 0 c -5.054,5.249 -8.878,10.302 -11.468,15.163 v 0 c -2.595,4.858 -5.381,12.438 -8.36,22.745 v 0 H 681.952 V 579.821 h 68.428 v 25.66 c 21.772,-25.468 46.267,-38.198 73.483,-38.198 v 0 c 27.992,0 50.737,12.438 68.234,37.324 v 0 c 18.273,26.048 27.41,58.416 27.41,97.102 v 0 c 0,33.63 -7.454,62.01 -22.356,85.147 v 0 c -15.164,23.715 -36.936,38.391 -65.318,44.031 v 0 l -38.102,7.582 c -11.925,2.523 -19.96,5.052 -24.106,7.581 v 0 c -9.462,5.832 -14.191,14.48 -14.191,25.953 v 0 c 0,7.581 2.527,13.8 7.582,18.661 v 0 c 4.535,4.471 10.43,6.708 17.69,6.708 v 0 c 13.736,0 26.438,-7.874 38.101,-23.621 v 0 c 6.092,-8.163 10.431,-17.595 13.026,-28.284 v 0 h 70.372 V 975.52 h -67.65 v -27.702 c -23.979,22.353 -47.37,33.534 -70.179,33.534 v 0 c -25.533,0 -47.432,-11.277 -65.706,-33.826"
         id="path66"
         inkscape:connector-curvature="0" /></clipPath><linearGradient
       x1="0"
       y1="0"
       x2="1"
       y2="0"
       gradientUnits="userSpaceOnUse"
       gradientTransform="matrix(-1.53e-5,-392.98083,-392.98083,1.53e-5,794.89746,973.39893)"
       spreadMethod="pad"
       id="linearGradient76"><stop
         style="stop-opacity:1;stop-color:#302a83"
         offset="0"
         id="stop72" /><stop
         style="stop-opacity:1;stop-color:#22174b"
         offset="1"
         id="stop74" /></linearGradient><clipPath
       clipPathUnits="userSpaceOnUse"
       id="clipPath86"><path
         d="M 0,1440 H 1440 V 0 H 0 Z"
         id="path84"
         inkscape:connector-curvature="0" /></clipPath></defs><sodipodi:namedview
     pagecolor="#ffffff"
     bordercolor="#666666"
     borderopacity="1"
     objecttolerance="10"
     gridtolerance="10"
     guidetolerance="10"
     inkscape:pageopacity="0"
     inkscape:pageshadow="2"
     inkscape:window-width="827"
     inkscape:window-height="749"
     id="namedview4"
     showgrid="false"
     inkscape:zoom="0.49166667"
     inkscape:cx="1029.1386"
     inkscape:cy="998.22144"
     inkscape:window-x="2527"
     inkscape:window-y="130"
     inkscape:window-maximized="0"
     inkscape:current-layer="g10" /><g
     id="g10"
     inkscape:groupmode="layer"
     inkscape:label="Mustang"
     transform="matrix(1.3333333,0,0,-1.3333333,0,1920)"><g
       id="g12"
       transform="translate(431.1777,973.4785)"><path
         d="m 0,0 h -128.498 v -88.646 l 26.244,1.167 v -223.073 l -26.244,1.166 v -88.645 H -1.167 v 88.645 l -26.438,-1.166 v 154.839 l 50.35,-171.46 h 44.517 l 48.988,171.46 v -154.839 l -26.243,1.166 v -88.645 h 126.942 v 88.645 l -26.244,-1.166 v 223.073 l 26.244,-1.167 V 0 L 85.729,0 42.768,-151.922 Z"
         style="fill:none;stroke:#22174b;stroke-width:23;stroke-linecap:butt;stroke-linejoin:miter;stroke-miterlimit:4;stroke-dasharray:none;stroke-opacity:1"
         id="path14"
         inkscape:connector-curvature="0" /></g><g
       id="g16"><g
         id="g18"
         clip-path="url(#clipPath22)"><g
           id="g24"
           transform="translate(750.3799,579.8213)"><path
             d="m 0,0 v 25.66 c 21.772,-25.469 46.267,-38.199 73.482,-38.199 27.994,0 50.739,12.438 68.235,37.325 18.273,26.048 27.41,58.415 27.41,97.102 0,33.63 -7.454,62.01 -22.356,85.147 -15.164,23.715 -36.936,38.39 -65.318,44.031 l -38.102,7.581 c -11.925,2.524 -19.959,5.053 -24.106,7.582 -9.462,5.832 -14.191,14.479 -14.191,25.952 0,7.582 2.527,13.801 7.582,18.662 4.535,4.47 10.43,6.707 17.69,6.707 13.736,0 26.439,-7.873 38.102,-23.619 6.091,-8.165 10.43,-17.597 13.025,-28.285 h 70.372 v 130.052 h -67.65 v -27.701 c -23.979,22.353 -47.37,33.533 -70.179,33.533 -25.532,0 -47.433,-11.276 -65.706,-33.825 -18.924,-23.137 -28.383,-53.754 -28.383,-91.853 0,-34.605 7.709,-63.182 23.134,-85.73 14.255,-20.995 37.583,-34.992 69.983,-41.99 l 37.13,-7.873 c 9.721,-2.142 17.366,-4.957 22.94,-8.457 6.998,-4.474 10.497,-11.955 10.497,-22.452 0,-7.779 -2.463,-14.194 -7.387,-19.246 C 71.408,84.854 65.901,82.23 59.68,82.23 46.072,82.23 32.786,88.938 19.828,102.351 14.774,107.6 10.95,112.652 8.359,117.514 5.765,122.371 2.979,129.952 0,140.259 H -68.429 V 0 Z"
             style="fill:none;stroke:#22174b;stroke-width:23;stroke-linecap:butt;stroke-linejoin:miter;stroke-miterlimit:4;stroke-dasharray:none;stroke-opacity:1"
             id="path26"
             inkscape:connector-curvature="0" /></g></g></g><g
       id="g28"
       transform="translate(431.1777,973.4785)"><path
         d="m 0,0 h -128.498 v -88.646 l 26.244,1.167 v -223.073 l -26.244,1.166 v -88.645 H -1.167 v 88.645 l -26.438,-1.166 v 154.839 l 50.35,-171.46 h 44.517 l 48.988,171.46 v -154.839 l -26.243,1.166 v -88.645 h 126.942 v 88.645 l -26.244,-1.166 v 223.073 l 26.244,-1.167 V 0 L 85.729,0 42.768,-151.922 Z"
         style="fill:none;stroke:#ffffff;stroke-width:10;stroke-linecap:butt;stroke-linejoin:miter;stroke-miterlimit:4;stroke-dasharray:none;stroke-opacity:1"
         id="path30"
         inkscape:connector-curvature="0" /></g><g
       id="g32"><g
         id="g34"
         clip-path="url(#clipPath38)"><g
           id="g40"
           transform="translate(750.3799,579.8213)"><path
             d="m 0,0 v 25.66 c 21.772,-25.469 46.267,-38.199 73.482,-38.199 27.994,0 50.739,12.438 68.235,37.325 18.273,26.048 27.41,58.415 27.41,97.102 0,33.63 -7.454,62.01 -22.356,85.147 -15.164,23.715 -36.936,38.39 -65.318,44.031 l -38.102,7.581 c -11.925,2.524 -19.959,5.053 -24.106,7.582 -9.462,5.832 -14.191,14.479 -14.191,25.952 0,7.582 2.527,13.801 7.582,18.662 4.535,4.47 10.43,6.707 17.69,6.707 13.736,0 26.439,-7.873 38.102,-23.619 6.091,-8.165 10.43,-17.597 13.025,-28.285 h 70.372 v 130.052 h -67.65 v -27.701 c -23.979,22.353 -47.37,33.533 -70.179,33.533 -25.532,0 -47.433,-11.276 -65.706,-33.825 -18.924,-23.137 -28.383,-53.754 -28.383,-91.853 0,-34.605 7.709,-63.182 23.134,-85.73 14.255,-20.995 37.583,-34.992 69.983,-41.99 l 37.13,-7.873 c 9.721,-2.142 17.366,-4.957 22.94,-8.457 6.998,-4.474 10.497,-11.955 10.497,-22.452 0,-7.779 -2.463,-14.194 -7.387,-19.246 C 71.408,84.854 65.901,82.23 59.68,82.23 46.072,82.23 32.786,88.938 19.828,102.351 14.774,107.6 10.95,112.652 8.359,117.514 5.765,122.371 2.979,129.952 0,140.259 H -68.429 V 0 Z"
             style="fill:none;stroke:#ffffff;stroke-width:10;stroke-linecap:butt;stroke-linejoin:miter;stroke-miterlimit:4;stroke-dasharray:none;stroke-opacity:1"
             id="path42"
             inkscape:connector-curvature="0" /></g></g></g><g
       id="g44"><g
         id="g46"
         clip-path="url(#clipPath50)"><g
           id="g52"><path
             d="m 473.945,821.556 42.962,151.923 h 131.22 v -88.646 l -26.244,1.166 V 662.927 l 26.244,1.166 V 575.447 H 521.185 v 88.646 l 26.243,-1.166 V 817.765 L 498.439,646.306 H 453.922 L 403.573,817.765 V 662.927 l 26.438,1.166 V 575.447 H 302.68 v 88.646 l 26.244,-1.166 v 223.072 l -26.244,-1.166 v 88.646 h 128.498 z"
             style="fill:url(#linearGradient58);stroke:none"
             id="path60"
             inkscape:connector-curvature="0" /></g></g></g><g
       id="g62"><g
         id="g64"
         clip-path="url(#clipPath68)"><g
           id="g70"><path
             d="M 698.67,947.526 C 679.746,924.39 670.287,893.772 670.287,855.673 v 0 c 0,-34.605 7.709,-63.182 23.134,-85.729 v 0 c 14.254,-20.996 37.583,-34.993 69.983,-41.991 v 0 l 37.13,-7.873 c 9.721,-2.142 17.365,-4.957 22.94,-8.457 v 0 c 6.997,-4.473 10.497,-11.955 10.497,-22.453 v 0 c 0,-7.777 -2.463,-14.193 -7.387,-19.245 v 0 c -4.796,-5.249 -10.303,-7.873 -16.525,-7.873 v 0 c -13.607,0 -26.893,6.706 -39.851,20.12 v 0 c -5.054,5.249 -8.878,10.302 -11.468,15.163 v 0 c -2.595,4.858 -5.381,12.438 -8.36,22.745 v 0 H 681.952 V 579.821 h 68.428 v 25.66 c 21.772,-25.468 46.267,-38.198 73.483,-38.198 v 0 c 27.992,0 50.737,12.438 68.234,37.324 v 0 c 18.273,26.048 27.41,58.416 27.41,97.102 v 0 c 0,33.63 -7.454,62.01 -22.356,85.147 v 0 c -15.164,23.715 -36.936,38.391 -65.318,44.031 v 0 l -38.102,7.582 c -11.925,2.523 -19.96,5.052 -24.106,7.581 v 0 c -9.462,5.832 -14.191,14.48 -14.191,25.953 v 0 c 0,7.581 2.527,13.8 7.582,18.661 v 0 c 4.535,4.471 10.43,6.708 17.69,6.708 v 0 c 13.736,0 26.438,-7.874 38.101,-23.621 v 0 c 6.092,-8.163 10.431,-17.595 13.026,-28.284 v 0 h 70.372 V 975.52 h -67.65 v -27.702 c -23.979,22.353 -47.37,33.534 -70.179,33.534 v 0 c -25.533,0 -47.432,-11.277 -65.706,-33.826"
             style="fill:url(#linearGradient76);stroke:none"
             id="path78"
             inkscape:connector-curvature="0" /></g></g></g><g
       id="g80"><g
         id="g82"
         clip-path="url(#clipPath86)"><g
           id="g88"
           transform="translate(1173.3877,445.418)"><path
             d="m 0,0 -4.313,-0.967 -6.689,-0.529 -9.24,0.353 -5.369,0.704 -4.048,1.232 -3.521,1.32 8.362,17.866 -0.264,1.671 -0.265,4.752 1.056,4.666 1.057,3.784 2.112,2.464 4.488,2.729 2.64,2.641 1.584,3.168 0.441,2.64 0.264,3.959 0.615,35.733 -0.439,39.603 -1.145,3.432 -1.055,3.873 -1.056,5.896 0.176,5.106 0.703,5.191 0.881,6.248 -0.088,3.258 -0.616,2.463 -5.457,12.498 -6.073,12.937 -5.632,10.913 -8.273,16.193 -4.488,9.242 -3.168,7.656 -3.345,8.362 -1.32,6.599 -0.792,4.489 -0.176,2.728 -3.521,-2.023 -3.608,-2.202 -3.08,-2.375 -3.08,-3.256 -4.841,-5.633 -5.105,-6.337 -3.608,-5.721 -4.929,-9.504 -3.519,-9.064 -4.313,-13.643 -2.113,-9.504 -2.199,-9.769 -1.673,-9.858 -0.528,-7.832 -0.703,-3.521 1.143,-5.543 1.32,-3.873 0.88,-6.424 0.176,-3.434 -0.968,-2.552 -2.639,-3.608 -4.049,-6.072 -4.137,-5.018 -4.049,-4.224 -17.513,-34.322 -7.217,-14.082 -3.959,-7.305 -2.026,-4.84 -0.175,-2.992 1.056,-5.897 0.528,-3.961 -0.352,-3.255 -1.935,-3.168 -3.257,-3.346 -3.609,-2.111 -1.936,-13.819 -5.017,-0.967 -5.192,-0.351 -7.128,0.439 -5.985,1.057 -5.017,1.408 -2.992,1.231 -1.936,1.496 9.328,17.867 -0.175,2.992 0.968,3.695 1.32,3.258 4.665,4.664 3.96,2.729 3.432,2.375 2.2,2.377 7.216,14.697 9.77,24.291 8.449,20.594 v 4.752 l -0.176,6.865 -0.264,6.863 0.616,5.369 1.76,3.344 0.88,2.113 1.672,1.145 0.792,1.055 0.088,2.64 0.177,10.561 -1.233,4.4 -2.024,7.483 -2.641,6.072 -2.551,9.328 -2.905,9.594 -2.024,7.041 -0.88,6.863 0.527,7.129 1.409,7.041 0.968,5.192 1.321,4.929 1.231,2.553 -3.345,0.791 -11,2.465 -11.177,2.463 -10.034,2.552 -9.591,2.817 -8.802,2.289 -4.136,1.232 -2.113,-2.992 -3.344,-3.697 -3.256,-2.641 -2.64,-1.848 -2.729,-1.144 -3.08,-0.791 -0.351,-2.026 -0.793,-2.639 -0.616,-1.496 -6.689,-11.001 -5.721,-9.506 -7.217,-11.352 -5.191,-7.216 -3.345,-4.401 -4.048,-4.666 -6.865,-7.392 -3.697,-5.104 -4.135,-6.072 -4.224,-7.569 -5.721,-9.505 -0.881,-1.409 0.088,-3.431 -0.176,-5.457 -0.439,-4.664 -1.672,-2.114 -3.346,-2.816 -3.256,-2.199 -1.408,-1.057 -6.424,-13.728 -7.041,-14.434 -4.488,-10.65 -2.465,-6.336 -2.375,-7.481 -2.025,-7.305 -1.848,-6.423 -1.32,-5.018 0.439,-3.783 v -5.899 l -0.088,-4.31 -1.056,-2.729 -2.024,-3.697 -2.287,-2.641 -2.289,-1.847 1.496,-2.289 -7.393,-16.106 -5.105,-1.496 -6.248,-0.615 -5.369,0.969 -5.897,1.759 -4.048,1.76 -4.4,3.432 -2.023,2.377 -0.969,2.728 14.169,21.739 0.881,3.695 1.496,6.601 1.76,4.137 2.464,2.463 2.2,2.377 2.904,3.08 5.193,8.01 4.928,8.271 6.953,13.202 3.608,8.8 5.105,12.498 2.553,7.041 1.847,5.545 0.704,2.112 -0.616,2.464 -0.351,5.016 0.703,4.488 1.32,5.106 1.496,3.783 2.377,2.904 3.168,2.377 3.873,2.641 10.033,20.418 8.272,19.01 2.289,6.599 0.176,4.137 0.263,13.201 1.233,9.858 0.527,6.337 0.53,4.576 1.142,4.841 1.586,3.343 0.439,1.584 -2.025,2.201 -2.199,4.313 -1.672,3.168 -1.057,3.256 -1.144,-0.968 -2.992,-4.488 -6.6,-9.417 -4.488,-6.337 -3.522,-5.28 -1.935,-3.168 -5.721,-6.162 -6.865,-6.776 -8.449,-8.625 -7.569,-7.744 -5.191,-5.545 -4.313,-4.752 -3.08,-3.873 -1.937,-2.992 -1.055,-1.848 -2.289,-7.392 -1.936,-8.45 -0.263,-1.937 0.088,-2.375 -0.969,-5.018 -0.969,-2.992 -1.584,-2.992 -2.816,-3.256 -4.4,-3.961 -2.64,-1.848 -2.024,-1.759 -8.009,-20.418 -7.833,-20.418 -3.873,-12.41 -2.023,-7.745 -2.289,-7.656 0.527,-3.609 0.354,-4.752 -0.088,-4.576 -1.145,-3.256 -1.937,-3.258 -2.287,-3.08 1.584,-1.672 -5.633,-15.049 -3.432,-1.32 -5.457,-1.145 h -5.369 l -4.664,0.881 -4.488,1.584 -4.049,2.024 -3.52,2.816 -1.496,2.992 10.473,20.418 0.793,2.905 0.967,4.751 1.496,3.786 3.08,3.431 2.377,1.938 9.24,17.689 5.193,10.824 6.866,14.963 4.488,11.881 2.287,9.328 2.904,8.801 -0.175,4.225 0.529,7.304 0.351,4.225 1.055,2.992 1.586,2.729 4.135,5.015 2.025,2.289 3.608,7.041 6.513,13.905 4.841,10.121 7.305,14.874 2.639,7.657 4.488,13.904 3.785,11.618 4.488,13.289 2.729,9.065 -1.321,1.937 -2.287,3.168 -2.465,4.664 -2.464,5.281 -1.672,4.84 -1.76,4.84 -1.32,6.601 -1.057,6.513 -0.703,5.896 0.527,7.305 0.352,5.896 1.144,6.777 1.321,6.953 1.759,5.984 1.938,5.457 1.935,4.137 -0.529,2.904 -0.615,3.608 0.176,11.705 0.351,8.537 1.057,17.602 -0.176,7.745 -0.088,5.72 -0.527,6.689 -1.674,6.072 -2.814,6.865 -2.553,4.664 -2.201,4.313 -3.432,4.576 -2.816,-1.32 -5.282,-1.584 -3.52,-1.32 -5.897,-3.608 -10.736,-7.041 -5.896,-4.752 -3.873,-4.137 -1.672,-2.817 -1.496,-4.576 -1.496,-3.784 -1.936,-2.728 -3.873,-1.849 -3.873,-0.968 -3.695,-0.176 -4.664,0.352 -3.698,0.968 -3.08,2.201 -1.935,2.728 -1.233,2.464 -5.281,-1.496 -4.664,-0.968 -4.664,-0.088 -4.488,0.792 -4.401,1.496 -3.521,2.377 -3.52,3.08 -0.881,2.024 -0.176,4.84 0.618,3.433 0.615,1.672 1.496,0.44 -0.176,3.96 0.264,2.288 1.057,2.553 0.263,2.904 0.352,1.848 0.176,2.729 0.265,3.432 1.231,3.432 2.201,3.784 5.721,5.105 3.607,2.992 2.113,1.496 0.703,2.992 0.793,3.697 1.233,2.728 2.64,2.288 -0.177,3.433 0.617,2.816 1.76,2.641 2.023,3.167 1.496,2.641 0.793,2.2 -0.088,3.08 0.088,1.761 -0.527,2.816 -0.354,2.816 0.176,2.376 0.441,2.113 1.233,2.024 1.408,2.112 1.143,0.616 1.408,4.224 1.937,3.873 2.375,3.96 6.162,8.361 -1.32,2.464 -1.232,3.697 -1.057,4.84 -0.615,5.809 0.703,4.488 0.439,3.168 2.465,4.665 2.465,3.168 1.936,1.408 0.705,-0.264 0.088,-1.144 v -0.968 -0.704 l 0.439,-1.32 0.088,-0.528 1.057,-0.704 0.966,3.52 1.762,3.697 3.959,4.928 3.08,3.256 2.641,2.025 1.584,0.967 0.793,-0.175 v -1.144 l -0.44,-1.144 -1.056,-1.937 -2.377,-4.664 -1.672,-3.521 -1.233,-2.464 -0.351,-1.496 -0.176,-1.672 v -1.672 l -0.439,-1.761 1.847,2.729 2.817,4.136 2.816,2.905 2.024,2.376 2.64,1.936 1.76,0.704 0.264,-0.792 -0.879,-1.672 -0.705,-2.025 -0.704,-1.319 -0.087,-1.321 -0.442,-1.144 0.529,-1.584 2.112,2.905 3.873,3.607 3.961,2.817 3.256,2.024 3.168,1.584 2.64,0.528 1.76,0.264 0.527,-0.352 -0.088,-0.616 -1.142,-0.792 -1.32,-1.056 -1.321,-1.848 -0.705,-1.408 -0.351,-0.88 v -0.969 l 3.873,1.056 3.608,0.441 3.168,0.528 2.023,0.176 1.145,-0.088 3.52,2.728 3.873,2.288 3.519,1.321 3.258,0.439 3.168,0.265 3.344,-0.969 1.584,-1.232 1.056,-1.056 0.615,-0.88 v -0.792 l 2.29,-0.176 2.992,-0.088 2.816,-0.088 2.024,-0.352 1.32,-0.704 3.697,0.704 6.248,0.792 5.016,-0.352 5.808,-0.44 6.426,-1.056 5.281,-1.936 4.401,-1.496 3.871,-1.761 6.072,-2.992 3.169,-2.464 2.552,-1.848 1.496,-1.321 2.553,-1.496 2.2,-1.584 2.728,-1.144 3.433,-2.024 4.752,-2.817 3.433,-2.728 3.256,-2.904 2.2,-2.376 1.496,-1.32 0.616,-0.969 0.177,-0.879 -0.088,-0.352 -1.938,-0.177 -1.319,0.264 -1.849,0.088 -1.671,-0.263 -0.088,-0.352 1.847,-0.617 4.137,-2.2 2.641,-2.2 2.992,-2.904 3.168,-3.345 2.289,-3.696 1.935,-3.08 1.76,-3.433 1.584,-3.608 0.969,-3.168 1.32,-3.785 0.352,-2.64 1.408,-2.024 1.76,-2.64 1.144,-2.377 1.496,-3.168 0.704,-1.76 0.088,-1.144 -0.528,-0.264 -2.464,0.616 -1.936,1.144 -2.2,1.496 -2.201,0.792 0.617,-0.88 1.497,-2.024 2.551,-5.633 2.288,-4.488 0.617,-2.2 1.055,-3.433 0.441,-1.936 0.704,-1.76 0.88,-1.848 0.704,-1.849 1.584,-3.872 1.144,-4.928 0.88,-5.193 0.792,-5.192 0.881,-3.873 1.055,-3.608 2.552,-5.017 1.233,-2.552 0.792,-1.232 1.143,-1.232 -1.759,-0.088 -3.609,1.32 -3.08,2.025 -2.639,2.463 -3.082,3.081 -2.376,2.376 -0.439,-0.264 0.967,-2.112 0.969,-2.288 1.32,-2.201 2.816,-5.808 1.584,-2.376 1.496,-1.144 2.288,-1.233 2.993,-1.055 2.816,-0.617 2.288,-0.352 1.233,-0.352 -1.233,-1.76 -2.112,-1.936 -1.937,-1.056 -1.672,-0.88 1.937,-0.528 2.376,-0.792 2.904,-1.144 3.521,-2.729 3.08,-2.728 2.816,-2.64 3.081,-2.552 2.904,-3.257 2.2,-1.584 2.992,-0.88 5.281,-2.464 8.801,-2.728 7.48,-2.553 8.185,-2.288 7.305,-1.496 7.129,-1.409 6.337,-0.175 7.568,-0.177 6.513,0.441 8.977,0.615 9.944,1.057 7.217,0.44 c 0,0 8.185,0.968 8.449,0.968 0.264,0 7.921,0.176 7.921,0.176 l 5.985,-0.352 5.544,-0.792 5.896,-1.32 4.753,-1.585 4.576,-2.376 5.282,-3.432 4.047,-2.64 2.201,-1.672 1.759,2.992 1.76,4.224 1.057,3.96 0.176,3.785 -1.056,4.136 -1.32,5.457 -1.056,6.513 -0.793,6.16 0.177,3.52 0.528,5.281 1.408,4.576 2.728,4.137 2.64,2.728 3.345,2.728 3.96,2.465 5.984,1.936 4.841,0.88 5.633,0.264 5.984,-0.088 5.016,-0.88 4.049,-1.232 4.488,-1.409 3.697,-2.023 2.2,-2.025 1.408,-1.232 1.057,-1.232 0.439,-1.848 0.088,-0.968 -0.791,-0.089 -0.881,-0.175 -0.88,-0.352 -0.088,-0.704 0.264,-1.144 2.112,-2.993 3.256,-2.64 3.434,-2.816 3.783,-3.521 4.137,-3.96 3.52,-3.521 3.96,-4.84 2.729,-4.048 2.2,-3.609 2.64,-4.576 1.584,-4.489 1.409,-3.168 1.055,-4.049 0.616,-4.664 0.792,-4.752 0.264,-5.721 0.617,-2.816 0.528,-1.936 2.289,-6.161 1.319,-3.344 0.88,-2.024 0.705,-2.465 -1.673,1.145 -4.223,4.136 -2.641,2.552 -2.289,3.08 -1.408,2.465 -1.321,2.992 -0.088,-2.816 -0.351,-4.048 -0.44,-3.609 -0.88,-3.168 v -2.905 l 0.44,-2.464 1.231,-2.112 3.434,-5.545 3.256,-3.872 1.32,-2.2 1.672,-2.112 0.88,-1.496 -0.176,-1.233 -0.352,-0.351 -2.287,0.175 -4.137,0.528 -3.169,1.144 -2.728,0.969 0.879,-3.785 1.585,-4.488 0.353,-3.785 -0.089,-5.456 -0.176,-3.432 -0.177,-1.937 -0.615,-1.232 -0.881,-0.527 -1.496,0.615 -1.584,1.496 -1.584,0.969 0.616,-4.577 0.529,-5.193 -0.264,-3.872 -0.528,-2.464 -0.265,-1.76 -1.056,-0.881 h -1.496 l -2.2,1.145 -1.672,1.408 v -4.312 l -0.44,-2.289 -0.616,-2.375 -1.145,-1.761 -1.496,-0.792 -1.056,0.264 -0.88,1.144 -0.439,1.848 -0.529,1.584 -0.968,-2.552 -1.319,-2.376 -1.145,-0.969 -1.584,-0.263 -1.672,0.175 -0.969,1.584 -0.792,-2.023 -1.055,-2.992 -1.761,-1.937 -1.144,-0.528 -1.232,1.672 -0.528,2.553 -1.144,3.696 -0.881,-2.2 -1.759,-5.809 -1.145,-2.992 -0.88,-2.2 -1.231,-1.584 -0.881,-0.88 -1.496,0.527 -1.057,1.672 -0.615,3.257 -1.057,4.753 -0.351,0.263 -0.088,-2.112 -4.313,-22.442 -0.968,-14.081 -0.616,-9.066 -1.144,-9.768 -0.528,-5.632 -1.232,-4.049 -1.937,-4.928 -1.319,-3.082 -1.585,-2.199 0.704,-8.449 0.352,-7.129 -0.352,-15.4 -0.088,-8.01 -0.088,-5.28 1.76,-2.025 3.168,-4.576 2.026,-3.697 1.408,-3.432 1.143,-3.52 0.353,-3.433 -0.353,-2.817 -0.88,-3.959 -1.32,-4.841 -1.144,-3.608 -2.024,-3.256 c 0,0 -1.056,-7.834 -1.056,-8.097 0,-0.264 -0.528,-6.865 -0.528,-6.865 l -1.673,-5.897 -2.376,-5.896 -2.112,-4.577 -6.688,-54.388 v -4.84 l 0.351,-2.904 0.441,-2.641 1.231,-3.434 1.849,-4.664 0.88,-4.224 0.351,-3.08 L 10.473,19.715 8.977,14.963 6.16,12.41 3.432,10.209 1.496,9.506 Z"
             style="fill:#231f20;fill-opacity:1;fill-rule:nonzero;stroke:none"
             id="path90"
             inkscape:connector-curvature="0" /></g><g
           id="g92"
           transform="translate(812.5527,973.0298)"><path
             d="m 0,0 0.879,-2.64 0.178,-2.64 v -2.113 l -0.53,-1.936 -1.408,-0.88 -2.64,-1.232 -1.936,-0.88 -2.816,-0.176 -3.344,-0.176 -3.344,0.176 -0.881,0.176 1.057,2.464 2.111,2.992 4.752,2.993 4.93,2.288 z"
             style="fill:#6c3707;fill-opacity:1;fill-rule:nonzero;stroke:none"
             id="path94"
             inkscape:connector-curvature="0" /></g><g
           id="g96"
           transform="translate(812.2012,968.1016)"><path
             d="m 0,0 c 0,0 -1.232,0.704 -2.816,0.88 -1.584,0.176 -4.401,-1.056 -4.401,-1.056 0,0 1.055,2.816 3.871,2.816 C -0.529,2.64 0,0 0,0"
             style="fill:#ffffff;fill-opacity:1;fill-rule:nonzero;stroke:none"
             id="path98"
             inkscape:connector-curvature="0" /></g><g
           id="g100"
           transform="translate(800.2305,964.0532)"><path
             d="m 0,0 c 0,-1.847 1.498,-3.345 3.346,-3.345 1.845,0 3.343,1.498 3.343,3.345 0,1.847 -1.498,3.344 -3.343,3.344 C 1.498,3.344 0,1.847 0,0"
             style="fill:#231f20;fill-opacity:1;fill-rule:nonzero;stroke:none"
             id="path102"
             inkscape:connector-curvature="0" /></g><g
           id="g104"
           transform="translate(797.9434,907.5518)"><path
             d="m 0,0 -5.281,-9.857 -2.465,-3.872 -1.584,-4.049 -1.936,-3.344 -2.992,-2.112 -4.224,-2.817 -2.288,-1.232 -3.521,-0.352 -3.168,0.176 -2.465,1.408 -1.232,1.408 6.513,3.521 4.049,2.464 2.463,4.048 2.465,4.753 2.289,4.048 3.344,3.168 5.808,2.113 z"
             style="fill:#7e0823;fill-opacity:1;fill-rule:nonzero;stroke:none"
             id="path106"
             inkscape:connector-curvature="0" /></g><g
           id="g108"
           transform="translate(972.376,922.689)"><path
             d="m 0,0 -8.449,7.041 -11.735,4.224 3.286,6.571 -6.571,6.102 2.347,4.225 -8.448,5.163 3.285,6.571 -12.674,5.164 -0.469,10.795 -10.326,6.102 -0.471,8.449 -15.019,3.285 1.877,8.918 -9.856,2.817 0.469,8.918 -10.326,-0.47 -2.816,6.103 h -9.389 l 11.736,5.163 5.631,-7.041 15.022,-0.938 -1.409,-8.919 16.428,-8.918 -4.693,-3.755 12.203,-10.796 -1.408,-3.286 15.49,-10.795 -2.348,-6.102 10.796,-11.265 -4.693,-1.878 11.733,-11.265 -2.346,-6.571 z"
             style="fill:#393536;fill-opacity:1;fill-rule:nonzero;stroke:none"
             id="path110"
             inkscape:connector-curvature="0" /></g><g
           id="g112"
           transform="translate(884.6025,1020.7891)"><path
             d="m 0,0 7.51,-1.408 10.795,-2.817 -0.938,-8.917 9.856,-2.816 -0.469,-8.919 11.734,-4.694 2.817,-7.041 9.387,-7.509 0.47,-6.572 10.326,-7.51 -1.877,-7.041 0.235,6.572 -11.032,5.632 -3.754,10.327 -10.326,4.693 -0.47,7.041 -10.795,3.755 -1.877,9.388 -9.389,4.224 0.469,7.979 z"
             style="fill:#ffffff;fill-opacity:1;fill-rule:nonzero;stroke:none"
             id="path114"
             inkscape:connector-curvature="0" /></g><g
           id="g116"
           transform="translate(1207.5342,840.313)"><path
             d="m 0,0 c 0,0 6.338,-2.112 10.209,-8.097 3.873,-5.985 4.225,-14.785 4.225,-14.785 l -6.689,8.448 3.521,-13.377 -4.577,5.985 1.76,-10.561 -4.928,1.408 1.056,-10.561 -6.688,5.281 -2.113,-12.673 -5.28,10.912 2.111,8.449 4.577,-0.352 1.056,6.337 4.225,1.408 0.704,7.041 1.761,4.576 z"
             style="fill:#393536;fill-opacity:1;fill-rule:nonzero;stroke:none"
             id="path118"
             inkscape:connector-curvature="0" /></g><g
           id="g120"
           transform="translate(1210.7031,838.5527)"><path
             d="m 0,0 5.28,-11.969 h -5.984 l 1.408,-8.801 -2.112,1.056 -0.704,-7.392 -3.873,2.464 -1.408,-10.209 -3.169,2.816 -1.408,-6.689 -3.872,6.689 4.929,10.209 4.225,1.056 0.703,6.689 2.816,4.928 2.465,1.056 z"
             style="fill:#ffffff;fill-opacity:1;fill-rule:nonzero;stroke:none"
             id="path122"
             inkscape:connector-curvature="0" /></g><g
           id="g124"
           transform="translate(1170.5713,835.0327)"><path
             d="M 0,0 C 0,0 3.872,-0.352 4.576,17.25 5.28,34.851 -5.281,43.652 1.408,56.677 8.097,69.703 23.234,68.646 31.684,67.59 40.132,66.534 51.396,52.453 48.933,51.045 46.469,49.637 20.77,66.182 13.377,53.157 5.984,40.132 15.137,18.306 13.377,7.393 11.617,-3.521 5.28,-5.633 5.28,-5.633 Z"
             style="fill:#393536;fill-opacity:1;fill-rule:nonzero;stroke:none"
             id="path126"
             inkscape:connector-curvature="0" /></g><g
           id="g128"
           transform="translate(797.0625,966.3413)"><path
             d="m 0,0 c 0,0 -1.936,-0.704 -4.225,0.352 -2.287,1.056 -1.054,6.689 -1.054,6.689 0,0 -3.522,-10.033 -0.178,-11.441 C -2.111,-5.809 0,0 0,0"
             style="fill:#393536;fill-opacity:1;fill-rule:nonzero;stroke:none"
             id="path130"
             inkscape:connector-curvature="0" /></g><g
           id="g132"
           transform="translate(805.1602,948.5635)"><path
             d="m 0,0 c 0,0 -4.873,-2.199 -4.754,-4.928 0.41,-9.213 8.803,-15.314 8.803,-15.314 0,0 -13.147,5.632 -13.555,14.316 -0.279,5.897 3.522,6.982 3.522,6.982 z"
             style="fill:#393536;fill-opacity:1;fill-rule:nonzero;stroke:none"
             id="path134"
             inkscape:connector-curvature="0" /></g><g
           id="g136"
           transform="translate(772.9492,983.415)"><path
             d="m 0,0 c -2.113,-5.281 -0.354,-14.609 -0.354,-14.609 0,0 -4.927,-8.098 -6.863,-12.322 -1.937,-4.224 -2.289,-11.617 -2.289,-11.617 0,0 -3.344,-5.632 -7.041,-9.329 -3.695,-3.696 -14.08,-9.329 -14.256,-13.905 -0.177,-4.576 1.76,-8.097 1.76,-8.097 0,0 1.232,7.921 4.225,10.913 2.992,2.992 7.039,5.457 10.736,9.153 3.697,3.696 6.689,8.097 7.568,11.441 0.881,3.345 0.352,9.505 1.584,11.793 1.233,2.288 6.514,6.337 7.922,10.913 1.408,4.577 -2.113,13.202 0,16.194 2.112,2.992 7.569,10.209 7.569,10.209 L 9.504,15.489 C 9.504,15.489 2.111,5.28 0,0"
             style="fill:#393536;fill-opacity:1;fill-rule:nonzero;stroke:none"
             id="path138"
             inkscape:connector-curvature="0" /></g><g
           id="g140"
           transform="translate(738.2734,916.3525)"><path
             d="m 0,0 1.584,-2.992 0.527,-2.641 0.354,-2.816 v -2.112 l -0.178,-2.289 0.178,-2.111 -0.354,-1.409 -0.351,-1.232 -0.528,-1.232 -1.408,-0.176 -0.881,0.704 -1.056,1.056 -0.703,1.056 -0.176,1.585 0.351,2.816 1.057,3.168 0.352,2.992 1.056,3.873 z"
             style="fill:#393536;fill-opacity:1;fill-rule:nonzero;stroke:none"
             id="path142"
             inkscape:connector-curvature="0" /></g><g
           id="g144"
           transform="translate(738.2734,916.3525)"><path
             d="m 0,0 1.584,-2.992 0.527,-2.641 0.354,-2.816 v -2.112 l -0.178,-2.289 0.178,-2.111 -0.354,-1.409 -0.351,-1.232 -0.528,-1.232 -1.408,-0.176 -0.881,0.704 -1.056,1.056 -0.703,1.056 -0.176,1.585 0.351,2.816 1.057,3.168 0.352,2.992 1.056,3.873 z"
             style="fill:none;stroke:#b6b5b5;stroke-width:1;stroke-linecap:butt;stroke-linejoin:miter;stroke-miterlimit:4;stroke-dasharray:none;stroke-opacity:1"
             id="path146"
             inkscape:connector-curvature="0" /></g><g
           id="g148"
           transform="translate(856.2041,955.7803)"><path
             d="m 0,0 c 0,0 34.148,-8.801 52.805,-32.739 18.658,-23.939 24.291,-73.928 24.291,-73.928 0,0 -3.52,-1.056 -5.985,-4.576 -2.465,-3.52 -5.28,-9.153 -5.28,-9.153 0,0 0.353,60.902 -18.306,82.729 C 28.867,-15.842 1.408,-7.041 1.408,-7.041 Z"
             style="fill:#393536;fill-opacity:1;fill-rule:nonzero;stroke:none"
             id="path150"
             inkscape:connector-curvature="0" /></g><g
           id="g152"
           transform="translate(859.0205,505.6445)"><path
             d="M 0,0 C 0,0 1.408,-7.979 0.705,-13.609 0,-19.242 -4.459,-25.58 -4.459,-25.58 l -3.051,3.99 c 0,0 4.225,4.93 5.633,8.684 C -0.469,-9.152 0,0 0,0"
             style="fill:#393536;fill-opacity:1;fill-rule:nonzero;stroke:none"
             id="path154"
             inkscape:connector-curvature="0" /></g><g
           id="g156"
           transform="translate(874.5107,571.8281)"><path
             d="m 0,0 -26.051,-57.264 c 0,0 -7.746,-5.398 -10.092,-8.92 -2.345,-3.519 -4.929,-13.845 -4.929,-13.845 l 6.103,-1.172 c 0,0 -0.703,9.855 2.582,13.609 3.285,3.756 10.092,8.449 10.092,8.449 L 2.111,-0.705 Z"
             style="fill:#393536;fill-opacity:1;fill-rule:nonzero;stroke:none"
             id="path158"
             inkscape:connector-curvature="0" /></g><g
           id="g160"
           transform="translate(842.3564,919.4033)"><path
             d="m 0,0 c 0,0 12.676,-15.02 12.676,-25.347 0,-10.326 -0.469,-10.796 -1.408,-33.795 -0.94,-22.999 9.855,-52.101 9.855,-52.101 0,0 -7.51,36.142 -5.162,51.162 2.348,15.02 4.693,22.061 3.756,37.551 C 18.777,-7.041 4.227,3.755 4.227,3.755 Z"
             style="fill:#393536;fill-opacity:1;fill-rule:nonzero;stroke:none"
             id="path162"
             inkscape:connector-curvature="0" /></g><g
           id="g164"
           transform="translate(885.54,751.835)"><path
             d="m 0,0 c 0,0 -6.104,-5.163 -12.203,0.938 -6.102,6.102 -9.858,25.817 -9.858,25.817 0,0 -1.878,-23 7.041,-32.388 8.918,-9.388 16.897,-6.571 16.897,-6.571 z"
             style="fill:#393536;fill-opacity:1;fill-rule:nonzero;stroke:none"
             id="path166"
             inkscape:connector-curvature="0" /></g><g
           id="g168"
           transform="translate(894.458,747.6104)"><path
             d="m 0,0 c -5.162,4.694 -5.162,16.897 -5.162,16.897 0,0 -4.225,-18.305 0.937,-26.285 5.164,-7.978 12.088,-8.095 12.088,-8.095 L 9.857,-1.877 C 9.857,-1.877 5.164,-4.694 0,0"
             style="fill:#393536;fill-opacity:1;fill-rule:nonzero;stroke:none"
             id="path170"
             inkscape:connector-curvature="0" /></g><g
           id="g172"
           transform="translate(1157.5459,839.2568)"><path
             d="m 0,0 c 0,0 -11.266,12.673 -27.811,14.434 -16.545,1.76 -70.054,-7.745 -70.054,-7.745 0,0 -22.531,10.913 -30.276,13.729 -7.744,2.816 -10.913,1.76 -10.913,1.76 l 5.281,-6.336 c 0,0 1.76,0.704 10.561,-2.817 8.801,-3.52 26.755,-11.617 26.755,-11.617 0,0 54.564,9.153 66.534,7.745 C -17.953,7.745 0,0 0,0"
             style="fill:#393536;fill-opacity:1;fill-rule:nonzero;stroke:none"
             id="path174"
             inkscape:connector-curvature="0" /></g><g
           id="g176"
           transform="translate(1180.7803,810.0381)"><path
             d="m 0,0 c 0,0 13.143,-0.469 17.367,-26.755 4.225,-26.285 -7.041,-53.04 -7.041,-53.04 0,0 0.94,-11.656 0.94,-24.407 0,-20.418 -4.696,-32.858 -4.696,-32.858 l -1.408,7.981 c 0,0 3.522,7.51 2.582,24.877 -0.938,17.367 -3.519,29.57 -3.519,29.57 0,0 9.855,26.756 6.57,46 C 7.51,-9.388 0,0 0,0"
             style="fill:#393536;fill-opacity:1;fill-rule:nonzero;stroke:none"
             id="path178"
             inkscape:connector-curvature="0" /></g><g
           id="g180"
           transform="translate(918.3975,713.8145)"><path
             d="m 0,0 c 0,0 -4.225,-4.693 -4.225,-11.264 0,-6.572 1.174,-12.908 1.174,-12.908 l -2.113,-5.633 c 0,0 -1.643,-0.234 -2.346,8.45 -0.705,8.683 1.408,12.203 1.408,12.203 l 5.163,8.449 z"
             style="fill:#393536;fill-opacity:1;fill-rule:nonzero;stroke:none"
             id="path182"
             inkscape:connector-curvature="0" /></g><g
           id="g184"
           transform="translate(958.999,699.7344)"><path
             d="m 0,0 1.408,-7.98 c 0,0 -20.418,-36.844 -27.459,-45.061 -7.041,-8.215 -13.143,-13.609 -17.838,-18.305 -4.693,-4.695 -10.795,-16.429 -10.795,-16.429 l 0.471,7.509 c 0,0 6.102,12.674 10.324,16.899 4.225,4.224 8.216,6.103 15.022,15.019 6.805,8.92 25.111,55.388 25.111,55.388 z"
             style="fill:#393536;fill-opacity:1;fill-rule:nonzero;stroke:none"
             id="path186"
             inkscape:connector-curvature="0" /></g><g
           id="g188"
           transform="translate(984.3447,761.457)"><path
             d="m 0,0 c 0,0 -2.816,-12.673 -2.464,-20.065 0.353,-7.394 3.521,-7.746 1.761,-20.066 -1.761,-12.322 -19.01,-25.348 -19.01,-25.348 l -2.348,8.215 -2.816,6.807 c 0,0 10.092,3.988 14.668,11.733 4.576,7.745 1.761,12.673 2.465,22.179 C -7.041,-7.041 0,0 0,0"
             style="fill:#393536;fill-opacity:1;fill-rule:nonzero;stroke:none"
             id="path190"
             inkscape:connector-curvature="0" /></g><g
           id="g192"
           transform="translate(1120.2305,706.1875)"><path
             d="m 0,0 c 0,0 -17.25,-18.657 -55.974,-17.953 -38.723,0.704 -82.023,17.25 -82.023,17.25 l 3.872,7.04 c 0,0 51.045,-19.714 79.56,-19.362 C -26.051,-12.673 0,0 0,0"
             style="fill:#393536;fill-opacity:1;fill-rule:nonzero;stroke:none"
             id="path194"
             inkscape:connector-curvature="0" /></g><g
           id="g196"
           transform="translate(1120.9346,700.5557)"><path
             d="m 0,0 c 0,0 -0.469,-9.271 8.097,-28.163 8.565,-18.893 29.688,-57.617 30.979,-64.774 1.29,-7.158 -1.761,-13.261 -1.292,-20.771 0.47,-7.51 3.052,-13.377 3.052,-13.377 0,0 1.174,-74.631 -0.704,-81.672 -1.878,-7.041 -9.388,-7.51 -11.499,-13.142 -2.113,-5.631 -1.262,-14.051 -1.262,-14.051"
             style="fill:none;stroke:#b6b5b5;stroke-width:1;stroke-linecap:butt;stroke-linejoin:miter;stroke-miterlimit:4;stroke-dasharray:none;stroke-opacity:1"
             id="path198"
             inkscape:connector-curvature="0" /></g><g
           id="g200"
           transform="translate(1172.7998,825.7622)"><path
             d="m 0,0 c 0,0 31.215,-12.204 32.153,-51.397 0.668,-27.921 -6.805,-58.437 -6.805,-58.437 0,0 -1.643,-30.745 -3.286,-38.254 -1.644,-7.512 -5.632,-14.082 -5.632,-14.082"
             style="fill:none;stroke:#b6b5b5;stroke-width:1;stroke-linecap:butt;stroke-linejoin:miter;stroke-miterlimit:4;stroke-dasharray:none;stroke-opacity:1"
             id="path202"
             inkscape:connector-curvature="0" /></g><g
           id="g204"
           transform="translate(1184.0654,685.418)"><path
             d="m 0,0 c 0,0 4.693,-18.072 5.398,-27.693 0.704,-9.623 -0.47,-38.256 0.235,-43.889 0.703,-5.631 3.051,-14.785 3.051,-14.785"
             style="fill:none;stroke:#b6b5b5;stroke-width:1;stroke-linecap:butt;stroke-linejoin:miter;stroke-miterlimit:4;stroke-dasharray:none;stroke-opacity:1"
             id="path206"
             inkscape:connector-curvature="0" /></g><g
           id="g208"
           transform="translate(1189.2295,619.9395)"><path
             d="m 0,0 c 0,0 10.795,-13.143 9.856,-22.764 -0.938,-9.621 -5.397,-16.898 -5.397,-16.898 0,0 -0.705,-8.215 -2.113,-15.959 -1.408,-7.744 -5.867,-15.725 -5.867,-15.725 0,0 -6.572,-50.693 -6.572,-58.906 0,-8.215 6.572,-15.961 4.929,-24.174 -1.643,-8.215 -8.918,-10.59 -8.918,-10.59"
             style="fill:none;stroke:#b6b5b5;stroke-width:1;stroke-linecap:butt;stroke-linejoin:miter;stroke-miterlimit:4;stroke-dasharray:none;stroke-opacity:1"
             id="path210"
             inkscape:connector-curvature="0" /></g><g
           id="g212"
           transform="translate(1175.3818,457.0664)"><path
             d="m 0,0 c 0,0 -6.571,8.449 -13.847,11.029 -7.274,2.582 -12.438,-1.877 -12.438,-1.877 l -8.684,-18.541 c 0,0 3.99,-3.05 15.959,-3.756 11.969,-0.703 17.367,1.409 17.367,1.409 z"
             style="fill:none;stroke:#b6b5b5;stroke-width:1;stroke-linecap:butt;stroke-linejoin:miter;stroke-miterlimit:4;stroke-dasharray:none;stroke-opacity:1"
             id="path214"
             inkscape:connector-curvature="0" /></g><g
           id="g216"
           transform="translate(1157.8975,808.6299)"><path
             d="m 0,0 c 0,0 -3.168,1.408 -3.872,-4.224 -0.704,-5.633 10.209,-46.821 -7.393,-77.8 -17.601,-30.979 -56.676,-42.596 -81.672,-43.3 -24.995,-0.704 -86.6,17.426 -86.6,17.426"
             style="fill:none;stroke:#b6b5b5;stroke-width:1;stroke-linecap:butt;stroke-linejoin:miter;stroke-miterlimit:4;stroke-dasharray:none;stroke-opacity:1"
             id="path218"
             inkscape:connector-curvature="0" /></g><g
           id="g220"
           transform="translate(1113.3662,695.8027)"><path
             d="m 0,0 c 0,0 -14.082,-10.561 -24.818,-34.322 -10.739,-23.764 -13.731,-55.094 -14.082,-60.024 -0.352,-4.927 4.224,-16.017 2.816,-21.472 -1.408,-5.457 -15.256,-20.594 -15.256,-20.594 0,0 -25.815,-49.756 -30.039,-58.205 -3.26,-6.518 2.875,-13.612 -0.998,-20.123 -3.872,-6.514 -7.393,-6.514 -7.393,-6.514"
             style="fill:none;stroke:#b6b5b5;stroke-width:1;stroke-linecap:butt;stroke-linejoin:miter;stroke-miterlimit:4;stroke-dasharray:none;stroke-opacity:1"
             id="path222"
             inkscape:connector-curvature="0" /></g><g
           id="g224"
           transform="translate(1035.918,686.6504)"><path
             d="M 0,0 C 0,0 -7.921,-19.01 -4.048,-35.557 -0.176,-52.102 8.097,-71.992 8.801,-77.801 9.505,-83.609 8.625,-91.178 8.625,-91.178"
             style="fill:none;stroke:#b6b5b5;stroke-width:1;stroke-linecap:butt;stroke-linejoin:miter;stroke-miterlimit:4;stroke-dasharray:none;stroke-opacity:1"
             id="path226"
             inkscape:connector-curvature="0" /></g><g
           id="g228"
           transform="translate(1046.3037,621.6992)"><path
             d="m 0,0 c 0,0 3.344,-22.178 0.176,-24.994 -3.168,-2.817 -6.161,-3.344 -7.217,-10.912 -1.057,-7.571 0,-21.651 0,-21.651 0,0 -21.475,-54.154 -26.051,-60.138 -4.576,-5.985 -9.152,-5.516 -13.025,-11.149 -3.872,-5.633 -2.465,-10.56 -2.465,-10.56"
             style="fill:none;stroke:#b6b5b5;stroke-width:1;stroke-linecap:butt;stroke-linejoin:miter;stroke-miterlimit:4;stroke-dasharray:none;stroke-opacity:1"
             id="path230"
             inkscape:connector-curvature="0" /></g><g
           id="g232"
           transform="translate(1023.5967,474.5488)"><path
             d="m 0,0 -2.288,-14.434 c 0,0 -8.801,-2.462 -20.418,-0.351 -11.617,2.113 -12.673,4.576 -12.673,4.576 l 9.504,17.955 c 0,0 6.689,1.936 13.73,0.527 C -5.104,6.865 0,0 0,0 Z"
             style="fill:none;stroke:#b6b5b5;stroke-width:1;stroke-linecap:butt;stroke-linejoin:miter;stroke-miterlimit:4;stroke-dasharray:none;stroke-opacity:1"
             id="path234"
             inkscape:connector-curvature="0" /></g><g
           id="g236"
           transform="translate(999.835,808.9819)"><path
             d="m 0,0 c 0,0 -8.801,-22.531 -9.857,-38.372 -1.057,-15.841 6.689,-38.372 -5.633,-60.198 -12.321,-21.826 -23.235,-22.529 -23.235,-22.529"
             style="fill:none;stroke:#b6b5b5;stroke-width:1;stroke-linecap:butt;stroke-linejoin:miter;stroke-miterlimit:4;stroke-dasharray:none;stroke-opacity:1"
             id="path238"
             inkscape:connector-curvature="0" /></g><g
           id="g240"
           transform="translate(911.4736,702.668)"><path
             d="M 0,0 C 0,0 -9.857,9.504 -9.152,27.459 -8.449,45.412 1.408,59.142 5.281,71.814 9.153,84.488 4.225,98.217 4.225,98.217"
             style="fill:none;stroke:#b6b5b5;stroke-width:1;stroke-linecap:butt;stroke-linejoin:miter;stroke-miterlimit:4;stroke-dasharray:none;stroke-opacity:1"
             id="path242"
             inkscape:connector-curvature="0" /></g><g
           id="g244"
           transform="translate(928.7236,726.6055)"><path
             d="m 0,0 c 0,0 -14.434,-14.434 -19.01,-27.105 -4.576,-12.674 -4.459,-42.95 -4.459,-42.95"
             style="fill:none;stroke:#b6b5b5;stroke-width:1;stroke-linecap:butt;stroke-linejoin:miter;stroke-miterlimit:4;stroke-dasharray:none;stroke-opacity:1"
             id="path246"
             inkscape:connector-curvature="0" /></g><g
           id="g248"
           transform="translate(934.8252,713.1113)"><path
             d="m 0,0 c 0,0 15.489,6.102 22.296,-8.684 6.806,-14.785 2.112,-22.06 2.112,-22.06 0,0 -14.081,-23.938 -21.592,-34.969 -7.509,-11.031 -16.662,-19.246 -20.886,-25.582 -4.225,-6.336 -15.491,-25.346 -15.491,-25.346"
             style="fill:none;stroke:#b6b5b5;stroke-width:1;stroke-linecap:butt;stroke-linejoin:miter;stroke-miterlimit:4;stroke-dasharray:none;stroke-opacity:1"
             id="path250"
             inkscape:connector-curvature="0" /></g><g
           id="g252"
           transform="translate(916.7549,695.5098)"><path
             d="m 0,0 c 0,0 -8.918,-33.797 -15.256,-49.754 -6.336,-15.959 -17.367,-36.613 -17.367,-36.613 0,0 -5.633,-3.518 -8.213,-6.571 -2.582,-3.05 -4.461,-11.734 -4.225,-16.664 0.235,-4.927 2.346,-9.152 2.346,-9.152"
             style="fill:none;stroke:#b6b5b5;stroke-width:1;stroke-linecap:butt;stroke-linejoin:miter;stroke-miterlimit:4;stroke-dasharray:none;stroke-opacity:1"
             id="path254"
             inkscape:connector-curvature="0" /></g><g
           id="g256"
           transform="translate(902.6729,608.6738)"><path
             d="m 0,0 c 0,0 -1.408,-7.979 -1.408,-12.203 0,-4.225 0.236,-11.5 -1.408,-14.317 -1.643,-2.816 -6.102,-6.335 -9.387,-7.275 -3.285,-0.939 -9.623,-0.234 -9.623,-0.234"
             style="fill:none;stroke:#b6b5b5;stroke-width:1;stroke-linecap:butt;stroke-linejoin:miter;stroke-miterlimit:4;stroke-dasharray:none;stroke-opacity:1"
             id="path258"
             inkscape:connector-curvature="0" /></g><g
           id="g260"
           transform="translate(872.6318,580.7461)"><path
             d="m 0,0 c 0,0 -6.473,-19.666 -14.314,-36.846 -6.286,-13.767 -13.977,-25.422 -15.961,-27.927 -4.457,-5.633 -6.219,-5.635 -9.034,-11.266 -2.816,-5.633 -3.17,-11.852 -3.17,-11.852"
             style="fill:none;stroke:#b6b5b5;stroke-width:1;stroke-linecap:butt;stroke-linejoin:miter;stroke-miterlimit:4;stroke-dasharray:none;stroke-opacity:1"
             id="path262"
             inkscape:connector-curvature="0" /></g><g
           id="g264"
           transform="translate(891.1729,574.8789)"><path
             d="m 0,0 c 0,0 -10.693,-20.697 -18.307,-39.896 -5.672,-14.307 -8.75,-28.139 -9.152,-30.042 -0.939,-4.458 0.588,-11.498 -0.82,-16.662 -1.409,-5.164 -7.393,-10.209 -7.393,-10.209"
             style="fill:none;stroke:#b6b5b5;stroke-width:1;stroke-linecap:butt;stroke-linejoin:miter;stroke-miterlimit:4;stroke-dasharray:none;stroke-opacity:1"
             id="path266"
             inkscape:connector-curvature="0" /></g><g
           id="g268"
           transform="translate(857.2607,476.4863)"><path
             d="m 0,0 c 0,0 -4.746,7.115 -12.932,11.291 -8.185,4.18 -14.175,5.078 -14.175,5.078 L -41.302,-5.65 c 0,0 1.543,-7.477 14.185,-11.032 12.609,-3.547 19.703,0.393 19.703,0.393 z"
             style="fill:none;stroke:#b6b5b5;stroke-width:1;stroke-linecap:butt;stroke-linejoin:miter;stroke-miterlimit:4;stroke-dasharray:none;stroke-opacity:1"
             id="path270"
             inkscape:connector-curvature="0" /></g><g
           id="g272"
           transform="translate(1010.7471,870.2358)"><path
             d="m 0,0 c 0,0 26.756,-12.321 50.693,-14.433 23.939,-2.112 49.637,5.632 72.167,2.112 22.531,-3.52 42.597,-28.867 42.597,-28.867 l 2.111,-5.984"
             style="fill:none;stroke:#b6b5b5;stroke-width:1;stroke-linecap:butt;stroke-linejoin:miter;stroke-miterlimit:4;stroke-dasharray:none;stroke-opacity:1"
             id="path274"
             inkscape:connector-curvature="0" /></g><g
           id="g276"
           transform="translate(1022.7168,856.5068)"><path
             d="M 0,0 C 0,0 -16.546,21.122 -28.866,28.515 -41.188,35.907 -65.479,26.05 -65.479,26.05"
             style="fill:none;stroke:#b6b5b5;stroke-width:1;stroke-linecap:butt;stroke-linejoin:miter;stroke-miterlimit:4;stroke-dasharray:none;stroke-opacity:1"
             id="path278"
             inkscape:connector-curvature="0" /></g><g
           id="g280"
           transform="translate(947.3818,866.7158)"><path
             d="M 0,0 C 0,0 14.081,14.081 10.912,32.739 9.662,40.102 5.75,43.887 4.576,46.468 3.402,49.049 1.877,55.386 1.877,55.386"
             style="fill:none;stroke:#b6b5b5;stroke-width:1;stroke-linecap:butt;stroke-linejoin:miter;stroke-miterlimit:4;stroke-dasharray:none;stroke-opacity:1"
             id="path282"
             inkscape:connector-curvature="0" /></g><g
           id="g284"
           transform="translate(978.7119,887.4858)"><path
             d="m 0,0 c 0,0 -6.571,2.346 -12.203,6.101 -5.633,3.756 -8.684,7.276 -8.684,7.276"
             style="fill:none;stroke:#b6b5b5;stroke-width:1;stroke-linecap:butt;stroke-linejoin:miter;stroke-miterlimit:4;stroke-dasharray:none;stroke-opacity:1"
             id="path286"
             inkscape:connector-curvature="0" /></g><g
           id="g288"
           transform="translate(970.498,904.1479)"><path
             d="m 0,0 c 0,0 -5.397,6.337 -10.562,11.031 -5.162,4.694 -9.152,4.928 -13.142,9.153 -3.99,4.224 -3.637,6.806 -3.637,6.806"
             style="fill:none;stroke:#b6b5b5;stroke-width:1;stroke-linecap:butt;stroke-linejoin:miter;stroke-miterlimit:4;stroke-dasharray:none;stroke-opacity:1"
             id="path290"
             inkscape:connector-curvature="0" /></g><g
           id="g292"
           transform="translate(965.1006,919.4033)"><path
             d="m 0,0 c 0,0 -6.572,7.041 -15.959,10.091 -6.488,2.109 -8.918,1.173 -13.377,6.337 -4.46,5.163 -5.164,8.448 -5.164,8.448"
             style="fill:none;stroke:#b6b5b5;stroke-width:1;stroke-linecap:butt;stroke-linejoin:miter;stroke-miterlimit:4;stroke-dasharray:none;stroke-opacity:1"
             id="path294"
             inkscape:connector-curvature="0" /></g><g
           id="g296"
           transform="translate(960.2891,932.311)"><path
             d="m 0,0 c 0,0 -28.163,9.387 -37.081,16.545 -8.918,7.159 -11.266,17.368 -11.266,17.368"
             style="fill:none;stroke:#b6b5b5;stroke-width:1;stroke-linecap:butt;stroke-linejoin:miter;stroke-miterlimit:4;stroke-dasharray:none;stroke-opacity:1"
             id="path298"
             inkscape:connector-curvature="0" /></g><g
           id="g300"
           transform="translate(939.167,946.04)"><path
             d="m 0,0 c 0,0 -10.443,11.853 -15.607,15.725 -5.163,3.872 -16.311,4.928 -17.485,7.041 -1.174,2.111 6.807,1.877 6.807,1.877"
             style="fill:none;stroke:#b6b5b5;stroke-width:1;stroke-linecap:butt;stroke-linejoin:miter;stroke-miterlimit:4;stroke-dasharray:none;stroke-opacity:1"
             id="path302"
             inkscape:connector-curvature="0" /></g><g
           id="g304"
           transform="translate(934.8252,959.0654)"><path
             d="m 0,0 c 0,0 -9.74,7.51 -16.545,9.975 -6.807,2.464 -10.56,2.229 -13.848,6.102 -3.285,3.872 -3.636,5.045 -3.636,5.045"
             style="fill:none;stroke:#b6b5b5;stroke-width:1;stroke-linecap:butt;stroke-linejoin:miter;stroke-miterlimit:4;stroke-dasharray:none;stroke-opacity:1"
             id="path306"
             inkscape:connector-curvature="0" /></g><g
           id="g308"
           transform="translate(934.5908,972.3257)"><path
             d="m 0,0 c 0,0 -6.102,2.581 -12.908,4.107 -6.807,1.526 -12.438,0.234 -18.305,2.464 -5.869,2.23 -9.74,8.215 -9.74,8.215"
             style="fill:none;stroke:#b6b5b5;stroke-width:1;stroke-linecap:butt;stroke-linejoin:miter;stroke-miterlimit:4;stroke-dasharray:none;stroke-opacity:1"
             id="path310"
             inkscape:connector-curvature="0" /></g><g
           id="g312"
           transform="translate(917.9268,984.7642)"><path
             d="m 0,0 c 0,0 -4.105,1.643 -12.086,1.643 -7.978,0 -10.678,0 -15.019,1.291 -4.342,1.29 -2.583,2.346 -2.583,2.346 0,0 7.745,-0.235 11.735,0.352 3.99,0.588 11.5,2.817 11.5,2.817 0,0 -12.555,-0.47 -17.602,0.587 -5.045,1.056 -8.566,3.402 -11.148,3.989 -2.58,0.587 -6.453,-0.821 -6.805,0.118 -0.351,0.938 2.934,3.168 7.51,4.928 4.576,1.76 14.199,0.939 14.199,0.939"
             style="fill:none;stroke:#b6b5b5;stroke-width:1;stroke-linecap:butt;stroke-linejoin:miter;stroke-miterlimit:4;stroke-dasharray:none;stroke-opacity:1"
             id="path314"
             inkscape:connector-curvature="0" /></g><g
           id="g316"
           transform="translate(876.1514,998.8462)"><path
             d="m 0,0 c 0,0 -3.869,-0.001 -3.049,2.581 0.82,2.582 5.047,5.046 13.377,8.214 8.332,3.168 16.899,0.822 16.899,0.822"
             style="fill:none;stroke:#b6b5b5;stroke-width:1;stroke-linecap:butt;stroke-linejoin:miter;stroke-miterlimit:4;stroke-dasharray:none;stroke-opacity:1"
             id="path318"
             inkscape:connector-curvature="0" /></g><g
           id="g320"
           transform="translate(888.8271,1015.626)"><path
             d="m 0,0 c 0,0 -0.939,-3.99 -6.221,-7.158 -5.279,-3.169 -16.547,-5.281 -17.484,-4.694 -0.938,0.587 1.527,2.933 4.695,4.576 3.168,1.644 8.096,2.229 10.795,5.281 2.699,3.051 0.822,9.153 0.822,9.153"
             style="fill:none;stroke:#b6b5b5;stroke-width:1;stroke-linecap:butt;stroke-linejoin:miter;stroke-miterlimit:4;stroke-dasharray:none;stroke-opacity:1"
             id="path322"
             inkscape:connector-curvature="0" /></g><g
           id="g324"
           transform="translate(871.458,1009.1719)"><path
             d="m 0,0 c 0,0 -2.699,-0.704 -4.576,-0.234 -1.877,0.468 -2.58,1.525 -2.58,1.525"
             style="fill:none;stroke:#b6b5b5;stroke-width:1;stroke-linecap:butt;stroke-linejoin:miter;stroke-miterlimit:4;stroke-dasharray:none;stroke-opacity:1"
             id="path326"
             inkscape:connector-curvature="0" /></g><g
           id="g328"
           transform="translate(832.1475,1000.019)"><path
             d="M 0,0 C 0,0 4.93,-2.815 17.602,1.291 30.275,5.398 38.725,17.836 38.725,17.836"
             style="fill:none;stroke:#b6b5b5;stroke-width:1;stroke-linecap:butt;stroke-linejoin:miter;stroke-miterlimit:4;stroke-dasharray:none;stroke-opacity:1"
             id="path330"
             inkscape:connector-curvature="0" /></g><g
           id="g332"
           transform="translate(830.7393,998.7285)"><path
             d="m 0,0 c 0,0 3.406,6.22 10.328,9.857 6.922,3.637 18.07,4.811 23.703,6.571 5.633,1.76 12.674,6.688 12.205,7.979 C 45.766,25.698 31.803,22.061 25.113,21.826 18.424,21.591 1.879,23.82 -5.749,20.183 -13.376,16.545 -17.366,6.219 -17.366,6.219"
             style="fill:none;stroke:#b6b5b5;stroke-width:1;stroke-linecap:butt;stroke-linejoin:miter;stroke-miterlimit:4;stroke-dasharray:none;stroke-opacity:1"
             id="path334"
             inkscape:connector-curvature="0" /></g><g
           id="g336"
           transform="translate(818.8887,1014.3354)"><path
             d="m 0,0 c 0,0 -4.342,-2.23 -8.684,-6.572 -4.341,-4.341 -7.744,-13.025 -8.918,-13.025 -1.171,0 -0.587,5.868 -0.587,5.868 0,0 -6.571,-3.873 -7.508,-3.521 -0.94,0.353 1.172,4.342 3.988,7.275 2.816,2.934 7.393,6.102 7.393,6.102"
             style="fill:none;stroke:#b6b5b5;stroke-width:1;stroke-linecap:butt;stroke-linejoin:miter;stroke-miterlimit:4;stroke-dasharray:none;stroke-opacity:1"
             id="path338"
             inkscape:connector-curvature="0" /></g><g
           id="g340"
           transform="translate(792.9551,997.9067)"><path
             d="m 0,0 c 0,0 -2.229,-0.586 -4.342,-2.699 -2.111,-2.112 -3.049,-4.694 -3.988,-4.694 -0.94,0 -2.816,13.261 -2.816,13.261 0,0 -4.577,2.816 -5.633,15.489 -1.057,12.673 6.924,19.832 8.097,19.714 0.641,-0.065 0.266,-2.502 0.586,-4.107 0.268,-1.326 1.291,-1.878 1.291,-1.878"
             style="fill:none;stroke:#b6b5b5;stroke-width:1;stroke-linecap:butt;stroke-linejoin:miter;stroke-miterlimit:4;stroke-dasharray:none;stroke-opacity:1"
             id="path342"
             inkscape:connector-curvature="0" /></g><g
           id="g344"
           transform="translate(785.4453,1018.207)"><path
             d="M 0,0 C 0,0 -1.057,13.847 3.168,21.24 7.393,28.632 14.434,34.264 15.49,33.443 16.547,32.623 9.271,21.708 8.332,16.546 7.393,11.383 7.512,3.638 7.512,3.638"
             style="fill:none;stroke:#b6b5b5;stroke-width:1;stroke-linecap:butt;stroke-linejoin:miter;stroke-miterlimit:4;stroke-dasharray:none;stroke-opacity:1"
             id="path346"
             inkscape:connector-curvature="0" /></g><g
           id="g348"
           transform="translate(793.1914,1029.5898)"><path
             d="m 0,0 c 0,0 1.289,2.934 5.045,7.862 3.756,4.929 8.918,7.746 9.152,7.159 C 14.432,14.434 12.021,10.2 11.732,8.684 11.264,6.219 11.734,4.811 11.734,4.811"
             style="fill:none;stroke:#b6b5b5;stroke-width:1;stroke-linecap:butt;stroke-linejoin:miter;stroke-miterlimit:4;stroke-dasharray:none;stroke-opacity:1"
             id="path350"
             inkscape:connector-curvature="0" /></g><g
           id="g352"
           transform="translate(800.584,1024.0747)"><path
             d="m 0,0 c 0,0 1.057,9.036 9.623,16.546 8.565,7.509 16.661,8.448 16.778,7.861 0.12,-0.586 -2.581,-1.994 -3.989,-3.754 -1.408,-1.76 -1.877,-4.459 -1.877,-4.459"
             style="fill:none;stroke:#b6b5b5;stroke-width:1;stroke-linecap:butt;stroke-linejoin:miter;stroke-miterlimit:4;stroke-dasharray:none;stroke-opacity:1"
             id="path354"
             inkscape:connector-curvature="0" /></g><g
           id="g356"
           transform="translate(808.3281,1031.7021)"><path
             d="m 0,0 c 0,0 7.629,7.04 13.496,9.035 5.866,1.996 13.73,2.465 13.73,2.465"
             style="fill:none;stroke:#b6b5b5;stroke-width:1;stroke-linecap:butt;stroke-linejoin:miter;stroke-miterlimit:4;stroke-dasharray:none;stroke-opacity:1"
             id="path358"
             inkscape:connector-curvature="0" /></g><g
           id="g360"
           transform="translate(813.4922,1031.7021)"><path
             d="m 0,0 c 0,0 6.219,1.174 11.148,3.638 4.927,2.464 11.382,9.27 18.658,12.673 7.273,3.403 12.086,1.408 13.963,0.117 1.513,-1.041 2.347,-2.581 2.347,-2.581"
             style="fill:none;stroke:#b6b5b5;stroke-width:1;stroke-linecap:butt;stroke-linejoin:miter;stroke-miterlimit:4;stroke-dasharray:none;stroke-opacity:1"
             id="path362"
             inkscape:connector-curvature="0" /></g><g
           id="g364"
           transform="translate(827.5732,1031.8198)"><path
             d="m 0,0 c 0,0 4.928,6.102 9.27,8.097 4.341,1.994 11.148,1.994 11.148,1.994"
             style="fill:none;stroke:#b6b5b5;stroke-width:1;stroke-linecap:butt;stroke-linejoin:miter;stroke-miterlimit:4;stroke-dasharray:none;stroke-opacity:1"
             id="path366"
             inkscape:connector-curvature="0" /></g><g
           id="g368"
           transform="translate(835.6689,1033.8145)"><path
             d="m 0,0 c 0,0 5.633,5.397 15.49,9.387 9.858,3.99 20.653,0.47 20.653,0.47"
             style="fill:none;stroke:#b6b5b5;stroke-width:1;stroke-linecap:butt;stroke-linejoin:miter;stroke-miterlimit:4;stroke-dasharray:none;stroke-opacity:1"
             id="path370"
             inkscape:connector-curvature="0" /></g><g
           id="g372"
           transform="translate(840.3623,1030.646)"><path
             d="M 0,0 C 0,0 19.363,13.964 42.832,14.199 66.301,14.434 85.546,-1.878 85.546,-1.878"
             style="fill:none;stroke:#b6b5b5;stroke-width:1;stroke-linecap:butt;stroke-linejoin:miter;stroke-miterlimit:4;stroke-dasharray:none;stroke-opacity:1"
             id="path374"
             inkscape:connector-curvature="0" /></g><g
           id="g376"
           transform="translate(856.2041,1030.8804)"><path
             d="M 0,0 C 0,0 8.215,9.036 32.389,7.98 56.561,6.924 74.515,-5.045 74.515,-5.045"
             style="fill:none;stroke:#b6b5b5;stroke-width:1;stroke-linecap:butt;stroke-linejoin:miter;stroke-miterlimit:4;stroke-dasharray:none;stroke-opacity:1"
             id="path378"
             inkscape:connector-curvature="0" /></g><g
           id="g380"
           transform="translate(906.4287,1027.2432)"><path
             d="m 0,0 c 0,0 13.26,3.285 25.229,-1.995 11.968,-5.281 20.535,-15.724 20.417,-16.428 -0.117,-0.704 -1.875,0.117 -3.519,0.117 -1.643,0 -3.638,-0.235 -3.638,-0.235"
             style="fill:none;stroke:#b6b5b5;stroke-width:1;stroke-linecap:butt;stroke-linejoin:miter;stroke-miterlimit:4;stroke-dasharray:none;stroke-opacity:1"
             id="path382"
             inkscape:connector-curvature="0" /></g><g
           id="g384"
           transform="translate(919.3369,1015.0391)"><path
             d="M 0,0 C 0,0 23.116,-0.939 35.672,-13.377 48.229,-25.815 50.341,-41.54 50.341,-41.54"
             style="fill:none;stroke:#b6b5b5;stroke-width:1;stroke-linecap:butt;stroke-linejoin:miter;stroke-miterlimit:4;stroke-dasharray:none;stroke-opacity:1"
             id="path386"
             inkscape:connector-curvature="0" /></g><g
           id="g388"
           transform="translate(926.4951,1004.8301)"><path
             d="m 0,0 c 0,0 20.3,-8.214 33.091,-20.065 12.79,-11.852 17.014,-23.353 16.546,-24.174 -0.471,-0.821 -9.506,4.342 -9.506,4.342"
             style="fill:none;stroke:#b6b5b5;stroke-width:1;stroke-linecap:butt;stroke-linejoin:miter;stroke-miterlimit:4;stroke-dasharray:none;stroke-opacity:1"
             id="path390"
             inkscape:connector-curvature="0" /></g><g
           id="g392"
           transform="translate(936.5869,985.9375)"><path
             d="m 0,0 c 0,0 17.836,-3.169 28.045,-18.071 10.209,-14.903 11.266,-24.76 11.266,-24.76"
             style="fill:none;stroke:#b6b5b5;stroke-width:1;stroke-linecap:butt;stroke-linejoin:miter;stroke-miterlimit:4;stroke-dasharray:none;stroke-opacity:1"
             id="path394"
             inkscape:connector-curvature="0" /></g><g
           id="g396"
           transform="translate(951.0195,966.2236)"><path
             d="m 0,0 c 0,0 18.071,-8.683 27.224,-27.576 3.48,-7.181 3.519,-17.718 5.515,-24.29 1.995,-6.572 6.573,-12.908 6.573,-12.908 0,0 -3.404,0.117 -7.628,3.05 -4.225,2.934 -9.975,9.623 -9.975,9.623 0,0 4.343,-11.03 8.097,-15.724 3.755,-4.694 13.259,-5.046 13.259,-5.046 0,0 -0.468,-1.525 -2.346,-3.051 -1.878,-1.525 -4.929,-2.699 -4.929,-2.699"
             style="fill:none;stroke:#b6b5b5;stroke-width:1;stroke-linecap:butt;stroke-linejoin:miter;stroke-miterlimit:4;stroke-dasharray:none;stroke-opacity:1"
             id="path398"
             inkscape:connector-curvature="0" /></g><g
           id="g400"
           transform="translate(779.9297,1005.2993)"><path
             d="m 0,0 c 0,0 -7.51,-10.562 -9.152,-13.847 -1.643,-3.285 -2.817,-6.805 -2.817,-6.805 0,0 -2.818,-1.409 -3.756,-6.102 -0.937,-4.694 1.881,-9.857 0.002,-14.786 -1.879,-4.928 -4.927,-7.51 -5.867,-10.561 -0.939,-3.051 0,-4.928 0,-4.928 0,0 -2.113,-1.173 -3.756,-4.459 -1.644,-3.286 -1.877,-7.041 -1.877,-7.041 0,0 -10.326,-7.511 -13.142,-12.909 -2.817,-5.396 -1.643,-6.922 -1.643,-6.922 0,0 2.817,-3.403 2.817,-9.036 0,-5.632 -0.471,-10.091 -2.348,-10.795 -1.877,-0.705 -2.346,3.989 -3.754,2.581 -1.408,-1.408 -2.113,-7.979 -0.939,-10.796 1.171,-2.816 6.804,-7.979 15.488,-8.918 8.685,-0.939 22.765,4.694 26.99,8.214 4.225,3.521 6.104,12.439 11.266,16.194 5.162,3.755 15.019,3.52 15.019,3.52"
             style="fill:none;stroke:#b6b5b5;stroke-width:1;stroke-linecap:butt;stroke-linejoin:miter;stroke-miterlimit:4;stroke-dasharray:none;stroke-opacity:1"
             id="path402"
             inkscape:connector-curvature="0" /></g><g
           id="g404"
           transform="translate(737.9219,916.939)"><path
             d="m 0,0 c 0,0 -0.705,-6.102 -1.645,-9.622 -0.939,-3.52 -0.82,-7.393 -0.82,-7.393"
             style="fill:none;stroke:#b6b5b5;stroke-width:1;stroke-linecap:butt;stroke-linejoin:miter;stroke-miterlimit:4;stroke-dasharray:none;stroke-opacity:1"
             id="path406"
             inkscape:connector-curvature="0" /></g><g
           id="g408"
           transform="translate(798.4707,907.6685)"><path
             d="m 0,0 c 0,0 -6.805,-11.03 -9.152,-16.428 -2.348,-5.398 -8.92,-11.03 -15.256,-11.5 -6.336,-0.469 -6.805,3.285 -6.805,3.285"
             style="fill:none;stroke:#b6b5b5;stroke-width:1;stroke-linecap:butt;stroke-linejoin:miter;stroke-miterlimit:4;stroke-dasharray:none;stroke-opacity:1"
             id="path410"
             inkscape:connector-curvature="0" /></g><g
           id="g412"
           transform="translate(764.6758,882.7915)"><path
             d="m 0,0 c 0,0 1.41,-5.398 6.572,-7.745 5.162,-2.346 14.782,-1.643 19.008,1.409 4.227,3.051 3.285,9.857 7.744,15.254 4.461,5.398 25.819,18.776 25.819,18.776"
             style="fill:none;stroke:#b6b5b5;stroke-width:1;stroke-linecap:butt;stroke-linejoin:miter;stroke-miterlimit:4;stroke-dasharray:none;stroke-opacity:1"
             id="path414"
             inkscape:connector-curvature="0" /></g><g
           id="g416"
           transform="translate(809.9707,907.9038)"><path
             d="M 0,0 C 0,0 30.981,1.184 42.948,23.468 56.56,48.815 32.153,85.662 32.153,85.662"
             style="fill:none;stroke:#b6b5b5;stroke-width:1;stroke-linecap:butt;stroke-linejoin:miter;stroke-miterlimit:4;stroke-dasharray:none;stroke-opacity:1"
             id="path418"
             inkscape:connector-curvature="0" /></g><g
           id="g420"
           transform="translate(814.6641,976.1982)"><path
             d="m 0,0 c 0,0 -0.938,-3.285 -3.52,-4.225 -2.582,-0.939 -10.562,-4.693 -12.439,-7.04 -1.877,-2.347 -3.285,-6.572 -5.398,-6.806 -2.112,-0.235 -3.286,1.642 -4.459,4.224 -1.172,2.582 2.347,11.735 2.347,11.735"
             style="fill:none;stroke:#b6b5b5;stroke-width:1;stroke-linecap:butt;stroke-linejoin:miter;stroke-miterlimit:4;stroke-dasharray:none;stroke-opacity:1"
             id="path422"
             inkscape:connector-curvature="0" /></g><g
           id="g424"
           transform="translate(759.2793,918.9336)"><path
             d="m 0,0 c 0,0 9.148,-1.619 10.09,-11.969 0.703,-7.745 -6.57,-14.785 -11.498,-14.551 -4.93,0.235 -6.338,2.816 -5.633,6.806 0.703,3.99 5.162,5.867 5.865,8.449 0.705,2.582 -1.172,6.807 -0.937,9.388 C -1.879,0.704 0,0 0,0"
             style="fill:#393536;fill-opacity:1;fill-rule:nonzero;stroke:none"
             id="path426"
             inkscape:connector-curvature="0" /></g><g
           id="g428"
           transform="translate(759.2793,918.9336)"><path
             d="m 0,0 c 0,0 9.148,-1.619 10.09,-11.969 0.703,-7.745 -6.57,-14.785 -11.498,-14.551 -4.93,0.235 -6.338,2.816 -5.633,6.806 0.703,3.99 5.162,5.867 5.865,8.449 0.705,2.582 -1.172,6.807 -0.937,9.388 C -1.879,0.704 0,0 0,0 Z"
             style="fill:none;stroke:#b6b5b5;stroke-width:1;stroke-linecap:butt;stroke-linejoin:miter;stroke-miterlimit:4;stroke-dasharray:none;stroke-opacity:1"
             id="path430"
             inkscape:connector-curvature="0" /></g><g
           id="g432"
           transform="translate(812.5527,972.9121)"><path
             d="m 0,0 c 0,0 1.877,-4.928 0.703,-7.979 -1.172,-3.051 -6.807,-4.694 -10.092,-4.694 -3.285,0 -6.57,0.704 -6.57,0.704"
             style="fill:none;stroke:#666a6f;stroke-width:1;stroke-linecap:butt;stroke-linejoin:miter;stroke-miterlimit:4;stroke-dasharray:none;stroke-opacity:1"
             id="path434"
             inkscape:connector-curvature="0" /></g><g
           id="g436"
           transform="translate(797.7676,960.4736)"><path
             d="m 0,0 c 0,0 -2.348,-2.112 -2.113,-5.397 0.236,-3.286 1.877,-4.46 1.877,-4.46"
             style="fill:none;stroke:#b6b5b5;stroke-width:1;stroke-linecap:butt;stroke-linejoin:miter;stroke-miterlimit:4;stroke-dasharray:none;stroke-opacity:1"
             id="path438"
             inkscape:connector-curvature="0" /></g><g
           id="g440"
           transform="translate(792.1348,954.8408)"><path
             d="m 0,0 c 0,0 -9.623,-11.968 -13.377,-19.479 -3.756,-7.51 -4.461,-15.959 -4.461,-15.959"
             style="fill:none;stroke:#b6b5b5;stroke-width:1;stroke-linecap:butt;stroke-linejoin:miter;stroke-miterlimit:4;stroke-dasharray:none;stroke-opacity:1"
             id="path442"
             inkscape:connector-curvature="0" /></g><g
           id="g444"
           transform="translate(795.4199,946.8618)"><path
             d="m 0,0 c 0,0 -0.705,-3.285 0.703,-7.275 1.408,-3.99 4.225,-8.449 4.225,-8.449"
             style="fill:none;stroke:#b6b5b5;stroke-width:1;stroke-linecap:butt;stroke-linejoin:miter;stroke-miterlimit:4;stroke-dasharray:none;stroke-opacity:1"
             id="path446"
             inkscape:connector-curvature="0" /></g><g
           id="g448"
           transform="translate(835.083,914.4746)"><path
             d="m 0,0 c 0,0 10.092,-12.438 12.672,-26.989 2.582,-14.551 -1.877,-49.285 0,-61.254 1.879,-11.969 8.918,-19.949 8.918,-19.949"
             style="fill:none;stroke:#b6b5b5;stroke-width:1;stroke-linecap:butt;stroke-linejoin:miter;stroke-miterlimit:4;stroke-dasharray:none;stroke-opacity:1"
             id="path450"
             inkscape:connector-curvature="0" /></g><g
           id="g452"
           transform="translate(859.0205,782.5801)"><path
             d="m 0,0 c 0,0 3.99,-30.745 9.623,-38.49 5.631,-7.744 21.826,-13.143 21.826,-13.143"
             style="fill:none;stroke:#b6b5b5;stroke-width:1;stroke-linecap:butt;stroke-linejoin:miter;stroke-miterlimit:4;stroke-dasharray:none;stroke-opacity:1"
             id="path454"
             inkscape:connector-curvature="0" /></g><g
           id="g456"
           transform="translate(886.0088,766.3857)"><path
             d="m 0,0 c 0,0 -0.938,-27.929 4.461,-35.438 5.396,-7.51 11.5,-6.336 11.5,-6.336"
             style="fill:none;stroke:#b6b5b5;stroke-width:1;stroke-linecap:butt;stroke-linejoin:miter;stroke-miterlimit:4;stroke-dasharray:none;stroke-opacity:1"
             id="path458"
             inkscape:connector-curvature="0" /></g><g
           id="g460"
           transform="translate(848.2256,823.8843)"><path
             d="m 0,0 c 0,0 -11.031,-23.938 -8.215,-48.581 2.817,-24.642 14.551,-38.02 14.551,-38.02 l -18.307,-55.856 -22.53,-45.998 c 0,0 -5.396,-5.632 -7.51,-10.091 -2.111,-4.461 -1.877,-18.776 -1.877,-18.776 0,0 -4.925,-18.072 -9.621,-29.806 -4.695,-11.735 -21.592,-43.416 -21.592,-43.416 0,0 -3.521,-2.817 -5.632,-6.807 -2.114,-3.988 -2.465,-10.092 -2.465,-10.092"
             style="fill:none;stroke:#b6b5b5;stroke-width:1;stroke-linecap:butt;stroke-linejoin:miter;stroke-miterlimit:4;stroke-dasharray:none;stroke-opacity:1"
             id="path462"
             inkscape:connector-curvature="0" /></g><g
           id="g464"
           transform="translate(903.8467,716.6309)"><path
             d="M 0,0 C 0,0 -12.674,-19.244 -19.715,-28.866 -26.756,-38.488 -59.846,-67.59 -63.836,-77.213 -67.824,-86.834 -69,-95.754 -69,-95.754 c 0,0 0.469,-5.865 -2.111,-11.498 -2.582,-5.633 -13.142,-12.674 -13.142,-12.674 0,0 -15.256,-38.488 -17.838,-47.172 -2.58,-8.683 -6.336,-22.06 -6.336,-22.06 0,0 1.877,-9.389 0.235,-14.317 -1.641,-4.927 -4.928,-8.332 -4.928,-8.332"
             style="fill:none;stroke:#b6b5b5;stroke-width:1;stroke-linecap:butt;stroke-linejoin:miter;stroke-miterlimit:4;stroke-dasharray:none;stroke-opacity:1"
             id="path466"
             inkscape:connector-curvature="0" /></g><g
           id="g468"
           transform="translate(1160.1279,844.772)"><path
             d="M 0,0 C 0,0 5.398,6.806 4.928,14.551 4.459,22.295 -3.756,41.071 4.459,53.04 12.673,65.009 26.52,66.886 38.488,65.479 50.457,64.07 58.438,58.907 60.08,54.683 61.723,50.458 56.09,54.917 57.968,50.458 59.846,46 67.518,43.257 80.028,28.632 96.691,9.153 94.345,-7.98 95.753,-14.786 c 1.408,-6.805 7.041,-18.305 7.041,-18.305 0,0 -10.251,8.581 -12.673,13.846 -2.699,5.868 -2.816,8.332 -2.816,8.332"
             style="fill:none;stroke:#b6b5b5;stroke-width:1;stroke-linecap:butt;stroke-linejoin:miter;stroke-miterlimit:4;stroke-dasharray:none;stroke-opacity:1"
             id="path470"
             inkscape:connector-curvature="0" /></g><g
           id="g472"
           transform="translate(1191.8115,883.9653)"><path
             d="M 0,0 C 0,0 25.346,-3.99 39.662,-21.592 53.978,-39.193 56.561,-49.989 56.324,-57.734 56.09,-65.479 53.508,-69 55.855,-74.397 c 2.346,-5.397 11.499,-15.254 11.265,-17.366 -0.234,-2.112 -12.908,2.111 -12.908,2.111"
             style="fill:none;stroke:#b6b5b5;stroke-width:1;stroke-linecap:butt;stroke-linejoin:miter;stroke-miterlimit:4;stroke-dasharray:none;stroke-opacity:1"
             id="path474"
             inkscape:connector-curvature="0" /></g><g
           id="g476"
           transform="translate(1181.7188,821.0679)"><path
             d="m 0,0 c 0,0 7.276,3.521 8.685,13.613 1.408,10.091 -4.93,25.111 -4.93,25.111"
             style="fill:none;stroke:#b6b5b5;stroke-width:1;stroke-linecap:butt;stroke-linejoin:miter;stroke-miterlimit:4;stroke-dasharray:none;stroke-opacity:1"
             id="path478"
             inkscape:connector-curvature="0" /></g><g
           id="g480"
           transform="translate(1216.6875,860.731)"><path
             d="m 0,0 c 0,0 12.438,-10.327 16.429,-21.592 3.989,-11.265 4.693,-21.356 4.693,-21.356"
             style="fill:none;stroke:#b6b5b5;stroke-width:1;stroke-linecap:butt;stroke-linejoin:miter;stroke-miterlimit:4;stroke-dasharray:none;stroke-opacity:1"
             id="path482"
             inkscape:connector-curvature="0" /></g><g
           id="g484"
           transform="translate(1202.1367,858.1494)"><path
             d="m 0,0 c 0,0 26.754,-28.633 34.03,-42.01 7.276,-13.377 12.236,-28.402 12.438,-32.152 0.47,-8.684 0.002,-13.377 -1.172,-14.081 -1.174,-0.704 -5.399,3.52 -5.399,3.52"
             style="fill:none;stroke:#b6b5b5;stroke-width:1;stroke-linecap:butt;stroke-linejoin:miter;stroke-miterlimit:4;stroke-dasharray:none;stroke-opacity:1"
             id="path486"
             inkscape:connector-curvature="0" /></g><g
           id="g488"
           transform="translate(1236.4014,756.3535)"><path
             d="m 0,0 c 0,0 2.112,-2.172 4.225,-2.641 2.112,-0.469 4.224,8.45 0.234,26.754 -3.99,18.306 -8.683,23.939 -11.734,30.98 -3.051,7.04 -3.991,11.265 -3.991,11.265"
             style="fill:none;stroke:#b6b5b5;stroke-width:1;stroke-linecap:butt;stroke-linejoin:miter;stroke-miterlimit:4;stroke-dasharray:none;stroke-opacity:1"
             id="path490"
             inkscape:connector-curvature="0" /></g><g
           id="g492"
           transform="translate(1227.0137,790.793)"><path
             d="m 0,0 c 0,0 7.511,-14.081 8.684,-26.988 1.173,-12.908 -1.173,-18.073 -3.521,-19.011 -2.346,-0.939 -2.582,6.571 -2.582,6.571 0,0 -1.643,-6.572 -4.224,-7.744 -2.581,-1.174 -3.52,2.817 -3.52,2.817 0,0 -1.878,-6.807 -4.225,-8.215 -2.346,-1.409 -3.519,8.918 -3.519,8.918 0,0 -4.225,-16.428 -7.276,-16.662 -3.05,-0.236 -3.52,11.265 -3.52,11.265"
             style="fill:none;stroke:#b6b5b5;stroke-width:1;stroke-linecap:butt;stroke-linejoin:miter;stroke-miterlimit:4;stroke-dasharray:none;stroke-opacity:1"
             id="path494"
             inkscape:connector-curvature="0" /></g><g
           id="g496"
           transform="translate(1229.5947,751.3652)"><path
             d="M 0,0 C 0,0 -0.586,14.316 -2.521,24.174 -4.459,34.03 -9.387,44.943 -9.387,44.943"
             style="fill:none;stroke:#b6b5b5;stroke-width:1;stroke-linecap:butt;stroke-linejoin:miter;stroke-miterlimit:4;stroke-dasharray:none;stroke-opacity:1"
             id="path498"
             inkscape:connector-curvature="0" /></g><g
           id="g500"
           transform="translate(1221.8506,746.4375)"><path
             d="M 0,0 C 0,0 -0.938,12.731 -2.522,22.588 -4.107,32.445 -7.1,43.887 -7.1,43.887"
             style="fill:none;stroke:#b6b5b5;stroke-width:1;stroke-linecap:butt;stroke-linejoin:miter;stroke-miterlimit:4;stroke-dasharray:none;stroke-opacity:1"
             id="path502"
             inkscape:connector-curvature="0" /></g><g
           id="g504"
           transform="translate(1213.6953,746.1445)"><path
             d="m 0,0 c 0,0 0.528,1.056 0.528,8.271 0,7.217 -1.056,19.715 -1.056,19.715"
             style="fill:none;stroke:#b6b5b5;stroke-width:1;stroke-linecap:butt;stroke-linejoin:miter;stroke-miterlimit:4;stroke-dasharray:none;stroke-opacity:1"
             id="path506"
             inkscape:connector-curvature="0" /></g><g
           id="g508"
           transform="translate(786.873,488.4883)"><path
             d="m 0,0 5.584,14.762 c 0,0 -4.467,5.406 -11.588,8.967 -7.744,3.873 -15.842,4.224 -15.842,4.224 L -32.758,7.535 c 0,0 1.836,-5.838 12.815,-9 C -8.967,-4.629 0,0 0,0 Z"
             style="fill:none;stroke:#b6b5b5;stroke-width:1;stroke-linecap:butt;stroke-linejoin:miter;stroke-miterlimit:4;stroke-dasharray:none;stroke-opacity:1"
             id="path510"
             inkscape:connector-curvature="0" /></g><g
           id="g512"
           transform="translate(897.04,602.8066)"><path
             d="m 0,0 c 0,0 2.582,-8.213 1.174,-14.785 -1.408,-6.572 -9.623,-10.797 -9.623,-10.797 l -3.754,3.287 c 0,0 7.51,2.815 9.857,7.979 C 0,-9.152 0,0 0,0"
             style="fill:#393536;fill-opacity:1;fill-rule:nonzero;stroke:none"
             id="path514"
             inkscape:connector-curvature="0" /></g><g
           id="g516"
           transform="translate(886.7139,603.9805)"><path
             d="m 0,0 c 0,0 -2.346,0.234 -5.867,-3.99 -3.52,-4.225 -4.225,-11.266 -4.225,-11.266 0,0 -1.877,7.277 2.346,12.44 C -3.521,2.348 0,0 0,0"
             style="fill:#393536;fill-opacity:1;fill-rule:nonzero;stroke:none"
             id="path518"
             inkscape:connector-curvature="0" /></g><g
           id="g520"
           transform="translate(1134.3115,804.8745)"><path
             d="m 0,0 c 0,0 7.979,-3.755 11.734,-16.898 3.756,-13.143 0,-31.447 0,-31.447 L 6.571,-36.142 0,-45.06 l -5.633,8.448 -9.856,-8.448 -3.756,8.918 -11.265,-5.633 -5.163,10.327 -10.327,-4.224 -7.51,7.509 -10.795,-2.816 -5.633,8.919 -11.734,-2.348 -9.857,7.98 -11.265,-2.816 -3.286,7.04 h -9.857 l -11.735,7.979 -5.633,-0.468 9.389,5.632 8.918,-5.632 15.02,3.285 7.98,-4.694 7.978,1.877 9.389,-4.692 15.489,-9.858 7.98,3.285 9.856,-5.633 7.041,2.348 13.613,-2.816 4.693,8.449 10.326,-3.286 z"
             style="fill:#393536;fill-opacity:1;fill-rule:nonzero;stroke:none"
             id="path522"
             inkscape:connector-curvature="0" /></g><g
           id="g524"
           transform="translate(1135.7197,680.1377)"><path
             d="m 0,0 c 0,0 -0.704,-3.169 1.408,-9.153 2.113,-5.985 24.994,-43.653 27.459,-52.102 2.464,-8.447 1.056,-16.545 1.056,-16.545 l -5.28,17.602 -29.219,53.51 z"
             style="fill:#393536;fill-opacity:1;fill-rule:nonzero;stroke:none"
             id="path526"
             inkscape:connector-curvature="0" /></g><g
           id="g528"
           transform="translate(1167.7549,586.4961)"><path
             d="m 0,0 c 0,0 -1.76,-2.111 -1.76,-6.336 0,-4.225 -1.056,-89.769 -1.056,-89.769 0,0 -7.393,-5.985 -10.209,-10.561 -2.817,-4.576 -1.057,-8.801 -1.057,-8.801 l 5.281,1.408 c 0,0 -1.056,3.52 1.76,9.153 2.816,5.633 8.449,7.392 8.449,7.392 0,0 -2.112,86.248 -0.704,90.121 1.408,3.873 3.872,6.69 3.872,6.69 z"
             style="fill:#393536;fill-opacity:1;fill-rule:nonzero;stroke:none"
             id="path530"
             inkscape:connector-curvature="0" /></g><g
           id="g532"
           transform="translate(1191.3408,595.2969)"><path
             d="m 0,0 c 0,0 1.644,-3.52 1.057,-5.984 -0.588,-2.465 -4.577,-7.393 -4.577,-7.393 0,0 1.409,-7.744 1.056,-12.674 -0.352,-4.928 -7.04,-17.953 -7.04,-17.953 l -4.577,-47.172 -1.408,10.209 2.816,39.428 c 0,0 6.571,10.795 7.393,16.545 0.821,5.75 -1.761,12.674 -1.761,12.674 l 5.633,7.041 z"
             style="fill:#393536;fill-opacity:1;fill-rule:nonzero;stroke:none"
             id="path534"
             inkscape:connector-curvature="0" /></g><g
           id="g536"
           transform="translate(740.5605,894.7021)"><path
             d="m 0,0 -2.111,-3.168 c 0,0 2.992,-5.104 7.568,-6.337 4.576,-1.232 14.258,1.408 14.258,1.408 0,0 -8.098,-5.632 -14.785,-3.52 -6.69,2.112 -8.977,4.752 -10.034,7.217 -1.056,2.464 1.057,4.4 1.057,4.4 z"
             style="fill:#393536;fill-opacity:1;fill-rule:nonzero;stroke:none"
             id="path538"
             inkscape:connector-curvature="0" /></g><g
           id="g540"
           transform="translate(838.8389,987.4634)"><path
             d="m 0,0 c 0,0 10.387,-7.033 13.141,-29.805 3.521,-29.102 -17.602,-35.674 -17.602,-35.674 0,0 16.428,11.734 13.848,34.734 C 7.225,-11.479 0,0 0,0"
             style="fill:#393536;fill-opacity:1;fill-rule:nonzero;stroke:none"
             id="path542"
             inkscape:connector-curvature="0" /></g><g
           id="g544"
           transform="translate(855.9697,1019.1465)"><path
             d="m 0,0 c 0,0 -3.051,-2.112 -11.266,-4.225 -8.213,-2.112 -10.56,0.704 -14.55,-1.877 -3.99,-2.582 -10.326,-11.03 -10.326,-11.03 0,0 -1.408,-0.705 -2.347,0.469 -0.94,1.173 -0.94,2.112 -0.94,2.112 0,0 4.225,10.092 9.858,12.439 5.632,2.346 14.786,-0.939 18.776,-0.235 C -6.807,-1.643 0,0 0,0"
             style="fill:#393536;fill-opacity:1;fill-rule:nonzero;stroke:none"
             id="path546"
             inkscape:connector-curvature="0" /></g><g
           id="g548"
           transform="translate(1160.7139,692.8105)"><path
             d="m 0,0 c 0,0 5.984,-1.76 8.801,-11.266 2.816,-9.504 1.761,-18.304 1.761,-18.304 0,0 7.392,11.617 4.223,19.361 C 11.617,-2.464 0,0 0,0"
             style="fill:#393536;fill-opacity:1;fill-rule:nonzero;stroke:none"
             id="path550"
             inkscape:connector-curvature="0" /></g><g
           id="g552"
           transform="translate(926.377,802.0581)"><path
             d="m 0,0 c 0,0 3.755,-20.183 0.938,-30.509 -2.816,-10.326 -16.427,-22.062 -18.775,-32.858 -2.346,-10.795 3.285,-27.222 3.285,-27.222 l 5.633,9.857 c 0,0 -3.756,8.917 -0.469,17.365 3.285,8.45 14.082,20.184 16.428,30.98 C 9.388,-21.591 0,0 0,0"
             style="fill:#393536;fill-opacity:1;fill-rule:nonzero;stroke:none"
             id="path554"
             inkscape:connector-curvature="0" /></g><g
           id="g556"
           transform="translate(1156.1377,464.8086)"><path
             d="m 0,0 -6.572,-17.367 -4.928,1.879 7.275,15.722 z"
             style="fill:#393536;fill-opacity:1;fill-rule:nonzero;stroke:none"
             id="path558"
             inkscape:connector-curvature="0" /></g><g
           id="g560"
           transform="translate(1171.6279,456.3613)"><path
             d="m 0,0 -0.705,-8.449 -4.459,-0.94 2.348,12.205 z"
             style="fill:#393536;fill-opacity:1;fill-rule:nonzero;stroke:none"
             id="path562"
             inkscape:connector-curvature="0" /></g><g
           id="g564"
           transform="translate(853.1533,476.3086)"><path
             d="m 0,0 -6.102,-14.082 -6.103,-0.939 9.389,17.601 z"
             style="fill:#393536;fill-opacity:1;fill-rule:nonzero;stroke:none"
             id="path566"
             inkscape:connector-curvature="0" /></g><g
           id="g568"
           transform="translate(834.1436,488.7461)"><path
             d="m 0,0 -11.97,-21.59 -3.519,2.815 12.907,20.183 z"
             style="fill:#393536;fill-opacity:1;fill-rule:nonzero;stroke:none"
             id="path570"
             inkscape:connector-curvature="0" /></g><g
           id="g572"
           transform="translate(834.3779,489.2148)"><path
             d="m 0,0 3.99,-1.641 -13.141,-22.062 -2.817,2.113 z"
             style="fill:#b6b5b5;fill-opacity:1;fill-rule:nonzero;stroke:none"
             id="path574"
             inkscape:connector-curvature="0" /></g><g
           id="g576"
           transform="translate(1154.9639,464.5742)"><path
             d="m 0,0 3.99,-0.234 -5.633,-17.602 -3.755,0.703 z"
             style="fill:#b6b5b5;fill-opacity:1;fill-rule:nonzero;stroke:none"
             id="path578"
             inkscape:connector-curvature="0" /></g><text
           transform="matrix(0.66666667,0,0,-1,289.9888,482.9326)"
           style="font-variant:normal;font-weight:normal;font-stretch:normal;font-size:100.5px;font-family:'DejaVu Serif';-inkscape-font-specification:'DejaVu Serif';writing-mode:lr-tb;fill:#22174b;fill-opacity:1;fill-rule:nonzero;stroke:none;font-style:normal;"
           id="text582"><tspan
             x="0 93.264 154.66949 216.67799 271.35001 314.86649 376.272 406.422 474.6615 529.63501 588.82953 623.30103"
             y="0"
             sodipodi:role="line"
             id="tspan580">Madera South</tspan></text>
</g></g></g></svg>