<?xml version="1.0" encoding="UTF-8" standalone="no"?>
<!-- Created with Inkscape (http://www.inkscape.org/) -->

<svg
   xmlns:dc="http://purl.org/dc/elements/1.1/"
   xmlns:cc="http://creativecommons.org/ns#"
   xmlns:rdf="http://www.w3.org/1999/02/22-rdf-syntax-ns#"
   xmlns:svg="http://www.w3.org/2000/svg"
   xmlns="http://www.w3.org/2000/svg"
   xmlns:sodipodi="http://sodipodi.sourceforge.net/DTD/sodipodi-0.dtd"
   xmlns:inkscape="http://www.inkscape.org/namespaces/inkscape"
   version="1.1"
   id="svg2"
   xml:space="preserve"
   width="816"
   height="288"
   viewBox="0 0 816 288"
   sodipodi:docname="Sounds of Freedom Logo.pdf"
   inkscape:version="0.92.2 (5c3e80d, 2017-08-06)"><metadata
     id="metadata8"><rdf:RDF><cc:Work
         rdf:about=""><dc:format>image/svg+xml</dc:format><dc:type
           rdf:resource="http://purl.org/dc/dcmitype/StillImage" /><dc:title></dc:title></cc:Work></rdf:RDF></metadata><defs
     id="defs6"><clipPath
       clipPathUnits="userSpaceOnUse"
       id="clipPath18"><path
         d="M 0,216 H 612 V 0 H 0 Z"
         id="path16"
         inkscape:connector-curvature="0" /></clipPath></defs><sodipodi:namedview
     pagecolor="#ffffff"
     bordercolor="#666666"
     borderopacity="1"
     objecttolerance="10"
     gridtolerance="10"
     guidetolerance="10"
     inkscape:pageopacity="0"
     inkscape:pageshadow="2"
     inkscape:window-width="942"
     inkscape:window-height="714"
     id="namedview4"
     showgrid="false"
     inkscape:zoom="0.48284314"
     inkscape:cx="408"
     inkscape:cy="144"
     inkscape:window-x="2341"
     inkscape:window-y="112"
     inkscape:window-maximized="0"
     inkscape:current-layer="g10" /><g
     id="g10"
     inkscape:groupmode="layer"
     inkscape:label="Sounds of Freedom Logo"
     transform="matrix(1.3333333,0,0,-1.3333333,0,288)"><g
       id="g12"><g
         id="g14"
         clip-path="url(#clipPath18)"><g
           id="g20"
           transform="translate(19.604,190.2891)"><path
             d="m 0,0 c 0,0 20.016,-5.961 34.703,-8.206 17.084,-2.611 30.432,-2.237 30.432,-2.237 0,0 29.547,0.901 51.79,4.848 26.743,4.745 51.341,11.087 61.664,12.028 9.21,0.839 33.486,4.48 68.873,-2.516 28.946,-5.723 53.658,-22.211 53.658,-22.211 l -4.807,-26.622 c 0,0 -33.576,44.631 -115.854,34.099 -9.297,-1.19 -74.123,-15.978 -117.994,-15.667 -27.259,0.193 -68.874,8.953 -68.874,8.953 l 13.882,7.088 z"
             style="fill:#d41042;fill-opacity:1;fill-rule:nonzero;stroke:none"
             id="path22"
             inkscape:connector-curvature="0" /></g><g
           id="g24"
           transform="translate(35.5835,159.0537)"><path
             d="m 0,0 c 0,0 17.846,-5.316 30.942,-7.316 15.231,-2.329 27.13,-1.995 27.13,-1.995 0,0 26.346,0.804 46.173,4.324 23.844,4.229 45.775,9.883 54.978,10.72 8.21,0.749 29.852,3.993 61.402,-2.243 25.809,-5.1 47.841,-19.801 47.841,-19.801 l -4.286,-23.735 c 0,0 -29.935,39.791 -103.29,30.401 -8.287,-1.06 -66.083,-14.243 -105.197,-13.967 -24.303,0.172 -61.405,7.983 -61.405,7.983 l 12.376,6.318 z"
             style="fill:#d41042;fill-opacity:1;fill-rule:nonzero;stroke:none"
             id="path26"
             inkscape:connector-curvature="0" /></g><g
           id="g28"
           transform="translate(586.6201,190.2891)"><path
             d="m 0,0 c 0,0 -20.016,-5.961 -34.703,-8.206 -17.083,-2.611 -30.432,-2.237 -30.432,-2.237 0,0 -29.547,0.901 -51.789,4.848 -26.743,4.745 -51.341,11.087 -61.666,12.028 -9.208,0.839 -33.484,4.48 -68.872,-2.516 -28.945,-5.723 -53.656,-22.211 -53.656,-22.211 l 4.805,-26.622 c 0,0 33.577,44.631 115.854,34.099 9.298,-1.19 74.124,-15.978 117.994,-15.667 27.259,0.193 68.873,8.953 68.873,8.953 l -13.881,7.088 z"
             style="fill:#d41042;fill-opacity:1;fill-rule:nonzero;stroke:none"
             id="path30"
             inkscape:connector-curvature="0" /></g><g
           id="g32"
           transform="translate(570.6416,159.0537)"><path
             d="m 0,0 c 0,0 -17.846,-5.316 -30.942,-7.316 -15.231,-2.329 -27.13,-1.995 -27.13,-1.995 0,0 -26.348,0.804 -46.173,4.324 -23.844,4.229 -45.775,9.883 -54.979,10.72 -8.21,0.749 -29.851,3.993 -61.402,-2.243 -25.809,-5.1 -47.841,-19.801 -47.841,-19.801 l 4.286,-23.735 c 0,0 29.937,39.791 103.29,30.401 8.288,-1.06 66.083,-14.243 105.199,-13.967 24.302,0.172 61.404,7.983 61.404,7.983 l -12.376,6.318 z"
             style="fill:#d41042;fill-opacity:1;fill-rule:nonzero;stroke:none"
             id="path34"
             inkscape:connector-curvature="0" /></g><g
           id="g36"
           transform="translate(253.9702,177.2568)"><path
             d="M 0,0 H 98.527 L 98.803,-8.28 96.043,-20.975 90.8,-34.499 84.726,-48.459 70.928,-64.582 57.681,-76.724 49.953,-80.864 36.43,-72.86 25.115,-61.821 13.523,-44.987 7.054,-30.625 2.207,-17.389 Z"
             style="fill:#ffffff;fill-opacity:1;fill-rule:nonzero;stroke:none"
             id="path38"
             inkscape:connector-curvature="0" /></g><g
           id="g40"
           transform="translate(267.7813,129.8276)"><path
             d="M 0,0 -7.607,15.559 V 44.354 H 0 Z"
             style="fill:#d41042;fill-opacity:1;fill-rule:nonzero;stroke:none"
             id="path42"
             inkscape:connector-curvature="0" /></g><g
           id="g44"
           transform="translate(283.8975,109.4556)"><path
             d="M 0,0 -7.607,9.027 V 64.726 H 0 Z"
             style="fill:#d41042;fill-opacity:1;fill-rule:nonzero;stroke:none"
             id="path46"
             inkscape:connector-curvature="0" /></g><g
           id="g48"
           transform="translate(299.2417,97.5947)"><path
             d="m 0,0 -7.608,5.417 v 71.17 H 0 Z"
             style="fill:#d41042;fill-opacity:1;fill-rule:nonzero;stroke:none"
             id="path50"
             inkscape:connector-curvature="0" /></g><g
           id="g52"
           transform="translate(338.6963,128.7979)"><path
             d="m 0,0 7.607,16.074 v 29.31 H 0 Z"
             style="fill:#d41042;fill-opacity:1;fill-rule:nonzero;stroke:none"
             id="path54"
             inkscape:connector-curvature="0" /></g><g
           id="g56"
           transform="translate(322.5791,109.4556)"><path
             d="M 0,0 7.607,8.598 V 64.726 H 0 Z"
             style="fill:#d41042;fill-opacity:1;fill-rule:nonzero;stroke:none"
             id="path58"
             inkscape:connector-curvature="0" /></g><g
           id="g60"
           transform="translate(307.2363,97.5947)"><path
             d="M 0,0 7.606,5.501 V 76.587 H 0 Z"
             style="fill:#d41042;fill-opacity:1;fill-rule:nonzero;stroke:none"
             id="path62"
             inkscape:connector-curvature="0" /></g><g
           id="g64"
           transform="translate(343.8008,151.0605)"><path
             d="m 0,0 c 0,0 -2.612,5.426 -8.543,5.555 -7.268,0.157 -18.104,-5.039 -28.506,-5.428 -6.148,-0.228 -9.216,2.786 -12.507,4.772 -1.973,1.191 -4.093,1.639 -4.769,1.762 -11.52,2.106 -28.452,-11.09 -28.452,-11.09 l 0.515,-0.976 c 0,0 14.504,11.894 27.012,11.441 6.872,-0.246 8.801,-7.185 17.761,-6.799 10.061,0.434 22.015,5.383 28.527,5.705 C -3.487,5.213 0,0 0,0"
             style="fill:#231f20;fill-opacity:1;fill-rule:nonzero;stroke:none"
             id="path66"
             inkscape:connector-curvature="0" /></g><g
           id="g68"
           transform="translate(344.4453,149.8135)"><path
             d="m 0,0 c 0,0 -3.257,5.543 -9.188,5.673 -7.267,0.159 -18.104,-5.683 -28.505,-6.071 -3.052,-0.113 -7.081,0.72 -10.659,3.46 -3.025,2.316 -6.618,2.676 -6.618,2.676 0,0 -5.566,0.869 -13.044,-2.483 -7.478,-3.353 -14.313,-9.24 -14.313,-9.24 l 0.517,-0.977 c 0,0 13.408,12.441 25.915,11.991 6.873,-0.249 8.802,-6.705 17.762,-6.319 10.061,0.435 22.015,6.03 28.527,6.351 C -4.132,5.332 0,0 0,0"
             style="fill:#231f20;fill-opacity:1;fill-rule:nonzero;stroke:none"
             id="path70"
             inkscape:connector-curvature="0" /></g><g
           id="g72"
           transform="translate(345.4121,147.8462)"><path
             d="m 0,0 c 0,0 -2.869,6.575 -8.8,6.708 -7.269,0.155 -18.063,-6.48 -28.462,-6.867 -3.053,-0.114 -7.364,0.313 -11.121,2.802 -3.063,2.033 -6.652,2.806 -6.652,2.806 0,0 -5.083,1.385 -13.044,-2.934 -7.203,-3.909 -14.311,-9.241 -14.311,-9.241 l 0.515,-0.977 c 0,0 14.602,12.217 24.402,12.217 6.876,0 10.572,-5.963 19.532,-5.578 10.063,0.437 22.21,6.835 28.719,7.156 C -3.745,6.363 0,0 0,0"
             style="fill:#231f20;fill-opacity:1;fill-rule:nonzero;stroke:none"
             id="path74"
             inkscape:connector-curvature="0" /></g><g
           id="g76"
           transform="translate(345.6045,147.2666)"><path
             d="m 0,0 c 0,0 -3.062,5.995 -8.992,6.125 -7.27,0.158 -17.869,-7.157 -28.269,-7.543 -3.054,-0.114 -6.297,-0.269 -10.155,2.063 -6.768,4.093 -12.539,4.19 -21.179,-0.677 -7.137,-4.023 -12.763,-8.564 -12.763,-8.564 l 0.514,-0.978 c 0,0 14.699,12.346 24.113,12.346 6.877,0 9.541,-5.544 18.502,-5.157 10.063,0.434 22.305,7.575 28.815,7.896 C -3.938,5.783 0,0 0,0"
             style="fill:#231f20;fill-opacity:1;fill-rule:nonzero;stroke:none"
             id="path78"
             inkscape:connector-curvature="0" /></g><g
           id="g80"
           transform="translate(345.3145,147.2344)"><path
             d="m 0,0 c 0,0 -2.61,4.868 -8.542,4.997 -4.245,0.092 -9.502,-2.248 -14.989,-4.578 -3.907,-1.658 -8.637,-3.254 -12.118,-3.642 -3.037,-0.338 -7.06,-0.451 -10.285,1.16 -7.935,3.968 -12.538,4.9 -21.596,-0.515 -7.035,-4.205 -12.282,-8.95 -12.282,-8.95 l 0.517,-0.978 c 0,0 13.378,12.733 22.789,12.733 6.877,0 10.424,-5.028 19.373,-4.416 8.961,0.612 21.661,8.251 28.172,8.573 C -3.485,4.655 0,0 0,0"
             style="fill:#231f20;fill-opacity:1;fill-rule:nonzero;stroke:none"
             id="path82"
             inkscape:connector-curvature="0" /></g><g
           id="g84"
           transform="translate(254.0278,173.9238)"><path
             d="m 0,0 h 98.851 l 0.773,14.183 0.644,10.572 -1.158,4.127 -4.771,-2.837 -6.448,-3.61 -12.506,-1.419 -12.251,1.935 -11.474,5.287 -2.837,1.548 -5.93,-3.741 -7.994,-3.481 -10.315,-1.548 -10.187,0.776 -8.509,3.48 -6.058,4.254 -0.517,-14.44 z"
             style="fill:#0c2950;fill-opacity:1;fill-rule:nonzero;stroke:none"
             id="path86"
             inkscape:connector-curvature="0" /></g><g
           id="g88"
           transform="translate(260.231,193.5938)"><path
             d="M 0,0 1.175,-2.386 3.809,-2.769 1.904,-4.623 2.353,-7.246 0,-6.008 l -2.353,-1.238 0.449,2.623 -1.904,1.854 2.632,0.383 z"
             style="fill:#ffffff;fill-opacity:1;fill-rule:nonzero;stroke:none"
             id="path90"
             inkscape:connector-curvature="0" /></g><g
           id="g92"
           transform="translate(274.4131,193.5938)"><path
             d="M 0,0 1.176,-2.386 3.811,-2.769 1.906,-4.623 2.354,-7.246 0,-6.008 l -2.354,-1.238 0.452,2.623 -1.906,1.854 2.633,0.383 z"
             style="fill:#ffffff;fill-opacity:1;fill-rule:nonzero;stroke:none"
             id="path94"
             inkscape:connector-curvature="0" /></g><g
           id="g96"
           transform="translate(288.854,193.5938)"><path
             d="M 0,0 1.177,-2.386 3.809,-2.769 1.904,-4.623 2.354,-7.246 0,-6.008 l -2.353,-1.238 0.45,2.623 -1.906,1.854 2.634,0.383 z"
             style="fill:#ffffff;fill-opacity:1;fill-rule:nonzero;stroke:none"
             id="path98"
             inkscape:connector-curvature="0" /></g><g
           id="g100"
           transform="translate(317.5654,193.5938)"><path
             d="M 0,0 1.174,-2.386 3.809,-2.769 1.904,-4.623 2.354,-7.246 0,-6.008 l -2.353,-1.238 0.45,2.623 -1.907,1.854 2.635,0.383 z"
             style="fill:#ffffff;fill-opacity:1;fill-rule:nonzero;stroke:none"
             id="path102"
             inkscape:connector-curvature="0" /></g><g
           id="g104"
           transform="translate(331.748,193.5938)"><path
             d="M 0,0 1.176,-2.386 3.809,-2.769 1.904,-4.623 2.354,-7.246 0,-6.008 l -2.354,-1.238 0.452,2.623 -1.908,1.854 2.634,0.383 z"
             style="fill:#ffffff;fill-opacity:1;fill-rule:nonzero;stroke:none"
             id="path106"
             inkscape:connector-curvature="0" /></g><g
           id="g108"
           transform="translate(346.1895,193.5938)"><path
             d="M 0,0 1.175,-2.386 3.81,-2.769 1.904,-4.623 2.354,-7.246 0,-6.008 l -2.354,-1.238 0.45,2.623 -1.906,1.854 2.635,0.383 z"
             style="fill:#ffffff;fill-opacity:1;fill-rule:nonzero;stroke:none"
             id="path110"
             inkscape:connector-curvature="0" /></g><g
           id="g112"
           transform="translate(303.439,193.5938)"><path
             d="M 0,0 1.177,-2.386 3.809,-2.769 1.906,-4.623 2.355,-7.246 0,-6.008 l -2.352,-1.238 0.449,2.623 -1.905,1.854 2.635,0.383 z"
             style="fill:#ffffff;fill-opacity:1;fill-rule:nonzero;stroke:none"
             id="path114"
             inkscape:connector-curvature="0" /></g><g
           id="g116"
           transform="translate(267.0625,186.3745)"><path
             d="M 0,0 1.178,-2.386 3.811,-2.771 1.907,-4.624 2.356,-7.246 0,-6.01 l -2.352,-1.236 0.45,2.622 -1.904,1.853 2.633,0.385 z"
             style="fill:#ffffff;fill-opacity:1;fill-rule:nonzero;stroke:none"
             id="path118"
             inkscape:connector-curvature="0" /></g><g
           id="g120"
           transform="translate(281.5044,186.3745)"><path
             d="M 0,0 1.176,-2.386 3.811,-2.771 1.905,-4.624 2.355,-7.246 0,-6.01 l -2.353,-1.236 0.45,2.622 -1.904,1.853 2.633,0.385 z"
             style="fill:#ffffff;fill-opacity:1;fill-rule:nonzero;stroke:none"
             id="path122"
             inkscape:connector-curvature="0" /></g><g
           id="g124"
           transform="translate(310.2158,186.3745)"><path
             d="M 0,0 1.177,-2.386 3.81,-2.771 1.904,-4.624 2.353,-7.246 0,-6.01 l -2.354,-1.236 0.452,2.622 -1.907,1.853 2.634,0.385 z"
             style="fill:#ffffff;fill-opacity:1;fill-rule:nonzero;stroke:none"
             id="path126"
             inkscape:connector-curvature="0" /></g><g
           id="g128"
           transform="translate(324.3984,186.3745)"><path
             d="M 0,0 1.177,-2.386 3.81,-2.771 1.905,-4.624 2.354,-7.246 0,-6.01 l -2.354,-1.236 0.451,2.622 -1.905,1.853 2.631,0.385 z"
             style="fill:#ffffff;fill-opacity:1;fill-rule:nonzero;stroke:none"
             id="path130"
             inkscape:connector-curvature="0" /></g><g
           id="g132"
           transform="translate(338.8389,186.3745)"><path
             d="M 0,0 1.177,-2.386 3.81,-2.771 1.904,-4.624 2.354,-7.246 0,-6.01 l -2.354,-1.236 0.452,2.622 -1.906,1.853 2.633,0.385 z"
             style="fill:#ffffff;fill-opacity:1;fill-rule:nonzero;stroke:none"
             id="path134"
             inkscape:connector-curvature="0" /></g><g
           id="g136"
           transform="translate(296.0908,186.3745)"><path
             d="M 0,0 1.176,-2.386 3.809,-2.771 1.905,-4.624 2.354,-7.246 0,-6.01 l -2.354,-1.236 0.452,2.622 -1.906,1.853 2.633,0.385 z"
             style="fill:#ffffff;fill-opacity:1;fill-rule:nonzero;stroke:none"
             id="path138"
             inkscape:connector-curvature="0" /></g><g
           id="g140"
           transform="translate(293.0098,150.3301)"><path
             d="m 0,0 v -0.417 l 0.364,0.2 v 0.418 z m 0,-0.849 h -0.258 z m -0.516,1.156 1.397,0.762 v -1.592 l -1.015,-0.555 -0.382,-0.207 z m 2.877,0.402 0.258,0.013 z m -3.415,-4.979 0.538,0.262 v 2.111 l 1.397,0.763 v -2.063 l 0.537,0.261 v 2.095 L 2.405,-0.301 2.38,0.296 1.418,-0.229 V 1.363 L 2.421,1.911 2.395,2.51 1.418,1.976 V 3.669 L 0.881,3.406 V 1.682 L -0.516,0.917 V 2.594 L -1.054,2.33 V 0.625 l -0.989,-0.541 0.027,-0.597 0.962,0.527 v -1.593 l -1.004,-0.549 0.026,-0.597 0.978,0.534 z m -0.515,1.209 -0.939,-0.514 -0.077,1.746 1.016,0.556 v 0.416 l -0.924,-0.505 -0.078,1.745 1.002,0.549 V 2.653 L 0,3.421 V 1.788 l 0.364,0.199 v 1.74 L 1.933,4.496 V 2.844 L 2.873,3.357 2.951,1.614 1.933,1.057 V 0.64 L 2.495,0.947 2.857,1.145 2.935,-0.599 1.933,-1.146 v -2.11 L 0.364,-4.024 v 2.021 L 0,-2.204 V -4.33 L -1.569,-5.1 Z"
             style="fill:#ffffff;fill-opacity:1;fill-rule:nonzero;stroke:none"
             id="path142"
             inkscape:connector-curvature="0" /></g><g
           id="g144"
           transform="translate(292.7515,149.481)"><path
             d="m 0,0 v 1.003 l 0.882,0.48 V 0.479 Z M 2.877,1.569 1.934,1.056 V 2.06 L 2.944,2.611 2.893,3.783 1.934,3.259 V 4.931 L 0.882,4.415 V 2.684 L 0,2.202 V 3.857 L -1.054,3.34 V 1.627 l -0.995,-0.544 0.054,-1.17 0.941,0.514 v -1.005 l -1.009,-0.551 0.05,-1.172 0.959,0.524 v -2.06 L 0,-3.321 v 2.12 l 0.882,0.481 v -2.041 l 1.052,0.514 v 2.102 l 0.994,0.543 z"
             style="fill:#231f20;fill-opacity:1;fill-rule:nonzero;stroke:none"
             id="path146"
             inkscape:connector-curvature="0" /></g><g
           id="g148"
           transform="translate(299.2852,145.3159)"><path
             d="m 0,0 c -0.93,-0.331 -1.741,-0.783 -2.306,-1.242 -0.57,-0.452 -0.864,-0.927 -0.852,-1.175 0,-0.046 0.008,-0.082 0.021,-0.12 0.039,-0.117 0.196,-0.267 0.501,-0.378 0.299,-0.11 0.721,-0.175 1.21,-0.175 0.71,0 1.565,0.137 2.413,0.439 0.913,0.324 1.666,0.785 2.179,1.252 0.52,0.463 0.774,0.943 0.766,1.221 0,0.056 -0.008,0.106 -0.023,0.148 -0.011,0.028 -0.026,0.058 -0.05,0.092 L 3.818,0.122 3.355,6.63 3.743,6.468 C 3.995,6.364 4.329,6.233 4.717,6.101 5.013,6 5.291,5.983 5.554,5.983 H 5.56 5.583 c 0.145,0 0.286,0.004 0.428,0.004 0.367,0 0.727,-0.039 1.11,-0.29 V 5.696 C 7.225,5.629 7.245,5.575 7.309,5.486 7.366,5.394 7.423,5.274 7.472,5.132 7.628,4.681 7.755,3.651 7.859,2.688 7.888,2.437 7.911,2.19 7.934,1.966 8.026,2.22 8.13,2.509 8.231,2.818 8.585,3.863 8.929,5.147 8.93,6.019 8.929,6.525 8.866,6.964 8.673,7.305 L 8.898,7.43 8.673,7.305 C 8.285,7.99 7.638,8.158 7.049,8.163 7.024,8.163 7.005,8.163 6.982,8.161 6.596,8.161 6.22,8.113 5.889,8.108 H 5.888 5.841 5.827 C 5.606,8.109 5.429,8.131 5.281,8.193 4.869,8.367 4.322,8.846 3.87,9.29 3.567,9.589 3.312,9.866 3.182,10.015 L 2.873,9.959 3.544,0.326 3.206,0.401 C 2.996,0.448 2.744,0.473 2.46,0.473 H 2.456 C 1.769,0.473 0.905,0.323 0,0 m -2.814,-3.399 c -0.375,0.138 -0.684,0.351 -0.809,0.69 -0.034,0.095 -0.049,0.195 -0.049,0.292 0.013,0.555 0.427,1.071 1.042,1.577 0.622,0.501 1.475,0.977 2.457,1.326 0.957,0.341 1.871,0.502 2.633,0.502 0.184,0 0.357,-0.008 0.521,-0.029 l -0.655,9.423 1.041,0.19 0.095,-0.095 C 3.478,10.461 3.47,10.467 3.473,10.465 V 10.463 H 3.475 L 3.477,10.462 3.478,10.46 C 3.481,10.455 3.485,10.452 3.49,10.446 3.5,10.435 3.513,10.419 3.532,10.397 3.568,10.355 3.623,10.294 3.69,10.22 3.828,10.072 4.018,9.87 4.233,9.655 4.646,9.238 5.224,8.765 5.479,8.669 5.518,8.65 5.652,8.623 5.827,8.623 h 0.002 c 0.007,0.001 0.012,0.001 0.018,0.001 h 0.006 c 0.281,-0.001 0.686,0.054 1.113,0.054 0.035,0.002 0.062,0 0.083,0 C 7.729,8.684 8.619,8.455 9.121,7.557 9.384,7.094 9.442,6.563 9.444,6.019 9.432,4.047 8.013,0.77 8.01,0.754 l -0.493,0.08 c 0,0.002 -0.068,0.853 -0.17,1.799 C 7.25,3.573 7.103,4.639 6.983,4.965 6.938,5.108 6.874,5.213 6.842,5.256 6.839,5.262 6.833,5.265 6.833,5.268 6.545,5.448 6.359,5.466 6.009,5.473 5.875,5.473 5.728,5.466 5.565,5.466 H 5.536 L 5.535,5.468 C 5.25,5.469 4.914,5.49 4.552,5.613 4.326,5.689 4.116,5.766 3.93,5.837 L 4.322,0.295 C 4.35,0.249 4.375,0.198 4.395,0.141 4.431,0.039 4.448,-0.069 4.448,-0.178 4.439,-0.715 4.082,-1.259 3.513,-1.781 2.94,-2.301 2.135,-2.791 1.16,-3.139 c -0.906,-0.32 -1.81,-0.467 -2.586,-0.467 -0.533,0 -1.007,0.069 -1.388,0.207"
             style="fill:#ffffff;fill-opacity:1;fill-rule:nonzero;stroke:none"
             id="path150"
             inkscape:connector-curvature="0" /></g><g
           id="g152"
           transform="translate(308.1836,152.7461)"><path
             d="M 0,0 C -0.461,0.818 -1.271,1.003 -1.916,0.99 -2.342,0.989 -2.746,0.934 -3.057,0.935 -3.261,0.934 -3.423,0.958 -3.521,1.002 c -0.33,0.134 -0.893,0.609 -1.326,1.041 -0.439,0.434 -0.772,0.82 -0.772,0.82 l -0.678,-0.122 0.661,-9.52 c -0.801,0.178 -2.034,0.058 -3.348,-0.409 -2.08,-0.739 -3.576,-2.069 -3.294,-2.863 0.281,-0.795 2.373,-1.013 4.454,-0.274 2.08,0.739 3.361,2.157 3.078,2.951 -0.02,0.055 -0.049,0.107 -0.083,0.155 L -5.255,-1.2 c 0.255,-0.106 0.596,-0.24 0.992,-0.374 0.337,-0.114 0.653,-0.132 0.93,-0.132 0.159,0 0.305,0.005 0.443,0.005 0.363,-0.002 0.635,-0.031 0.972,-0.249 0.045,-0.022 0.163,-0.178 0.249,-0.435 0.273,-0.773 0.545,-4.19 0.545,-4.19 0,0 1.407,3.294 1.414,5.165 C 0.289,-0.884 0.227,-0.401 0,0"
             style="fill:#231f20;fill-opacity:1;fill-rule:nonzero;stroke:none"
             id="path154"
             inkscape:connector-curvature="0" /></g><g
           id="g156"
           transform="translate(319.7861,147.4639)"><path
             d="m 0,0 c -0.931,-0.331 -1.74,-0.784 -2.306,-1.24 -0.571,-0.454 -0.864,-0.929 -0.852,-1.176 0,-0.046 0.008,-0.082 0.021,-0.119 0.036,-0.118 0.195,-0.268 0.499,-0.378 0.302,-0.11 0.724,-0.178 1.211,-0.176 0.712,-0.002 1.565,0.137 2.414,0.438 0.912,0.325 1.666,0.786 2.18,1.252 0.517,0.463 0.772,0.945 0.767,1.222 C 3.933,-0.12 3.924,-0.072 3.909,-0.029 3.898,-0.002 3.883,0.028 3.858,0.063 L 3.817,0.123 3.356,6.63 3.742,6.469 C 3.995,6.364 4.329,6.232 4.716,6.101 5.012,6.002 5.291,5.983 5.555,5.983 h 0.004 0.016 c 0.148,0 0.29,0.005 0.434,0.005 0.37,0 0.727,-0.038 1.111,-0.291 C 7.224,5.629 7.245,5.578 7.308,5.489 7.365,5.396 7.424,5.276 7.472,5.134 7.628,4.682 7.756,3.653 7.859,2.689 7.887,2.437 7.909,2.192 7.935,1.968 8.026,2.221 8.13,2.51 8.233,2.818 8.583,3.863 8.93,5.147 8.93,6.021 8.929,6.527 8.868,6.966 8.672,7.305 L 8.896,7.431 8.672,7.306 C 8.286,7.991 7.636,8.159 7.047,8.163 7.024,8.163 7.006,8.163 6.98,8.162 6.594,8.162 6.219,8.113 5.889,8.11 L 5.886,8.108 H 5.843 C 5.826,8.108 5.826,8.11 5.826,8.11 5.607,8.11 5.429,8.132 5.28,8.194 4.869,8.367 4.32,8.845 3.87,9.29 3.566,9.589 3.313,9.867 3.183,10.015 L 2.872,9.96 3.544,0.327 3.206,0.402 C 2.996,0.448 2.743,0.474 2.46,0.474 H 2.456 C 1.769,0.474 0.904,0.323 0,0 m -2.813,-3.398 c -0.375,0.137 -0.685,0.351 -0.809,0.689 -0.034,0.095 -0.051,0.196 -0.051,0.293 0.014,0.555 0.43,1.07 1.042,1.576 0.622,0.503 1.479,0.977 2.457,1.326 0.956,0.34 1.874,0.502 2.634,0.502 0.184,0 0.357,-0.008 0.522,-0.028 l -0.654,9.425 1.038,0.188 0.097,-0.095 c 0.015,-0.016 0.008,-0.01 0.011,-0.013 l 10e-4,-10e-4 v -0.002 h 0.002 l 0.002,-0.003 c 0.002,-0.002 0.005,-0.007 0.01,-0.013 0.009,-0.011 0.024,-0.028 0.042,-0.049 0.038,-0.041 0.093,-0.1 0.16,-0.175 C 3.826,10.073 4.017,9.871 4.232,9.659 4.646,9.237 5.225,8.766 5.479,8.669 5.52,8.651 5.65,8.623 5.826,8.625 h 0.02 0.005 C 6.135,8.623 6.539,8.677 6.967,8.678 6.999,8.68 7.027,8.68 7.047,8.68 7.727,8.683 8.618,8.457 9.122,7.559 9.383,7.095 9.44,6.565 9.444,6.021 9.431,4.046 8.012,0.773 8.01,0.754 l -0.494,0.08 c 0,0.002 -0.068,0.855 -0.169,1.8 C 7.25,3.574 7.104,4.64 6.983,4.965 6.938,5.108 6.875,5.214 6.841,5.256 6.837,5.264 6.835,5.266 6.833,5.269 6.546,5.449 6.359,5.466 6.007,5.473 5.876,5.473 5.729,5.467 5.565,5.467 H 5.535 L 5.533,5.468 C 5.25,5.468 4.914,5.49 4.552,5.613 4.324,5.69 4.115,5.766 3.931,5.838 L 4.32,0.297 C 4.348,0.25 4.374,0.2 4.395,0.143 4.433,0.04 4.448,-0.067 4.448,-0.177 4.438,-0.715 4.082,-1.258 3.513,-1.78 2.939,-2.301 2.134,-2.791 1.159,-3.138 0.255,-3.458 -0.65,-3.604 -1.427,-3.604 c -0.532,0 -1.006,0.067 -1.386,0.206"
             style="fill:#ffffff;fill-opacity:1;fill-rule:nonzero;stroke:none"
             id="path158"
             inkscape:connector-curvature="0" /></g><g
           id="g160"
           transform="translate(328.6826,154.8945)"><path
             d="m 0,0 c -0.459,0.821 -1.269,1.004 -1.916,0.989 -0.426,0 -0.826,-0.054 -1.139,-0.054 -0.205,0 -0.365,0.023 -0.465,0.067 -0.33,0.133 -0.893,0.609 -1.326,1.042 -0.438,0.433 -0.77,0.82 -0.771,0.82 l -0.68,-0.124 0.663,-9.517 c -0.801,0.174 -2.033,0.058 -3.348,-0.411 -2.081,-0.739 -3.577,-2.07 -3.294,-2.866 0.283,-0.792 2.375,-1.01 4.453,-0.271 2.081,0.74 3.361,2.158 3.078,2.95 -0.02,0.058 -0.049,0.108 -0.082,0.155 l -0.426,6.022 c 0.255,-0.106 0.597,-0.241 0.991,-0.376 0.338,-0.114 0.653,-0.132 0.931,-0.131 0.156,0 0.304,0.005 0.441,0.005 0.364,-0.004 0.636,-0.031 0.972,-0.249 0.047,-0.023 0.163,-0.177 0.249,-0.435 0.273,-0.772 0.546,-4.19 0.546,-4.19 0,0 1.408,3.294 1.413,5.164 C 0.288,-0.884 0.228,-0.4 0,0"
             style="fill:#231f20;fill-opacity:1;fill-rule:nonzero;stroke:none"
             id="path162"
             inkscape:connector-curvature="0" /></g><g
           id="g164"
           transform="translate(276.5835,159.4897)"><path
             d="m 0,0 c -0.239,-1.102 -0.412,-2.22 -0.412,-3.22 0,-0.565 0.057,-1.091 0.18,-1.555 0.318,0.369 0.772,0.909 1.224,1.491 0.41,0.521 0.818,1.088 1.118,1.581 0.302,0.48 0.486,0.925 0.477,1.057 -0.002,0.021 -0.001,0.029 -0.001,0.029 H 2.585 C 2.6,0.075 1.947,1.215 1.512,1.678 1.447,1.755 1.375,1.816 1.333,1.847 1.109,1.825 0.388,1.703 0,0 m -0.334,-5.287 0.239,0.096 z M -0.575,-5.38 c -0.253,0.638 -0.351,1.375 -0.351,2.16 0,1.058 0.18,2.208 0.422,3.328 0.396,1.889 1.399,2.263 1.849,2.254 h 0.01 C 1.389,2.362 1.416,2.361 1.442,2.358 1.508,2.35 1.51,2.336 1.53,2.331 1.547,2.323 1.562,2.314 1.576,2.305 1.604,2.289 1.633,2.266 1.669,2.24 1.738,2.186 1.821,2.11 1.899,2.018 2.392,1.462 3.081,0.349 3.102,-0.601 V -0.605 -0.629 -0.643 C 3.09,-1.018 2.864,-1.445 2.551,-1.971 2.234,-2.49 1.817,-3.069 1.399,-3.602 0.765,-4.417 0.133,-5.145 -0.141,-5.455 L -0.42,-5.771 Z m -0.578,-8.93 v 0 0.01 -0.019 z m 5.81,-1.439 c 0.629,0.82 0.838,1.795 0.837,2.312 0.001,0.137 -0.022,0.253 -0.027,0.255 -0.163,0.407 -0.653,1.518 -2.64,1.536 H 2.806 c 0.761,-1.687 1.474,-3.267 1.851,-4.103 m -0.303,-0.584 c -0.312,0.691 -1.221,2.707 -2.172,4.819 l 0.235,0.107 0.018,-0.257 -0.018,0.257 -0.235,-0.107 -0.152,0.338 0.367,0.025 c 0.145,0.011 0.29,0.021 0.431,0.021 2.217,0.006 2.955,-1.366 3.123,-1.873 0.044,-0.119 0.054,-0.252 0.057,-0.434 -0.003,-0.711 -0.288,-1.964 -1.231,-2.966 l -0.264,-0.281 z m -5.938,5.723 c 0.508,0.342 0.973,0.549 1.188,0.637 l 0.004,0.025 0.044,0.011 -0.238,0.567 c -0.346,-0.409 -0.682,-0.827 -0.998,-1.24 m 0.427,-3.665 v 0.004 c -10e-4,0.017 -0.004,0.022 -0.004,0.023 0.001,-0.004 0.004,-0.013 0.004,-0.027 m -2.647,-0.691 c 0,0 0,-0.004 0.002,-0.017 0,-0.214 0.036,-0.397 0.103,-0.556 0.725,-1.643 1.92,-2.158 3.386,-2.18 h 0.021 c 0.945,0 1.978,0.251 2.951,0.611 l -2.075,4.947 c -0.993,-0.52 -1.737,-1.416 -1.737,-2.137 v -0.002 0.002 -0.012 -0.012 0.003 -0.005 -0.034 c 0.007,-0.355 0.295,-0.844 0.616,-1.207 0.287,-0.335 0.578,-0.58 0.641,-0.631 l -0.026,-0.033 0.04,0.023 1.049,-0.823 -1.506,0.152 -0.002,0.008 c -0.078,0.013 -0.18,0.03 -0.297,0.057 -0.284,0.063 -0.666,0.171 -1.06,0.352 -0.782,0.359 -1.654,1.056 -1.794,2.293 -0.014,0.125 -0.019,0.248 -0.019,0.367 0,0.025 0,0.05 0.002,0.076 -0.194,-0.468 -0.3,-0.89 -0.295,-1.242 m 3.505,-3.269 c -1.595,-0.008 -3.086,0.653 -3.872,2.491 -0.101,0.232 -0.147,0.49 -0.147,0.749 0,0.006 0,0.016 -0.001,0.029 0.022,1.694 1.73,4.021 3.573,6.206 0.014,0.017 0.026,0.031 0.039,0.045 l 0.271,0.32 0.78,-1.855 -0.258,-0.09 c -0.084,-0.031 -0.133,-0.049 -0.156,-0.057 -0.006,-0.002 -0.007,-0.003 -0.012,-0.003 -0.006,-0.004 -0.015,-0.008 -0.025,-0.012 -0.022,-0.009 -0.055,-0.021 -0.094,-0.037 -0.08,-0.032 -0.195,-0.082 -0.333,-0.15 -0.276,-0.135 -0.647,-0.341 -1.013,-0.622 -0.737,-0.565 -1.441,-1.404 -1.449,-2.581 0,-0.1 0.005,-0.201 0.017,-0.306 0.088,-0.751 0.482,-1.236 0.97,-1.582 0.488,-0.343 1.069,-0.525 1.459,-0.612 0,0 0.001,0 0.004,-0.003 -0.117,0.112 -0.248,0.247 -0.38,0.402 -0.363,0.425 -0.736,0.978 -0.743,1.575 v 10e-4 c -0.003,0.016 -0.004,0.033 0.002,0.056 0.05,1.111 1.063,2.134 2.278,2.695 l 0.242,0.109 2.488,-5.929 -0.247,-0.099 c -1.024,-0.402 -2.138,-0.704 -3.205,-0.737 l -0.001,-0.003 z m 0.187,-2.82 c -0.992,-0.416 -1.894,-1.516 -1.887,-2.348 0,-0.189 0.044,-0.362 0.138,-0.515 0.319,-0.529 1.259,-0.904 2.497,-0.901 0.746,0 1.595,0.134 2.466,0.439 2.121,0.734 3.174,2.103 3.163,2.913 0,0.071 -0.008,0.139 -0.022,0.198 -0.183,0.762 -1.146,3.097 -1.351,3.585 l 0.238,0.097 0.151,-0.207 -0.151,0.207 -0.238,-0.097 -0.078,0.187 0.164,0.12 c 0.494,0.348 2.978,2.307 2.971,4.716 0,0.446 -0.086,0.911 -0.282,1.389 -0.545,1.326 -1.885,1.732 -3.342,1.739 H 4.322 4.303 c -0.914,0 -1.856,-0.162 -2.63,-0.345 L 1.464,-9.927 1.379,-9.732 c -0.341,0.752 -0.664,1.47 -0.945,2.095 l -0.069,0.154 0.112,0.123 c 1.431,1.605 2.755,2.995 3.205,3.686 0.37,0.567 0.514,1.241 0.516,1.948 C 4.2,-0.08 3.4,1.715 2.938,2.542 2.094,4.051 1.235,4.894 0.514,4.894 H 0.468 0.435 C -0.262,4.878 -0.834,4.672 -1.662,3.072 -2.273,1.878 -2.608,0.694 -2.613,-0.769 V -0.77 -0.799 c 0,-0.556 0.048,-1.154 0.149,-1.809 0.306,-2.025 0.904,-3.28 1.076,-3.608 L -1.292,-6.4 -1.453,-6.532 c -0.67,-0.534 -5.139,-4.374 -5.126,-7.951 0.002,-0.552 0.105,-1.098 0.345,-1.63 1.023,-2.283 3.232,-2.886 5.318,-2.891 h 0.009 c 0.002,0 0.01,0 0.017,-10e-4 1.996,0.002 3.845,0.563 4.297,0.713 l 0.216,0.07 0.097,-0.207 c 0.228,-0.484 1.168,-2.488 1.438,-3.26 0.024,-0.063 0.033,-0.131 0.033,-0.182 v -0.028 c -0.012,-0.293 -0.18,-0.51 -0.386,-0.74 -0.21,-0.225 -0.481,-0.446 -0.757,-0.632 -0.206,-0.143 -0.408,-0.27 -0.583,-0.374 l -0.349,0.359 c 0.197,0.317 0.4,0.763 0.404,1.196 0,0.17 -0.032,0.338 -0.104,0.496 -0.251,0.563 -1.046,0.847 -1.936,0.847 H 1.478 c -0.552,0 -1.124,-0.108 -1.59,-0.308 m -2.187,-3.135 c -0.15,0.243 -0.215,0.517 -0.215,0.79 0.031,1.156 1.047,2.311 2.199,2.821 0.543,0.229 1.177,0.346 1.796,0.346 0.969,-0.003 1.984,-0.282 2.403,-1.145 0.107,-0.235 0.151,-0.48 0.151,-0.714 -0.003,-0.22 -0.039,-0.43 -0.095,-0.625 0.184,0.138 0.357,0.288 0.486,0.427 0.18,0.185 0.262,0.37 0.25,0.391 0,0 0,0.003 -0.001,0.015 0,0.015 -0.002,0.019 -0.004,0.026 -0.22,0.633 -0.998,2.314 -1.322,3.007 -0.697,-0.214 -2.393,-0.669 -4.249,-0.671 h -0.024 -0.002 c -2.162,-0.003 -4.642,0.664 -5.78,3.198 -0.272,0.601 -0.389,1.223 -0.389,1.843 0.045,3.741 4.116,7.322 5.157,8.211 -0.251,0.528 -0.759,1.757 -1.036,3.585 -0.106,0.675 -0.154,1.299 -0.154,1.886 v 0.002 0.003 c -10e-4,1.555 0.362,2.846 1.007,4.101 0.818,1.666 1.673,2.118 2.556,2.104 0.017,0 0.03,0 0.037,-0.002 0.019,0 0.04,0.002 0.06,0 1.094,-0.052 1.977,-1.08 2.855,-2.617 0.488,-0.878 1.32,-2.713 1.325,-4.518 0,-0.773 -0.158,-1.555 -0.599,-2.229 -0.499,-0.76 -1.755,-2.072 -3.14,-3.623 0.241,-0.534 0.508,-1.128 0.789,-1.75 0.754,0.168 1.642,0.309 2.528,0.311 0.013,10e-4 0.021,0 0.023,0 h 0.004 c 1.529,0.005 3.162,-0.449 3.827,-2.059 0.223,-0.538 0.319,-1.072 0.319,-1.586 -0.028,-2.542 -2.261,-4.421 -3.018,-5.008 0.302,-0.734 1.107,-2.697 1.3,-3.477 0.025,-0.104 0.036,-0.21 0.036,-0.324 -0.033,-1.189 -1.269,-2.601 -3.509,-3.397 -0.924,-0.321 -1.827,-0.467 -2.637,-0.467 -1.325,0.01 -2.428,0.362 -2.934,1.145"
             style="fill:#ffffff;fill-opacity:1;fill-rule:nonzero;stroke:none"
             id="path166"
             inkscape:connector-curvature="0" /></g><g
           id="g168"
           transform="translate(279,148.082)"><path
             d="m 0,0 c 0.141,0.01 0.282,0.019 0.41,0.019 2.102,-0.004 2.717,-1.246 2.883,-1.704 0.023,-0.062 0.04,-0.185 0.04,-0.344 0,-0.648 -0.275,-1.853 -1.16,-2.789 C 1.862,-4.13 0.951,-2.113 0,0 M -2.927,2.525 -2.418,1.312 C -2.521,1.272 -2.582,1.25 -2.583,1.25 -2.584,1.242 -5.651,0.181 -5.67,-2.394 c 0,-0.108 0.004,-0.222 0.019,-0.337 0.255,-2.241 3.099,-2.493 3.101,-2.499 L -2.109,-5.274 -2.458,-5 c 0,0 -0.345,0.271 -0.69,0.673 -0.349,0.403 -0.682,0.934 -0.681,1.411 0,0.013 0.001,0.016 0,0.016 0.011,0.952 0.957,1.965 2.13,2.498 l 2.283,-5.444 c -1.065,-0.421 -2.223,-0.725 -3.298,-0.725 -1.535,0.005 -2.881,0.593 -3.637,2.337 -0.084,0.197 -0.125,0.416 -0.125,0.658 -0.012,1.527 1.666,3.889 3.511,6.056 0.013,0.016 0.027,0.031 0.038,0.045 m 0.176,3.596 c -0.238,0.597 -0.335,1.303 -0.335,2.067 0,1.029 0.178,2.163 0.417,3.273 0.397,1.814 1.271,2.047 1.597,2.053 h 0.011 c 0.021,0 0.038,-0.002 0.051,-0.004 0.01,0.005 0.156,-0.088 0.301,-0.259 0.465,-0.509 1.144,-1.65 1.138,-2.473 C 0.443,10.281 -0.384,9.027 -1.22,7.965 -1.851,7.154 -2.479,6.43 -2.751,6.121 m 5.464,-12.3 c 0.504,0.37 3.065,2.34 3.077,4.925 0,0.481 -0.091,0.98 -0.3,1.488 C 4.883,1.708 3.384,2.135 1.886,2.133 0.943,2.132 -0.015,1.967 -0.804,1.783 c -0.339,0.751 -0.661,1.469 -0.943,2.093 1.43,1.605 2.748,2.982 3.228,3.717 0.407,0.62 0.557,1.348 0.557,2.089 -0.002,1.726 -0.816,3.538 -1.292,4.394 -0.861,1.521 -1.731,2.458 -2.636,2.483 -0.017,10e-4 -0.034,10e-4 -0.053,10e-4 -0.806,0.01 -1.528,-0.305 -2.363,-1.963 -0.631,-1.229 -0.98,-2.472 -0.98,-3.99 0,-0.57 0.049,-1.18 0.149,-1.846 0.314,-2.059 0.923,-3.34 1.104,-3.688 -0.675,-0.557 -5.203,-4.373 -5.219,-8.148 0,-0.585 0.11,-1.169 0.365,-1.736 1.086,-2.416 3.441,-3.049 5.571,-3.045 2.047,10e-4 3.92,0.572 4.386,0.726 0.227,-0.481 1.169,-2.495 1.429,-3.237 0.013,-0.035 0.017,-0.071 0.017,-0.11 0.019,-0.312 -0.491,-0.811 -1.031,-1.175 -0.199,-0.139 -0.396,-0.262 -0.568,-0.363 0.211,0.339 0.44,0.823 0.445,1.332 0,0.202 -0.038,0.408 -0.129,0.607 -0.336,0.712 -1.239,0.992 -2.17,0.994 -0.584,0 -1.188,-0.113 -1.693,-0.327 -1.074,-0.463 -2.031,-1.592 -2.042,-2.587 0,-0.229 0.054,-0.452 0.177,-0.652 0.41,-0.654 1.433,-1.018 2.714,-1.023 0.778,0 1.654,0.141 2.552,0.453 2.181,0.767 3.324,2.156 3.336,3.158 0,0.091 -0.009,0.178 -0.028,0.26 -0.199,0.81 -1.159,3.125 -1.366,3.621"
             style="fill:#231f20;fill-opacity:1;fill-rule:nonzero;stroke:none"
             id="path170"
             inkscape:connector-curvature="0" /></g><g
           id="g172"
           transform="translate(317.0469,153.8999)"><path
             d="M 0,0 C 0,-0.01 0.004,-0.032 0.018,-0.067 0.02,-0.094 0.075,-0.155 0.197,-0.216 0.315,-0.28 0.468,-0.333 0.613,-0.434 0.703,-0.497 0.826,-0.625 0.826,-0.811 V -0.834 C 0.81,-1.031 0.689,-1.137 0.598,-1.211 0.501,-1.286 0.397,-1.344 0.302,-1.405 0.104,-1.528 -0.023,-1.645 -0.039,-1.77 -0.042,-1.79 -0.045,-1.813 -0.045,-1.836 -0.048,-1.94 -0.001,-2.051 0.06,-2.151 l 0.722,0.416 c 0,0 0.044,0.025 0.117,0.073 0.073,0.05 0.17,0.123 0.265,0.21 0.194,0.174 0.35,0.406 0.343,0.567 0,0.028 -0.005,0.057 -0.012,0.085 C 1.481,-0.649 1.101,-0.369 0.69,-0.213 0.414,-0.097 0.145,-0.016 0.005,0.021 0.003,0.018 0.002,0.013 0,0 M 0.246,-2.377 C 0.279,-2.41 0.295,-2.421 0.295,-2.421 l 0.336,-0.258 -0.383,-0.18 c 0,0 -0.016,-0.006 -0.053,-0.03 -0.038,-0.024 -0.091,-0.063 -0.139,-0.109 -0.102,-0.1 -0.184,-0.224 -0.184,-0.394 0,-0.022 0.001,-0.047 0.006,-0.077 -0.002,-0.034 0.067,-0.15 0.216,-0.266 0.145,-0.116 0.35,-0.234 0.555,-0.332 0.041,-0.022 0.085,-0.042 0.128,-0.061 -0.075,0.131 -0.146,0.262 -0.205,0.374 -0.067,0.15 -0.119,0.211 -0.135,0.386 0.001,0.032 0.003,0.074 0.027,0.12 l -0.001,0.002 c 0.001,10e-4 0.002,0.002 0.003,0.006 0.004,0.005 0.007,0.01 0.009,0.014 v -10e-4 c 0.061,0.098 0.1,0.102 0.134,0.129 0.037,0.021 0.073,0.035 0.112,0.053 0.076,0.032 0.168,0.066 0.266,0.108 0.192,0.08 0.41,0.187 0.523,0.291 0.077,0.071 0.09,0.115 0.09,0.14 -0.001,0.003 -0.001,0.006 0,0.002 C 1.596,-2.459 1.587,-2.439 1.538,-2.395 1.49,-2.355 1.4,-2.312 1.304,-2.282 1.109,-2.224 0.905,-2.215 0.903,-2.217 L 0.087,-2.193 C 0.14,-2.271 0.2,-2.337 0.246,-2.377 M 1.305,-4.89 c -0.013,0.007 -0.957,0.301 -1.533,0.754 -0.187,0.153 -0.361,0.329 -0.404,0.593 -0.009,0.05 -0.012,0.101 -0.012,0.151 0.011,0.391 0.206,0.647 0.381,0.803 -0.138,0.169 -0.287,0.421 -0.297,0.753 0,0.049 0.004,0.103 0.014,0.155 0.06,0.337 0.298,0.531 0.491,0.659 0.124,0.08 0.243,0.154 0.314,0.201 -0.04,0.023 -0.093,0.047 -0.153,0.076 -0.177,0.092 -0.453,0.188 -0.577,0.505 -0.027,0.081 -0.044,0.162 -0.044,0.24 -0.002,0.202 0.11,0.359 0.206,0.435 0.098,0.078 0.182,0.102 0.202,0.109 L -0.042,0.566 0.025,0.549 C 0.033,0.545 0.444,0.45 0.89,0.263 1.329,0.066 1.837,-0.168 1.994,-0.668 2.013,-0.741 2.022,-0.815 2.021,-0.885 2.014,-1.299 1.757,-1.6 1.53,-1.814 1.644,-1.857 1.761,-1.916 1.868,-1.999 1.998,-2.104 2.111,-2.279 2.114,-2.495 V -2.506 C 2.097,-2.916 1.776,-3.111 1.519,-3.257 1.338,-3.354 1.146,-3.429 1.014,-3.482 1.02,-3.495 1.024,-3.507 1.032,-3.52 1.093,-3.64 1.177,-3.791 1.264,-3.939 1.433,-4.234 1.604,-4.508 1.604,-4.51 l 0.372,-0.598 z"
             style="fill:#ffffff;fill-opacity:1;fill-rule:nonzero;stroke:none"
             id="path174"
             inkscape:connector-curvature="0" /></g><g
           id="g176"
           transform="translate(317.0146,154.1973)"><path
             d="m 0,0 c 0,0 1.606,-0.383 1.776,-1.031 0.172,-0.651 -0.833,-1.225 -0.833,-1.225 0,0 0.931,-0.027 0.947,-0.536 0.015,-0.512 -1.112,-0.759 -1.161,-0.861 -0.047,-0.102 0.688,-1.291 0.688,-1.291 0,0 -1.676,0.544 -1.763,1.14 -0.085,0.596 0.516,0.879 0.516,0.879 0,0 -0.516,0.4 -0.43,0.905 0.087,0.505 0.845,0.624 0.86,0.902 0.016,0.28 -0.67,0.311 -0.795,0.666 C -0.317,-0.097 0,0 0,0"
             style="fill:#231f20;fill-opacity:1;fill-rule:nonzero;stroke:none"
             id="path178"
             inkscape:connector-curvature="0" /></g><g
           id="g180"
           transform="translate(312.3301,152.5645)"><path
             d="m 0,0 c -0.497,-0.204 -0.918,-0.465 -1.204,-0.723 -0.291,-0.254 -0.42,-0.51 -0.413,-0.621 0.002,-0.026 0.007,-0.046 0.013,-0.065 0.012,-0.075 0.226,-0.211 0.647,-0.207 0.399,0 0.936,0.109 1.485,0.337 0.495,0.203 0.918,0.466 1.202,0.724 0.291,0.255 0.422,0.512 0.414,0.621 0,0.026 -0.006,0.047 -0.012,0.063 C 2.118,0.207 1.904,0.343 1.486,0.338 H 1.482 C 1.082,0.338 0.547,0.228 0,0 m -2.053,-0.738 c -0.442,-0.415 -0.661,-0.831 -0.654,-1.074 10e-4,-0.065 0.012,-0.116 0.035,-0.166 0.074,-0.191 0.415,-0.365 1.004,-0.363 0.575,-10e-4 1.337,0.161 2.13,0.485 -0.512,-0.182 -1.001,-0.274 -1.419,-0.276 -0.487,0.005 -0.936,0.114 -1.123,0.527 -0.034,0.084 -0.052,0.172 -0.051,0.261 0.008,0.378 0.246,0.696 0.583,1.005 0.058,0.052 0.12,0.103 0.185,0.155 -0.264,-0.181 -0.498,-0.369 -0.69,-0.554 m -1.088,-1.456 c -0.056,0.122 -0.081,0.254 -0.081,0.382 0.009,0.499 0.328,0.977 0.811,1.447 0.49,0.468 1.168,0.92 1.964,1.282 0.954,0.436 1.888,0.66 2.638,0.66 H 2.217 L 1.642,9.224 2.926,9.32 3.545,1.106 C 3.591,1.052 3.635,0.988 3.669,0.915 L 3.434,0.807 3.199,0.701 C 3.185,0.735 3.157,0.771 3.114,0.815 L 3.044,0.882 2.45,8.768 2.194,8.749 2.776,1.018 2.469,1.049 C 2.382,1.057 2.289,1.062 2.191,1.062 1.615,1.062 0.855,0.903 0.065,0.578 0.576,0.76 1.066,0.853 1.486,0.853 1.971,0.849 2.42,0.739 2.608,0.326 2.645,0.24 2.66,0.152 2.66,0.066 2.65,-0.31 2.411,-0.631 2.076,-0.938 2.015,-0.994 1.949,-1.05 1.88,-1.102 c 0.267,0.184 0.505,0.373 0.702,0.56 0.44,0.417 0.66,0.833 0.651,1.075 0,0.066 -0.012,0.119 -0.034,0.168 L 3.434,0.807 3.669,0.915 C 3.723,0.795 3.748,0.664 3.748,0.533 3.741,0.037 3.423,-0.444 2.938,-0.914 2.449,-1.382 1.771,-1.833 0.976,-2.197 0.02,-2.631 -0.917,-2.857 -1.668,-2.858 c -0.658,0.003 -1.231,0.168 -1.473,0.664"
             style="fill:#ffffff;fill-opacity:1;fill-rule:nonzero;stroke:none"
             id="path182"
             inkscape:connector-curvature="0" /></g><g
           id="g184"
           transform="translate(312.9561,151.0459)"><path
             d="m 0,0 c -1.162,-0.479 -2.267,-0.474 -2.468,0.012 -0.2,0.486 0.582,1.265 1.743,1.746 C 0.438,2.237 1.543,2.231 1.745,1.746 1.944,1.26 1.163,0.477 0,0 M 2.808,2.325 C 2.774,2.398 2.726,2.461 2.669,2.515 L 2.062,10.562 1.292,10.505 1.869,2.823 C 1.141,2.897 0.1,2.689 -0.965,2.202 -2.716,1.404 -3.866,0.164 -3.53,-0.568 c 0.331,-0.73 2.021,-0.675 3.772,0.125 1.751,0.797 2.9,2.037 2.566,2.768"
             style="fill:#231f20;fill-opacity:1;fill-rule:nonzero;stroke:none"
             id="path186"
             inkscape:connector-curvature="0" /></g><g
           id="g188"
           transform="translate(336.0732,155.4419)"><path
             d="M 0,0 C -0.497,-0.223 -0.916,-0.505 -1.199,-0.779 -1.488,-1.05 -1.62,-1.32 -1.612,-1.443 c 0,-0.035 0.006,-0.059 0.016,-0.082 0.01,-0.024 0.028,-0.047 0.06,-0.073 l 0.089,-0.071 0.329,-5.224 0.259,0.016 -0.326,5.142 0.267,0.007 c 0.414,0.013 0.961,0.145 1.522,0.399 0.497,0.225 0.916,0.507 1.198,0.78 0.289,0.271 0.421,0.541 0.414,0.666 0,0.033 -0.009,0.059 -0.015,0.081 H 2.2 C 2.176,0.282 1.978,0.403 1.587,0.401 H 1.581 C 1.164,0.401 0.585,0.27 0,0 m -1.948,-1.917 c -0.046,0.052 -0.087,0.111 -0.118,0.178 -0.044,0.095 -0.063,0.197 -0.063,0.296 0.008,0.375 0.239,0.711 0.572,1.035 0.336,0.324 0.798,0.632 1.344,0.879 0.644,0.293 1.278,0.445 1.8,0.446 C 2.048,0.914 2.478,0.801 2.669,0.411 L 2.434,0.304 2.67,0.41 C 2.711,0.317 2.729,0.217 2.729,0.117 2.724,-0.26 2.494,-0.594 2.16,-0.919 1.823,-1.244 1.359,-1.552 0.817,-1.8 0.309,-2.03 -0.192,-2.173 -0.639,-2.224 L -0.314,-7.36 -1.6,-7.441 Z"
             style="fill:#ffffff;fill-opacity:1;fill-rule:nonzero;stroke:none"
             id="path190"
             inkscape:connector-curvature="0" /></g><g
           id="g192"
           transform="translate(338.5068,155.7456)"><path
             d="M 0,0 C -0.227,0.498 -1.362,0.467 -2.541,-0.067 -3.72,-0.602 -4.489,-1.439 -4.264,-1.935 -4.234,-2 -4.19,-2.057 -4.13,-2.104 l 0.338,-5.367 0.771,0.049 -0.323,5.132 c 0.459,0.015 1.033,0.155 1.621,0.421 C -0.545,-1.333 0.226,-0.497 0,0"
             style="fill:#231f20;fill-opacity:1;fill-rule:nonzero;stroke:none"
             id="path194"
             inkscape:connector-curvature="0" /></g><g
           id="g196"
           transform="translate(351.0703,171.085)"><path
             d="m 0,0 c -1.567,-12.05 -5.711,-26.009 -11.381,-35.956 -17.554,-31.233 -36.257,-37.407 -36.257,-37.407 0,0 -18.705,6.174 -36.259,37.407 -5.67,9.947 -9.814,23.906 -11.379,35.956 -2.116,16.256 -1.211,30.265 -1.211,30.265 0,0 7.466,-7.991 23.001,-7.627 15.538,0.363 25.848,8.717 25.848,8.717 0,0 10.31,-8.354 25.847,-8.717 C -6.254,22.274 1.211,30.265 1.211,30.265 1.211,30.265 2.115,16.256 0,0 M 3.747,30.43 3.368,36.3 -0.647,32.002 c -0.144,-0.147 -1.824,-1.821 -5.064,-3.467 -3.333,-1.689 -8.294,-3.363 -15.059,-3.365 -0.317,0 -0.639,0.003 -0.963,0.011 -7.322,0.17 -13.442,2.231 -17.723,4.251 -2.14,1.01 -3.815,2.008 -4.94,2.743 -0.564,0.368 -0.989,0.667 -1.266,0.871 -0.137,0.101 -0.239,0.179 -0.303,0.228 -0.03,0.024 -0.054,0.042 -0.065,0.052 -0.003,0.002 -0.008,0.003 -0.009,0.005 l -0.003,0.003 -1.598,1.294 -1.595,-1.294 h -10e-4 c -0.04,-0.033 -2.519,-2.009 -6.786,-3.996 -4.272,-1.991 -10.316,-3.989 -17.523,-4.157 -0.326,-0.008 -0.648,-0.013 -0.965,-0.013 -6.98,0.004 -12.044,1.789 -15.373,3.53 -1.663,0.872 -2.886,1.737 -3.676,2.365 -0.395,0.314 -0.681,0.569 -0.86,0.734 -0.088,0.084 -0.152,0.145 -0.187,0.181 -0.01,0.009 -0.018,0.018 -0.025,0.024 l -4.013,4.296 -0.381,-5.868 c -0.002,-0.044 -0.197,-3.072 -0.197,-7.939 0,-5.694 0.264,-13.906 1.422,-22.819 1.622,-12.369 5.8,-26.519 11.694,-36.887 17.845,-31.787 37.179,-38.421 37.671,-38.563 l 0.795,-0.264 0.797,0.264 c 0.493,0.142 19.826,6.776 37.679,38.576 C -3.278,-26.847 0.9,-12.697 2.521,-0.328 3.679,8.585 3.944,16.797 3.945,22.491 3.944,27.358 3.75,30.386 3.747,30.43"
             style="fill:#0c2950;fill-opacity:1;fill-rule:nonzero;stroke:none"
             id="path198"
             inkscape:connector-curvature="0" /></g><g
           id="g200"
           transform="translate(157.6699,66.1387)"><path
             d="m 0,0 c 0,0 -1.466,-5.502 -9.165,-6.756 -5.758,-0.941 -6.861,2.145 -6.941,3.559 -0.168,2.981 2.421,5.402 5.405,5.402 0.74,0 1.443,-0.148 2.086,-0.418 -1.248,-0.173 -2.21,-1.244 -2.21,-2.541 0,-1.417 1.153,-2.67 2.566,-2.566 2.393,0.176 2.417,3.557 2.157,3.957 -0.875,3.029 -3.664,5.244 -6.974,5.244 -4.011,0 -7.262,-3.25 -7.262,-7.261 0,-3.625 2.654,-6.628 6.123,-7.175 0.892,-0.258 3.021,-0.564 7.51,0.121 4.872,0.745 7.071,2.569 7.071,2.569 z"
             style="fill:#0c2950;fill-opacity:1;fill-rule:nonzero;stroke:none"
             id="path202"
             inkscape:connector-curvature="0" /></g><g
           id="g204"
           transform="translate(155.6528,87.707)"><path
             d="M 0,0 C 0,0 -0.77,2.878 -4.801,3.538 -7.816,4.03 -8.394,2.414 -8.436,1.674 c -0.088,-1.563 1.268,-2.83 2.831,-2.83 0.386,0 0.757,0.078 1.092,0.218 -0.652,0.093 -1.157,0.653 -1.157,1.333 0,0.74 0.603,1.397 1.345,1.343 1.253,-0.092 1.264,-1.861 1.128,-2.074 -0.457,-1.586 -1.919,-2.744 -3.652,-2.744 -2.1,0 -3.805,1.703 -3.805,3.803 0,1.899 1.391,3.469 3.208,3.756 0.467,0.136 1.583,0.298 3.935,-0.062 C -0.96,4.025 0.191,3.072 0.191,3.072 Z"
             style="fill:#0c2950;fill-opacity:1;fill-rule:nonzero;stroke:none"
             id="path206"
             inkscape:connector-curvature="0" /></g><g
           id="g208"
           transform="translate(453.6025,66.1387)"><path
             d="m 0,0 c 0,0 1.465,-5.502 9.164,-6.756 5.758,-0.941 6.861,2.145 6.94,3.559 0.168,2.981 -2.418,5.402 -5.403,5.402 -0.741,0 -1.444,-0.148 -2.087,-0.418 1.248,-0.173 2.21,-1.244 2.21,-2.541 0,-1.417 -1.152,-2.67 -2.566,-2.566 -2.392,0.176 -2.415,3.557 -2.155,3.957 0.874,3.029 3.664,5.244 6.972,5.244 4.012,0 7.264,-3.25 7.264,-7.261 0,-3.625 -2.654,-6.628 -6.125,-7.175 -0.89,-0.258 -3.019,-0.564 -7.51,0.121 -4.872,0.745 -7.072,2.569 -7.072,2.569 z"
             style="fill:#0c2950;fill-opacity:1;fill-rule:nonzero;stroke:none"
             id="path210"
             inkscape:connector-curvature="0" /></g><g
           id="g212"
           transform="translate(453.1895,79.3145)"><path
             d="M 0,0 C 0,0 0.771,2.877 4.802,3.537 7.816,4.029 8.396,2.411 8.438,1.671 8.526,0.111 7.171,-1.158 5.606,-1.158 c -0.385,0 -0.753,0.08 -1.092,0.22 0.653,0.09 1.157,0.651 1.157,1.331 0,0.743 -0.605,1.396 -1.344,1.344 C 3.073,1.643 3.062,-0.125 3.198,-0.336 3.656,-1.922 5.117,-3.082 6.85,-3.082 c 2.101,0 3.804,1.705 3.804,3.803 0,1.898 -1.39,3.47 -3.207,3.758 C 6.98,4.615 5.864,4.776 3.512,4.416 0.962,4.025 -0.191,3.07 -0.191,3.07 Z"
             style="fill:#0c2950;fill-opacity:1;fill-rule:nonzero;stroke:none"
             id="path214"
             inkscape:connector-curvature="0" /></g><g
           id="g216"
           transform="translate(215.6826,52.9824)"><path
             d="M 0,0 V -5.424 H -1.057 V -15.539 H 0 v -5.67 h -4.926 v 5.67 h 0.902 v 11.577 l -2.424,-17.247 h -1.228 l -2.626,17.092 v -11.422 h 1.041 v -5.67 h -4.287 v 5.67 h 1.024 v 10.115 h -1.024 V 0 h 5.423 L -6.728,-9.711 -5.314,0 Z"
             style="fill:#0c2950;fill-opacity:1;fill-rule:nonzero;stroke:none"
             id="path218"
             inkscape:connector-curvature="0" /></g><path
           d="m 222.92,49.422 h -2.221 v 3.561 h 2.221 z m 0.141,-1.863 V 36.23 h 0.916 v -4.457 h -3.978 v 4.457 h 0.839 v 7.088 h -0.839 v 4.241 z"
           style="fill:#0c2950;fill-opacity:1;fill-rule:nonzero;stroke:none"
           id="path220"
           inkscape:connector-curvature="0" /><g
           id="g222"
           transform="translate(230.9971,36.2305)"><path
             d="M 0,0 H 0.9 V -4.457 H -3.078 V 0 h 0.856 v 12.51 h -0.856 v 4.242 H 0 Z"
             style="fill:#0c2950;fill-opacity:1;fill-rule:nonzero;stroke:none"
             id="path224"
             inkscape:connector-curvature="0" /></g><path
           d="m 238.905,49.422 h -2.223 v 3.561 h 2.223 z m 0.139,-1.863 V 36.23 h 0.917 v -4.457 h -3.977 v 4.457 h 0.839 v 7.088 h -0.839 v 4.241 z"
           style="fill:#0c2950;fill-opacity:1;fill-rule:nonzero;stroke:none"
           id="path226"
           inkscape:connector-curvature="0" /><g
           id="g228"
           transform="translate(248.1016,47.5586)"><path
             d="m 0,0 v -4.24 h -1.447 v -5.393 l 0.016,-0.793 c 0,-0.89 0.296,-1.334 0.887,-1.334 0.257,0 0.579,0.133 0.962,0.405 v -4.243 c -0.735,-0.269 -1.295,-0.406 -1.679,-0.406 -1.637,0 -2.454,1.234 -2.454,3.699 l 0.03,1.012 0.017,1.025 V -4.24 H -4.507 V 0 c 1.316,0.734 2.046,2.045 2.192,3.932 l 0.061,0.681 c 0,0.033 0.009,0.12 0.031,0.265 h 0.776 l 0,-4.878 z"
             style="fill:#0c2950;fill-opacity:1;fill-rule:nonzero;stroke:none"
             id="path230"
             inkscape:connector-curvature="0" /></g><g
           id="g232"
           transform="translate(256.5195,39.4648)"><path
             d="m 0,0 c -1.264,-0.623 -1.896,-1.354 -1.896,-2.191 0,-0.727 0.305,-1.088 0.917,-1.088 0.652,0 0.979,0.634 0.979,1.912 z m 3.247,-3.125 v -4.379 c -0.436,-0.26 -0.865,-0.389 -1.291,-0.389 -0.911,0 -1.563,0.497 -1.956,1.491 -0.354,-0.994 -0.939,-1.491 -1.757,-1.491 -1.472,0 -2.207,1.756 -2.207,5.266 0,1.846 0.85,3.238 2.549,4.18 0.859,0.467 1.29,0.968 1.29,1.508 0,0.671 -0.26,1.007 -0.778,1.007 -0.549,0 -0.823,-0.403 -0.823,-1.211 0,-0.166 0.026,-0.414 0.078,-0.744 h -2.128 c -0.156,0.684 -0.234,1.479 -0.234,2.392 0,2.538 1.077,3.806 3.231,3.806 1.999,0 3,-1.309 3,-3.928 V 3.121 -1.383 c 0,-1.265 0.217,-1.896 0.652,-1.896 0.083,0 0.206,0.052 0.374,0.154"
             style="fill:#0c2950;fill-opacity:1;fill-rule:nonzero;stroke:none"
             id="path234"
             inkscape:connector-curvature="0" /></g><g
           id="g236"
           transform="translate(263.7095,47.5586)"><path
             d="m 0,0 h 3.044 v -1.91 c 0.331,1.42 0.845,2.127 1.539,2.127 1.067,0 1.602,-1.223 1.602,-3.666 0,-1.604 -0.059,-2.961 -0.171,-4.069 H 4.21 c 0.083,0.598 0.125,1.024 0.125,1.272 0,1.482 -0.249,2.221 -0.746,2.221 -0.364,0 -0.545,-0.67 -0.545,-2.02 v -5.283 h 0.934 v -4.457 H 0 v 4.457 H 0.822 V -4.24 L 0,-4.24 Z"
             style="fill:#0c2950;fill-opacity:1;fill-rule:nonzero;stroke:none"
             id="path238"
             inkscape:connector-curvature="0" /></g><g
           id="g240"
           transform="translate(281.2324,47.5586)"><path
             d="m 0,0 v -4.24 h -0.761 l -1.725,-12.182 c -0.488,-3.367 -1.467,-5.051 -2.937,-5.051 -1.512,0 -2.268,1.047 -2.268,3.141 0,0.703 0.057,1.441 0.171,2.221 h 1.475 c -0.039,-0.291 -0.062,-0.539 -0.062,-0.746 0,-0.633 0.219,-0.95 0.653,-0.95 0.393,0 0.694,0.565 0.901,1.696 L -6.867,-4.24 H -7.676 V 0 h 3.761 v -4.24 h -0.793 l 1.367,-6.869 0.855,6.869 H -3.341 V 0 Z"
             style="fill:#0c2950;fill-opacity:1;fill-rule:nonzero;stroke:none"
             id="path242"
             inkscape:connector-curvature="0" /></g><g
           id="g244"
           transform="translate(296.5029,51.7695)"><path
             d="M 0,0 V 1.213 H 2.656 V -7.27 H 0 v 0.387 c 0,1.742 -0.353,2.611 -1.057,2.611 -0.487,0 -0.785,-0.288 -0.893,-0.863 -0.109,-0.575 -0.165,-2.187 -0.165,-4.842 0,-2.908 0.354,-4.363 1.058,-4.363 0.653,0 0.979,0.807 0.979,2.422 v 0.918 0.762 h 2.92 c 0.103,-1.129 0.155,-2.27 0.155,-3.42 0,-4.453 -1.346,-6.68 -4.039,-6.68 -1.834,0 -3,0.637 -3.503,1.91 -0.502,1.276 -0.753,4.221 -0.753,8.842 0,4.474 0.211,7.449 0.635,8.925 0.425,1.477 1.281,2.214 2.565,2.214 C -1.156,1.553 -0.457,1.035 0,0"
             style="fill:#0c2950;fill-opacity:1;fill-rule:nonzero;stroke:none"
             id="path246"
             inkscape:connector-curvature="0" /></g><g
           id="g248"
           transform="translate(307.9814,38.9668)"><path
             d="m 0,0 v 1.926 l -0.015,0.701 v 0.635 c 0,0.873 -0.309,1.304 -0.932,1.304 -0.653,0 -0.981,-0.92 -0.981,-2.763 v -2.02 c 0,-1.701 0.317,-2.547 0.949,-2.547 C -0.324,-2.764 0,-1.844 0,0 m -4.15,-2.004 v 5.111 c 0,2.289 0.212,3.813 0.632,4.569 0.419,0.756 1.271,1.133 2.554,1.133 1.275,0 2.123,-0.386 2.549,-1.163 C 2.009,6.868 2.222,5.301 2.222,2.951 V -1.801 L 2.207,-3.047 c 0,-2.889 -1.073,-4.332 -3.215,-4.332 -2.096,0 -3.142,1.789 -3.142,5.375"
             style="fill:#0c2950;fill-opacity:1;fill-rule:nonzero;stroke:none"
             id="path250"
             inkscape:connector-curvature="0" /></g><g
           id="g252"
           transform="translate(322.6914,36.2305)"><path
             d="M 0,0 V -4.457 H -3.76 V 0 h 0.654 v 4.523 0.559 l -0.017,0.701 c 0,1.015 -0.238,1.52 -0.715,1.52 -0.815,0 -1.227,-0.961 -1.227,-2.887 V 0 h 0.793 V -4.457 H -8.031 V 0 h 0.837 v 7.088 h -0.837 v 4.24 h 2.966 V 9.4 c 0.559,1.433 1.316,2.145 2.27,2.145 1.273,0 1.91,-1.092 1.91,-3.275 V 7.088 l 0,-7.088 z"
             style="fill:#0c2950;fill-opacity:1;fill-rule:nonzero;stroke:none"
             id="path254"
             inkscape:connector-curvature="0" /></g><g
           id="g256"
           transform="translate(332.7881,39.1699)"><path
             d="M 0,0 0.017,-0.436 V -1.18 l 0.03,-1.367 -0.015,-0.824 c 0,-2.809 -0.974,-4.211 -2.922,-4.211 -1.202,0 -2.018,0.484 -2.455,1.453 -0.434,0.967 -0.651,2.797 -0.651,5.492 v 2.873 c 0,4.245 1.017,6.369 3.058,6.369 1.971,0 2.955,-1.552 2.955,-4.661 0,-0.692 -0.064,-1.532 -0.188,-2.516 H -2.05 V 1.957 2.531 2.92 l -0.078,0.855 c -0.083,0.394 -0.311,0.588 -0.685,0.588 -0.568,0 -0.853,-1.224 -0.853,-3.681 0,-2.68 0.28,-4.024 0.838,-4.024 0.538,0 0.809,0.574 0.809,1.725 l -0.016,0.715 -0.015,0.545 V 0 Z"
             style="fill:#0c2950;fill-opacity:1;fill-rule:nonzero;stroke:none"
             id="path258"
             inkscape:connector-curvature="0" /></g><g
           id="g260"
           transform="translate(339.4805,41.0332)"><path
             d="M 0,0 H 1.665 V 1.133 C 1.665,2.047 1.389,2.5 0.84,2.5 0.26,2.5 -0.029,1.951 -0.029,0.855 -0.029,0.629 -0.02,0.342 0,0 m 3.792,-2.484 c 0.072,-0.604 0.109,-1.323 0.109,-2.161 0,-3.203 -0.985,-4.8 -2.951,-4.8 -1.377,0 -2.266,0.537 -2.666,1.617 -0.397,1.074 -0.598,3.482 -0.598,7.223 0,2.847 0.22,4.787 0.66,5.809 0.441,1.026 1.272,1.538 2.494,1.538 1.212,0 2.041,-0.527 2.486,-1.584 C 3.771,4.103 3.994,2.15 3.994,-0.699 L 3.979,-1.754 H 0.048 v -1.57 l 0.049,-0.762 c 0.071,-0.519 0.331,-0.768 0.775,-0.744 0.517,0.019 0.777,0.517 0.777,1.488 v 0.514 l 0.016,0.344 z"
             style="fill:#0c2950;fill-opacity:1;fill-rule:nonzero;stroke:none"
             id="path262"
             inkscape:connector-curvature="0" /></g><g
           id="g264"
           transform="translate(347.8525,47.5586)"><path
             d="m 0,0 h 3.045 v -1.91 c 0.333,1.42 0.846,2.127 1.541,2.127 1.065,0 1.6,-1.223 1.6,-3.666 0,-1.604 -0.057,-2.961 -0.171,-4.069 H 4.211 c 0.082,0.598 0.125,1.024 0.125,1.272 0,1.482 -0.249,2.221 -0.746,2.221 -0.363,0 -0.545,-0.67 -0.545,-2.02 v -5.283 h 0.933 v -4.457 H 0 v 4.457 H 0.825 V -4.24 L 0,-4.24 Z"
             style="fill:#0c2950;fill-opacity:1;fill-rule:nonzero;stroke:none"
             id="path266"
             inkscape:connector-curvature="0" /></g><g
           id="g268"
           transform="translate(362.1768,47.5586)"><path
             d="m 0,0 v -4.24 h -1.444 v -5.393 l 0.016,-0.793 c 0,-0.89 0.295,-1.334 0.882,-1.334 0.26,0 0.581,0.133 0.966,0.405 v -4.243 c -0.734,-0.269 -1.296,-0.406 -1.678,-0.406 -1.639,0 -2.459,1.234 -2.459,3.699 l 0.034,1.012 0.017,1.025 v 6.028 h -0.84 V 0 c 1.316,0.734 2.045,2.045 2.191,3.932 l 0.063,0.681 c 0,0.033 0.008,0.12 0.029,0.265 h 0.779 l 0,-4.878 z"
             style="fill:#0c2950;fill-opacity:1;fill-rule:nonzero;stroke:none"
             id="path270"
             inkscape:connector-curvature="0" /></g><g
           id="g272"
           transform="translate(377.3428,41.5469)"><path
             d="m 0,0 v -4.104 h 0.483 c 0.994,0 1.492,0.747 1.492,2.241 C 1.975,-0.621 1.47,0 0.469,0 Z M 0,6.012 V 2.329 h 0.559 c 0.818,0 1.228,0.624 1.228,1.864 0,1.215 -0.435,1.819 -1.304,1.819 z m -4.008,5.424 H 0 c 1.99,0 3.296,-0.358 3.924,-1.073 C 4.552,9.65 4.865,8.146 4.865,5.856 4.865,4.168 4.695,3.026 4.359,2.43 4.024,1.836 3.321,1.433 2.254,1.227 3.476,0.885 4.247,0.43 4.568,-0.133 4.89,-0.697 5.05,-1.902 5.05,-3.744 5.05,-6.17 4.736,-7.779 4.112,-8.576 3.485,-9.375 2.217,-9.773 0.311,-9.773 h -4.319 v 5.669 h 1.04 V 6.012 h -1.04 z"
             style="fill:#0c2950;fill-opacity:1;fill-rule:nonzero;stroke:none"
             id="path274"
             inkscape:connector-curvature="0" /></g><g
           id="g276"
           transform="translate(390.7646,39.4648)"><path
             d="m 0,0 c -1.264,-0.623 -1.896,-1.354 -1.896,-2.191 0,-0.727 0.304,-1.088 0.916,-1.088 0.653,0 0.98,0.634 0.98,1.912 z m 3.246,-3.125 v -4.379 c -0.434,-0.26 -0.865,-0.389 -1.287,-0.389 -0.913,0 -1.566,0.497 -1.959,1.491 -0.353,-0.994 -0.938,-1.491 -1.757,-1.491 -1.472,0 -2.205,1.756 -2.205,5.266 0,1.846 0.848,3.238 2.546,4.18 0.86,0.467 1.291,0.968 1.291,1.508 0,0.671 -0.259,1.007 -0.777,1.007 -0.549,0 -0.824,-0.403 -0.824,-1.211 0,-0.166 0.027,-0.414 0.08,-0.744 h -2.128 c -0.157,0.684 -0.235,1.479 -0.235,2.392 0,2.538 1.078,3.806 3.234,3.806 1.997,0 2.996,-1.309 2.996,-3.928 V 3.121 -1.383 c 0,-1.265 0.217,-1.896 0.653,-1.896 0.082,0 0.207,0.052 0.372,0.154"
             style="fill:#0c2950;fill-opacity:1;fill-rule:nonzero;stroke:none"
             id="path278"
             inkscape:connector-curvature="0" /></g><g
           id="g280"
           transform="translate(405.9883,36.2305)"><path
             d="M 0,0 V -4.457 H -3.761 V 0 h 0.654 v 4.523 0.559 l -0.017,0.701 c 0,1.015 -0.238,1.52 -0.713,1.52 -0.821,0 -1.229,-0.961 -1.229,-2.887 V 0 h 0.794 V -4.457 H -8.034 V 0 h 0.84 v 7.088 h -0.84 v 4.24 h 2.968 V 9.4 c 0.56,1.433 1.317,2.145 2.268,2.145 1.275,0 1.912,-1.092 1.912,-3.275 V 7.088 l 0,-7.088 z"
             style="fill:#0c2950;fill-opacity:1;fill-rule:nonzero;stroke:none"
             id="path282"
             inkscape:connector-curvature="0" /></g><g
           id="g284"
           transform="translate(413.335,43.5332)"><path
             d="m 0,0 c -0.604,0.043 -0.901,-0.631 -0.901,-2.02 l -0.018,-1.863 v -1.724 c 0,-1.44 0.307,-2.143 0.919,-2.114 0.558,0.033 0.84,1.094 0.84,3.186 C 0.84,-1.551 0.558,-0.039 0,0 M 3.138,9.449 V -7.303 H 3.961 V -11.76 H 1.304 v 1.461 c -0.215,-0.146 -0.404,-0.347 -0.56,-0.607 -0.424,-0.703 -0.998,-1.055 -1.723,-1.055 -1.512,0 -2.269,1.842 -2.269,5.531 v 4.491 c 0,4.121 0.746,6.181 2.236,6.181 0.84,0 1.483,-0.512 1.927,-1.538 V 5.889 H 0.016 v 3.56 z"
             style="fill:#0c2950;fill-opacity:1;fill-rule:nonzero;stroke:none"
             id="path286"
             inkscape:connector-curvature="0" /></g><g
           id="g288"
           transform="translate(167.5298,90.7764)"><path
             d="m 0,0 v -10.989 h -5.271 l -0.088,0.821 c -0.116,1.417 -0.618,2.124 -1.506,2.124 -1.082,0 -1.622,-0.541 -1.622,-1.621 0,-1.234 0.936,-2.307 2.81,-3.221 2.954,-1.463 4.832,-2.799 5.635,-4.01 0.801,-1.21 1.201,-3.332 1.201,-6.361 0,-5.621 -1.815,-8.431 -5.446,-8.431 -1.951,0 -3.516,0.906 -4.693,2.718 v -2.217 h -4.954 v 11.859 h 4.954 v -0.457 c 0,-2.055 0.686,-3.083 2.058,-3.083 1.275,0 1.911,0.721 1.911,2.168 0,1.494 -0.725,2.627 -2.174,3.404 l -2.897,1.576 c -2.897,1.571 -4.345,4.151 -4.345,7.746 0,5.666 1.767,8.498 5.302,8.498 1.757,0 3.148,-0.906 4.171,-2.718 l 0,2.194 z"
             style="fill:#0c2950;fill-opacity:1;fill-rule:nonzero;stroke:none"
             id="path290"
             inkscape:connector-curvature="0" /></g><g
           id="g292"
           transform="translate(182.0303,70.168)"><path
             d="m 0,0 v 2.832 l -0.028,1.029 v 0.938 c 0,1.277 -0.58,1.919 -1.739,1.919 -1.217,0 -1.825,-1.358 -1.825,-4.068 v -2.971 c 0,-2.497 0.589,-3.745 1.767,-3.745 C -0.608,-4.066 0,-2.709 0,0 m -7.734,-2.946 v 7.515 c 0,3.366 0.39,5.605 1.172,6.718 0.783,1.109 2.372,1.668 4.767,1.668 2.375,0 3.958,-0.572 4.752,-1.716 0.79,-1.141 1.186,-3.44 1.186,-6.898 V -2.648 L 4.114,-4.479 c 0,-4.249 -1.998,-6.373 -5.996,-6.373 -3.902,0 -5.852,2.635 -5.852,7.906"
             style="fill:#0c2950;fill-opacity:1;fill-rule:nonzero;stroke:none"
             id="path294"
             inkscape:connector-curvature="0" /></g><g
           id="g296"
           transform="translate(205.1348,82.8027)"><path
             d="m 0,0 v -16.654 h 1.652 v -6.559 h -5.534 v 2.856 c -0.695,-2.086 -1.999,-3.129 -3.911,-3.129 -2.724,0 -4.084,2.101 -4.084,6.304 v 10.944 h -1.594 V 0 h 5.736 v -13.526 c 0,-2.482 0.551,-3.723 1.652,-3.723 1.293,0 1.941,1.599 1.941,4.798 v 1.21 5.003 h -1.68 V 0 Z"
             style="fill:#0c2950;fill-opacity:1;fill-rule:nonzero;stroke:none"
             id="path298"
             inkscape:connector-curvature="0" /></g><g
           id="g300"
           transform="translate(226.8501,66.1484)"><path
             d="M 0,0 V -6.559 H -7.011 V 0 h 1.216 V 6.648 7.47 l -0.029,1.028 c 0,1.49 -0.445,2.239 -1.333,2.239 -1.526,0 -2.289,-1.417 -2.289,-4.251 V 0 h 1.477 v -6.559 h -7.009 V 0 h 1.565 v 10.416 h -1.565 v 6.238 h 5.532 V 13.82 c 1.044,2.104 2.453,3.155 4.231,3.155 2.375,0 3.564,-1.607 3.564,-4.821 V 10.416 L -1.651,0 Z"
             style="fill:#0c2950;fill-opacity:1;fill-rule:nonzero;stroke:none"
             id="path302"
             inkscape:connector-curvature="0" /></g><g
           id="g304"
           transform="translate(238.2773,76.8857)"><path
             d="m 0,0 c -1.118,0.06 -1.68,-0.929 -1.68,-2.972 l -0.028,-2.741 v -2.536 c 0,-2.115 0.57,-3.151 1.708,-3.107 1.044,0.046 1.566,1.608 1.566,4.685 C 1.566,-2.284 1.044,-0.062 0,0 m 5.853,13.891 v -24.628 h 1.536 v -6.559 H 2.435 v 2.149 c -0.405,-0.216 -0.753,-0.51 -1.043,-0.891 -0.792,-1.035 -1.865,-1.555 -3.217,-1.555 -2.819,0 -4.228,2.711 -4.228,8.135 v 6.602 c 0,6.061 1.39,9.093 4.171,9.093 1.565,0 2.762,-0.754 3.593,-2.263 V 8.657 H 0.03 v 5.234 z"
             style="fill:#0c2950;fill-opacity:1;fill-rule:nonzero;stroke:none"
             id="path306"
             inkscape:connector-curvature="0" /></g><g
           id="g308"
           transform="translate(261.5864,82.8027)"><path
             d="m 0,0 v -8.979 h -3.362 v 0.617 c 0,1.614 -0.724,2.421 -2.173,2.421 -1.14,0 -1.709,-0.447 -1.709,-1.349 0,-0.745 0.503,-1.346 1.507,-1.806 l 2.174,-0.978 c 2.838,-1.311 4.257,-3.362 4.257,-6.147 0,-4.859 -1.382,-7.289 -4.143,-7.289 -1.836,0 -3.119,0.815 -3.852,2.446 v -2.149 h -3.362 v 9.504 h 3.362 v -0.457 c 0,-2.07 0.656,-3.107 1.97,-3.107 1.177,0 1.768,0.535 1.768,1.601 0,1.173 -0.678,2.079 -2.029,2.716 l -1.42,0.686 c -2.722,1.295 -4.084,3.381 -4.084,6.26 0,4.205 1.322,6.307 3.968,6.307 1.681,0 2.935,-0.848 3.766,-2.536 V 0 Z"
             style="fill:#0c2950;fill-opacity:1;fill-rule:nonzero;stroke:none"
             id="path310"
             inkscape:connector-curvature="0" /></g><g
           id="g312"
           transform="translate(285.4932,70.168)"><path
             d="m 0,0 v 2.832 l -0.031,1.029 v 0.938 c 0,1.277 -0.577,1.919 -1.738,1.919 -1.216,0 -1.824,-1.358 -1.824,-4.068 v -2.971 c 0,-2.497 0.59,-3.745 1.766,-3.745 C -0.608,-4.066 0,-2.709 0,0 m -7.735,-2.946 v 7.515 c 0,3.366 0.391,5.605 1.172,6.718 0.783,1.109 2.371,1.668 4.766,1.668 2.376,0 3.96,-0.572 4.751,-1.716 0.792,-1.141 1.188,-3.44 1.188,-6.898 V -2.648 L 4.114,-4.479 c 0,-4.249 -1.999,-6.373 -5.997,-6.373 -3.903,0 -5.852,2.635 -5.852,7.906"
             style="fill:#0c2950;fill-opacity:1;fill-rule:nonzero;stroke:none"
             id="path314"
             inkscape:connector-curvature="0" /></g><g
           id="g316"
           transform="translate(304.7729,90.6387)"><path
             d="m 0,0 v -5.049 c -0.542,0.138 -0.996,0.204 -1.361,0.204 -1.565,0 -2.347,-0.647 -2.347,-1.94 0,-0.274 0.066,-0.627 0.202,-1.051 h 2.668 v -6.238 H -3.911 V -24.49 h 2.261 v -6.559 h -7.998 v 6.559 h 1.595 v 10.416 h -1.595 v 6.238 h 1.595 c -0.271,1.127 -0.406,2.141 -0.406,3.037 0,3.566 1.69,5.348 5.07,5.348 C -2.25,0.549 -1.12,0.364 0,0"
             style="fill:#0c2950;fill-opacity:1;fill-rule:nonzero;stroke:none"
             id="path318"
             inkscape:connector-curvature="0" /></g><g
           id="g320"
           transform="translate(338.2168,90.7764)"><path
             d="m 0,0 v -12.817 h -4.953 v 4.843 h -3.565 v -6.214 h 4.839 v -3.199 h -4.839 v -5.46 h 2.173 v -8.34 h -9.589 v 8.34 h 1.883 v 14.873 h -1.883 V 0 Z"
             style="fill:#0c2950;fill-opacity:1;fill-rule:nonzero;stroke:none"
             id="path322"
             inkscape:connector-curvature="0" /></g><g
           id="g324"
           transform="translate(343.417,82.8027)"><path
             d="m 0,0 h 5.68 v -2.81 c 0.616,2.087 1.571,3.13 2.868,3.13 1.988,0 2.983,-1.799 2.983,-5.392 0,-2.363 -0.106,-4.357 -0.319,-5.987 h -3.36 c 0.155,0.883 0.232,1.508 0.232,1.874 0,2.177 -0.464,3.268 -1.391,3.268 -0.674,0 -1.013,-0.991 -1.013,-2.972 v -7.765 h 1.739 v -6.559 H 0 v 6.559 h 1.536 v 10.416 l -1.536,0 z"
             style="fill:#0c2950;fill-opacity:1;fill-rule:nonzero;stroke:none"
             id="path326"
             inkscape:connector-curvature="0" /></g><g
           id="g328"
           transform="translate(364.6387,73.207)"><path
             d="M 0,0 H 3.103 V 1.666 C 3.103,3.008 2.588,3.679 1.565,3.679 0.483,3.679 -0.057,2.87 -0.057,1.256 -0.057,0.92 -0.039,0.5 0,0 m 7.069,-3.655 c 0.136,-0.884 0.202,-1.943 0.202,-3.176 0,-4.706 -1.834,-7.06 -5.503,-7.06 -2.569,0 -4.227,0.791 -4.969,2.375 -0.744,1.584 -1.115,5.125 -1.115,10.623 0,4.19 0.411,7.039 1.232,8.545 0.818,1.51 2.37,2.264 4.649,2.264 2.259,0 3.804,-0.778 4.636,-2.333 C 7.029,6.031 7.446,3.16 7.446,-1.028 L 7.418,-2.58 H 0.086 V -4.891 L 0.174,-6.01 c 0.135,-0.761 0.62,-1.127 1.448,-1.095 0.966,0.031 1.448,0.761 1.448,2.193 v 0.754 l 0.033,0.503 z"
             style="fill:#0c2950;fill-opacity:1;fill-rule:nonzero;stroke:none"
             id="path330"
             inkscape:connector-curvature="0" /></g><g
           id="g332"
           transform="translate(382.5869,73.207)"><path
             d="M 0,0 H 3.101 V 1.666 C 3.101,3.008 2.59,3.679 1.563,3.679 0.483,3.679 -0.058,2.87 -0.058,1.256 -0.058,0.92 -0.039,0.5 0,0 m 7.068,-3.655 c 0.134,-0.884 0.203,-1.943 0.203,-3.176 0,-4.706 -1.835,-7.06 -5.502,-7.06 -2.571,0 -4.227,0.791 -4.97,2.375 -0.745,1.584 -1.116,5.125 -1.116,10.623 0,4.19 0.412,7.039 1.232,8.545 0.819,1.51 2.372,2.264 4.648,2.264 2.262,0 3.805,-0.778 4.639,-2.333 C 7.029,6.031 7.445,3.16 7.445,-1.028 L 7.417,-2.58 H 0.086 V -4.891 L 0.173,-6.01 c 0.137,-0.761 0.617,-1.127 1.449,-1.095 0.968,0.031 1.447,0.761 1.447,2.193 v 0.754 l 0.032,0.503 z"
             style="fill:#0c2950;fill-opacity:1;fill-rule:nonzero;stroke:none"
             id="path334"
             inkscape:connector-curvature="0" /></g><g
           id="g336"
           transform="translate(402.2725,76.8857)"><path
             d="m 0,0 c -1.12,0.06 -1.68,-0.929 -1.68,-2.972 l -0.028,-2.741 v -2.536 c 0,-2.115 0.569,-3.151 1.708,-3.107 1.044,0.046 1.564,1.608 1.564,4.685 C 1.564,-2.284 1.044,-0.062 0,0 m 5.854,13.891 v -24.628 h 1.535 v -6.559 H 2.434 v 2.149 c -0.407,-0.216 -0.754,-0.51 -1.044,-0.891 -0.792,-1.035 -1.863,-1.555 -3.213,-1.555 -2.822,0 -4.234,2.711 -4.234,8.135 v 6.602 c 0,6.061 1.393,9.093 4.173,9.093 1.567,0 2.763,-0.754 3.594,-2.263 V 8.657 H 0.029 v 5.234 z"
             style="fill:#0c2950;fill-opacity:1;fill-rule:nonzero;stroke:none"
             id="path338"
             inkscape:connector-curvature="0" /></g><g
           id="g340"
           transform="translate(424.0908,70.168)"><path
             d="m 0,0 v 2.832 l -0.028,1.029 v 0.938 c 0,1.277 -0.58,1.919 -1.74,1.919 -1.216,0 -1.825,-1.358 -1.825,-4.068 v -2.971 c 0,-2.497 0.588,-3.745 1.767,-3.745 C -0.608,-4.066 0,-2.709 0,0 m -7.736,-2.946 v 7.515 c 0,3.366 0.392,5.605 1.174,6.718 0.783,1.109 2.37,1.668 4.764,1.668 2.377,0 3.961,-0.572 4.752,-1.716 0.791,-1.141 1.191,-3.44 1.191,-6.898 V -2.648 L 4.112,-4.479 c 0,-4.249 -1.997,-6.373 -5.995,-6.373 -3.902,0 -5.853,2.635 -5.853,7.906"
             style="fill:#0c2950;fill-opacity:1;fill-rule:nonzero;stroke:none"
             id="path342"
             inkscape:connector-curvature="0" /></g><g
           id="g344"
           transform="translate(456.4941,66.1484)"><path
             d="M 0,0 V -6.559 H -7.011 V 0 h 1.305 v 6.211 1.236 l -0.028,1.121 c 0,1.444 -0.506,2.169 -1.509,2.169 -1.178,0 -1.766,-1.561 -1.766,-4.684 V 0 h 1.041 v -6.559 h -6.516 V 0 h 1.332 V 6.257 8.36 c 0,1.585 -0.503,2.377 -1.507,2.377 -1.354,0 -2.027,-1.385 -2.027,-4.157 V 0 h 1.477 v -6.559 h -7.012 V 0 h 1.506 v 10.416 h -1.506 v 6.238 h 5.535 v -1.943 c 0.963,1.51 2.191,2.264 3.678,2.264 1.834,0 3.041,-0.754 3.622,-2.264 l 0.346,0.481 c 0.812,1.187 1.934,1.783 3.362,1.783 2.742,0 4.114,-2.012 4.114,-6.034 L -1.564,0 Z"
             style="fill:#0c2950;fill-opacity:1;fill-rule:nonzero;stroke:none"
             id="path346"
             inkscape:connector-curvature="0" /></g><g
           id="g348"
           transform="translate(251.8906,14.5371)"><path
             d="M 0,0 2.171,-0.689 C 1.838,-1.9 1.285,-2.799 0.511,-3.387 c -0.775,-0.588 -1.757,-0.881 -2.948,-0.881 -1.472,0 -2.683,0.504 -3.631,1.51 -0.948,1.006 -1.422,2.381 -1.422,4.127 0,1.846 0.476,3.279 1.43,4.301 0.953,1.021 2.206,1.531 3.76,1.531 1.357,0 2.459,-0.4 3.306,-1.201 C 1.51,5.525 1.889,4.844 2.141,3.957 L -0.076,3.426 c -0.131,0.576 -0.404,1.029 -0.82,1.363 -0.417,0.332 -0.922,0.498 -1.518,0.498 -0.822,0 -1.489,-0.295 -2.001,-0.885 -0.512,-0.589 -0.768,-1.545 -0.768,-2.867 0,-1.402 0.252,-2.4 0.757,-2.996 0.504,-0.596 1.16,-0.893 1.967,-0.893 0.595,0 1.107,0.19 1.536,0.567 C -0.495,-1.408 -0.187,-0.813 0,0"
             style="fill:#0c2950;fill-opacity:1;fill-rule:nonzero;stroke:none"
             id="path350"
             inkscape:connector-curvature="0" /></g><path
           d="m 255.969,21.551 h 2.126 V 10.459 h -2.126 z"
           style="fill:#0c2950;fill-opacity:1;fill-rule:nonzero;stroke:none"
           id="path352"
           inkscape:connector-curvature="0" /><g
           id="g354"
           transform="translate(261.9604,14.4766)"><path
             d="m 0,0 c 0,-0.797 0.189,-1.408 0.567,-1.832 0.379,-0.424 0.845,-0.635 1.4,-0.635 0.555,0 1.02,0.211 1.396,0.635 0.376,0.424 0.564,1.039 0.564,1.846 0,0.787 -0.188,1.392 -0.564,1.816 C 2.987,2.254 2.522,2.467 1.967,2.467 1.412,2.467 0.946,2.254 0.567,1.83 0.189,1.406 0,0.797 0,0 m -2.179,0.113 c 0,0.705 0.174,1.389 0.522,2.051 0.348,0.66 0.841,1.164 1.479,1.512 0.638,0.347 1.351,0.523 2.137,0.523 1.216,0 2.212,-0.396 2.989,-1.185 C 5.725,2.225 6.113,1.227 6.113,0.021 6.113,-1.193 5.721,-2.201 4.937,-3 4.152,-3.801 3.165,-4.199 1.975,-4.199 c -0.737,0 -1.439,0.166 -2.107,0.498 -0.669,0.334 -1.177,0.822 -1.525,1.465 -0.348,0.642 -0.522,1.425 -0.522,2.349"
             style="fill:#0c2950;fill-opacity:1;fill-rule:nonzero;stroke:none"
             id="path356"
             inkscape:connector-curvature="0" /></g><g
           id="g358"
           transform="translate(271.9473,10.459)"><path
             d="m 0,0 -3.238,8.035 h 2.232 L 0.507,3.934 0.946,2.564 C 1.062,2.912 1.135,3.143 1.165,3.252 1.236,3.48 1.312,3.707 1.392,3.934 L 2.92,8.035 H 5.107 L 1.914,0 Z"
             style="fill:#0c2950;fill-opacity:1;fill-rule:nonzero;stroke:none"
             id="path360"
             inkscape:connector-curvature="0" /></g><path
           d="m 278.356,18.494 h 2.126 v -8.035 h -2.126 z m 0,3.057 h 2.126 v -1.969 h -2.126 z"
           style="fill:#0c2950;fill-opacity:1;fill-rule:nonzero;stroke:none"
           id="path362"
           inkscape:connector-curvature="0" /><g
           id="g364"
           transform="translate(281.9116,12.75)"><path
             d="M 0,0 2.133,0.326 C 2.224,-0.088 2.408,-0.4 2.686,-0.615 2.963,-0.83 3.352,-0.938 3.851,-0.938 c 0.549,0 0.963,0.102 1.241,0.303 0.186,0.141 0.28,0.33 0.28,0.569 0,0.16 -0.051,0.295 -0.152,0.4 C 5.114,0.436 4.877,0.527 4.509,0.613 2.794,0.992 1.707,1.338 1.248,1.65 0.613,2.084 0.295,2.688 0.295,3.459 0.295,4.154 0.57,4.74 1.12,5.213 1.669,5.688 2.522,5.926 3.677,5.926 4.776,5.926 5.593,5.746 6.128,5.389 6.663,5.029 7.031,4.5 7.233,3.799 L 5.228,3.428 C 5.142,3.74 4.979,3.98 4.74,4.146 4.5,4.313 4.159,4.396 3.715,4.396 3.155,4.396 2.754,4.318 2.512,4.162 2.35,4.051 2.27,3.908 2.27,3.73 2.27,3.58 2.34,3.451 2.481,3.346 2.673,3.203 3.335,3.004 4.467,2.748 5.6,2.49 6.39,2.174 6.839,1.801 7.283,1.424 7.505,0.896 7.505,0.221 7.505,-0.516 7.197,-1.148 6.582,-1.678 5.967,-2.209 5.056,-2.473 3.851,-2.473 2.756,-2.473 1.89,-2.252 1.252,-1.807 0.614,-1.363 0.197,-0.76 0,0"
             style="fill:#0c2950;fill-opacity:1;fill-rule:nonzero;stroke:none"
             id="path366"
             inkscape:connector-curvature="0" /></g><g
           id="g368"
           transform="translate(291.2251,12.584)"><path
             d="M 0,0 H 2.126 V -1.52 C 2.126,-2.135 2.073,-2.621 1.967,-2.977 1.861,-3.332 1.661,-3.65 1.366,-3.934 1.071,-4.217 0.696,-4.438 0.242,-4.6 l -0.416,0.877 c 0.429,0.143 0.734,0.336 0.916,0.584 0.181,0.246 0.277,0.584 0.287,1.014 H 0 Z"
             style="fill:#0c2950;fill-opacity:1;fill-rule:nonzero;stroke:none"
             id="path370"
             inkscape:connector-curvature="0" /></g><g
           id="g372"
           transform="translate(307,14.5371)"><path
             d="M 0,0 2.171,-0.689 C 1.839,-1.9 1.285,-2.799 0.511,-3.387 c -0.775,-0.588 -1.757,-0.881 -2.948,-0.881 -1.472,0 -2.683,0.504 -3.631,1.51 -0.948,1.006 -1.422,2.381 -1.422,4.127 0,1.846 0.476,3.279 1.43,4.301 0.953,1.021 2.206,1.531 3.76,1.531 1.357,0 2.459,-0.4 3.306,-1.201 C 1.511,5.525 1.889,4.844 2.141,3.957 L -0.076,3.426 c -0.131,0.576 -0.404,1.029 -0.82,1.363 -0.417,0.332 -0.922,0.498 -1.518,0.498 -0.822,0 -1.489,-0.295 -2.001,-0.885 -0.512,-0.589 -0.768,-1.545 -0.768,-2.867 0,-1.402 0.252,-2.4 0.757,-2.996 0.504,-0.596 1.16,-0.893 1.967,-0.893 0.595,0 1.107,0.19 1.536,0.567 C -0.495,-1.408 -0.187,-0.813 0,0"
             style="fill:#0c2950;fill-opacity:1;fill-rule:nonzero;stroke:none"
             id="path374"
             inkscape:connector-curvature="0" /></g><g
           id="g376"
           transform="translate(315.5117,14.3164)"><path
             d="m 0,0 c -0.272,-0.09 -0.704,-0.199 -1.294,-0.324 -0.59,-0.127 -0.976,-0.25 -1.157,-0.371 -0.278,-0.198 -0.416,-0.448 -0.416,-0.75 0,-0.297 0.11,-0.555 0.332,-0.772 0.222,-0.217 0.505,-0.324 0.847,-0.324 0.384,0 0.75,0.125 1.098,0.377 0.257,0.193 0.426,0.428 0.507,0.705 C -0.028,-1.277 0,-0.932 0,-0.424 Z m -2.845,1.727 -1.929,0.347 c 0.216,0.776 0.59,1.352 1.12,1.725 0.529,0.373 1.316,0.56 2.36,0.56 0.948,0 1.654,-0.113 2.118,-0.338 C 1.288,3.797 1.615,3.512 1.805,3.166 1.993,2.822 2.088,2.188 2.088,1.264 L 2.065,-1.217 c 0,-0.707 0.035,-1.228 0.102,-1.562 0.068,-0.336 0.196,-0.696 0.383,-1.078 H 0.446 c -0.055,0.14 -0.124,0.349 -0.204,0.627 -0.035,0.126 -0.06,0.209 -0.076,0.25 -0.363,-0.354 -0.751,-0.618 -1.165,-0.795 -0.413,-0.176 -0.855,-0.264 -1.324,-0.264 -0.827,0 -1.479,0.225 -1.955,0.674 -0.477,0.447 -0.715,1.015 -0.715,1.701 0,0.455 0.108,0.859 0.325,1.215 0.217,0.355 0.521,0.627 0.911,0.816 0.391,0.19 0.955,0.356 1.692,0.496 C -1.072,1.049 -0.384,1.225 0,1.385 V 1.598 C 0,2.006 -0.102,2.297 -0.303,2.471 -0.505,2.645 -0.886,2.732 -1.445,2.732 -1.823,2.732 -2.118,2.658 -2.33,2.508 -2.542,2.359 -2.714,2.1 -2.845,1.727"
             style="fill:#0c2950;fill-opacity:1;fill-rule:nonzero;stroke:none"
             id="path378"
             inkscape:connector-curvature="0" /></g><path
           d="m 319.695,21.551 h 2.126 V 10.459 h -2.126 z"
           style="fill:#0c2950;fill-opacity:1;fill-rule:nonzero;stroke:none"
           id="path380"
           inkscape:connector-curvature="0" /><path
           d="m 324,18.494 h 2.126 V 10.459 H 324 Z m 0,3.057 h 2.126 V 19.582 H 324 Z"
           style="fill:#0c2950;fill-opacity:1;fill-rule:nonzero;stroke:none"
           id="path382"
           inkscape:connector-curvature="0" /><g
           id="g384"
           transform="translate(327.375,18.4941)"><path
             d="m 0,0 h 1.181 v 0.605 c 0,0.676 0.071,1.18 0.215,1.512 0.144,0.334 0.409,0.604 0.794,0.815 0.386,0.209 0.874,0.312 1.464,0.312 0.606,0 1.199,-0.09 1.779,-0.271 L 5.145,1.49 C 4.807,1.57 4.481,1.611 4.169,1.611 3.861,1.611 3.641,1.539 3.507,1.395 3.373,1.252 3.307,0.975 3.307,0.566 V 0 H 4.895 V -1.672 H 3.307 V -8.035 H 1.181 v 6.363 l -1.181,0 z"
             style="fill:#0c2950;fill-opacity:1;fill-rule:nonzero;stroke:none"
             id="path386"
             inkscape:connector-curvature="0" /></g><g
           id="g388"
           transform="translate(335.1523,14.4766)"><path
             d="m 0,0 c 0,-0.797 0.188,-1.408 0.567,-1.832 0.378,-0.424 0.845,-0.635 1.4,-0.635 0.554,0 1.019,0.211 1.395,0.635 0.376,0.424 0.564,1.039 0.564,1.846 0,0.787 -0.188,1.392 -0.564,1.816 C 2.986,2.254 2.521,2.467 1.967,2.467 1.412,2.467 0.945,2.254 0.567,1.83 0.188,1.406 0,0.797 0,0 m -2.18,0.113 c 0,0.705 0.174,1.389 0.523,2.051 0.347,0.66 0.841,1.164 1.478,1.512 0.639,0.347 1.351,0.523 2.138,0.523 1.216,0 2.212,-0.396 2.988,-1.185 C 5.725,2.225 6.112,1.227 6.112,0.021 6.112,-1.193 5.721,-2.201 4.937,-3 4.152,-3.801 3.164,-4.199 1.975,-4.199 c -0.738,0 -1.44,0.166 -2.108,0.498 -0.668,0.334 -1.177,0.822 -1.524,1.465 -0.349,0.642 -0.523,1.425 -0.523,2.349"
             style="fill:#0c2950;fill-opacity:1;fill-rule:nonzero;stroke:none"
             id="path390"
             inkscape:connector-curvature="0" /></g><g
           id="g392"
           transform="translate(344.9648,10.459)"><path
             d="m 0,0 h -2.126 v 8.035 h 1.975 V 6.893 C 0.187,7.432 0.49,7.787 0.761,7.959 1.03,8.131 1.337,8.217 1.68,8.217 2.164,8.217 2.63,8.082 3.079,7.814 L 2.421,5.961 C 2.063,6.193 1.729,6.309 1.422,6.309 1.125,6.309 0.872,6.227 0.666,6.064 0.459,5.9 0.296,5.604 0.178,5.174 0.06,4.746 0,3.848 0,2.48 Z"
             style="fill:#0c2950;fill-opacity:1;fill-rule:nonzero;stroke:none"
             id="path394"
             inkscape:connector-curvature="0" /></g><g
           id="g396"
           transform="translate(356.2686,10.459)"><path
             d="m 0,0 h -2.126 v 4.1 c 0,0.867 -0.046,1.429 -0.137,1.683 -0.091,0.256 -0.238,0.453 -0.442,0.594 -0.204,0.143 -0.45,0.213 -0.737,0.213 -0.369,0 -0.7,-0.102 -0.992,-0.303 C -4.727,6.084 -4.927,5.818 -5.035,5.484 -5.144,5.152 -5.198,4.537 -5.198,3.639 V 0 H -7.324 V 8.035 H -5.35 V 6.854 c 0.702,0.908 1.584,1.363 2.649,1.363 0.469,0 0.897,-0.086 1.286,-0.254 0.389,-0.17 0.683,-0.385 0.882,-0.647 0.199,-0.263 0.338,-0.56 0.416,-0.892 C -0.039,6.09 0,5.613 0,4.992 Z"
             style="fill:#0c2950;fill-opacity:1;fill-rule:nonzero;stroke:none"
             id="path398"
             inkscape:connector-curvature="0" /></g><path
           d="m 358.425,18.494 h 2.126 v -8.035 h -2.126 z m 0,3.057 h 2.126 v -1.969 h -2.126 z"
           style="fill:#0c2950;fill-opacity:1;fill-rule:nonzero;stroke:none"
           id="path400"
           inkscape:connector-curvature="0" /><g
           id="g402"
           transform="translate(367.1631,14.3164)"><path
             d="m 0,0 c -0.272,-0.09 -0.704,-0.199 -1.294,-0.324 -0.59,-0.127 -0.976,-0.25 -1.157,-0.371 -0.278,-0.198 -0.416,-0.448 -0.416,-0.75 0,-0.297 0.11,-0.555 0.332,-0.772 0.222,-0.217 0.505,-0.324 0.847,-0.324 0.384,0 0.75,0.125 1.098,0.377 0.257,0.193 0.426,0.428 0.507,0.705 C -0.028,-1.277 0,-0.932 0,-0.424 Z m -2.845,1.727 -1.929,0.347 c 0.216,0.776 0.59,1.352 1.12,1.725 0.529,0.373 1.316,0.56 2.36,0.56 0.948,0 1.654,-0.113 2.118,-0.338 C 1.288,3.797 1.615,3.512 1.805,3.166 1.993,2.822 2.088,2.188 2.088,1.264 L 2.065,-1.217 c 0,-0.707 0.035,-1.228 0.102,-1.562 0.068,-0.336 0.196,-0.696 0.383,-1.078 H 0.446 c -0.055,0.14 -0.124,0.349 -0.204,0.627 -0.035,0.126 -0.06,0.209 -0.076,0.25 -0.363,-0.354 -0.751,-0.618 -1.165,-0.795 -0.413,-0.176 -0.855,-0.264 -1.324,-0.264 -0.827,0 -1.479,0.225 -1.955,0.674 -0.477,0.447 -0.715,1.015 -0.715,1.701 0,0.455 0.108,0.859 0.325,1.215 0.217,0.355 0.521,0.627 0.911,0.816 0.391,0.19 0.955,0.356 1.692,0.496 C -1.072,1.049 -0.384,1.225 0,1.385 V 1.598 C 0,2.006 -0.102,2.297 -0.303,2.471 -0.505,2.645 -0.886,2.732 -1.445,2.732 -1.823,2.732 -2.118,2.658 -2.33,2.508 -2.542,2.359 -2.714,2.1 -2.845,1.727"
             style="fill:#0c2950;fill-opacity:1;fill-rule:nonzero;stroke:none"
             id="path404"
             inkscape:connector-curvature="0" /></g></g></g></g></svg>