<?xml version="1.0" encoding="UTF-8"?>
<!-- Created with Inkscape (http://www.inkscape.org/) -->
<svg width="57mm" height="60mm" version="1.1" viewBox="0 0 57 60" xmlns="http://www.w3.org/2000/svg" xmlns:cc="http://creativecommons.org/ns#" xmlns:dc="http://purl.org/dc/elements/1.1/" xmlns:rdf="http://www.w3.org/1999/02/22-rdf-syntax-ns#">
 <defs>
  <clipPath id="clipPath20">
   <path d="m0 800h1e3v-800h-1e3z"/>
  </clipPath>
 </defs>
 <metadata>
  <rdf:RDF>
   <cc:Work rdf:about="">
    <dc:format>image/svg+xml</dc:format>
    <dc:type rdf:resource="http://purl.org/dc/dcmitype/StillImage"/>
    <dc:title/>
   </cc:Work>
  </rdf:RDF>
 </metadata>
 <g transform="translate(0,-237)">
  <g transform="translate(-33.205 14.817)">
   <g transform="matrix(.35278 0 0 -.35278 -114.55 504.17)" clip-path="url(#clipPath20)">
    <g transform="translate(562.8 715.47)">
     <path d="m0 0c0-34.516-27.981-62.497-62.496-62.497-34.516 0-62.496 27.981-62.496 62.497s27.98 62.496 62.496 62.496c34.515 0 62.496-27.98 62.496-62.496" fill="#f4c0d9"/>
    </g>
    <g transform="translate(500.31 656.84)">
     <path d="m0 0c-32.378 0-58.625 26.247-58.625 58.624 0 32.378 26.247 58.625 58.625 58.625 32.377 0 58.624-26.247 58.624-58.625 0-32.377-26.247-58.624-58.624-58.624m0 123.48c-35.817 0-64.853-29.036-64.853-64.853 0-35.816 29.036-64.852 64.853-64.852 35.815 0 64.852 29.036 64.852 64.852 0 35.817-29.037 64.853-64.852 64.853" fill="#eeb210"/>
    </g>
    <g transform="translate(550.14 751.28)">
     <path d="m0 0c-0.754 0-3.488-0.362-8.77-0.362-5.845 0-9.146 0.362-10.089 0.362-0.66 0-0.754-0.363-0.754-0.846v-2.78c0-0.726 0.094-1.088 0.661-1.088h2.546c2.546 0 3.3-1.813 3.3-3.747 0-6.891-16.716-68.515-16.716-68.515l-20.468 102.95-19.772-102.95s-16.716 61.624-16.716 68.515c0 1.934 0.755 3.747 3.301 3.747h2.546c0.566 0 0.66 0.362 0.66 1.088v2.78c0 0.483-0.094 0.846-0.754 0.846-0.943 0-4.244-0.362-10.09-0.362-5.281 0-8.015 0.362-8.77 0.362-0.566 0-0.66-0.242-0.66-0.846v-3.022c0-0.484 0-0.846 0.66-0.846h2.263c1.603 0 2.923-1.33 3.772-3.264 0.754-1.692 20.462-76.96 22.349-82.762 0.471-1.33 0.942-3.143 1.98-3.143 1.131 0 1.603 0.966 2.074 2.659l17.272 94.738 17.737-94.738c0.471-1.693 0.944-2.659 2.075-2.659 1.038 0 1.509 1.813 1.981 3.143 1.885 5.802 21.593 81.07 22.348 82.762 0.848 1.934 2.168 3.264 3.771 3.264h2.263c0.661 0 0.661 0.362 0.661 0.846v3.022c0 0.604-0.095 0.846-0.661 0.846" fill="#eeb210"/>
    </g>
    <g transform="translate(563.9 715.47)">
     <path d="m0 0c0-35.12-28.47-63.59-63.588-63.59-35.12 0-63.59 28.47-63.59 63.59 0 35.119 28.47 63.589 63.59 63.589 35.118 0 63.588-28.47 63.588-63.589z" fill="none" stroke="#ffd24f"/>
    </g>
    <g transform="translate(506.81 652.21)">
     <path d="m0 0c-2.137-0.217-4.306-0.329-6.5-0.329-1.941 0-3.861 0.088-5.758 0.258l5.758 0.779z" fill="#fff"/>
    </g>
    <g transform="translate(507.18 778.69)">
     <path d="m0 0c-2.257 0.243-4.551 0.367-6.871 0.367-2.195 0-4.365-0.111-6.503-0.328l6.503-0.862z" fill="#fff"/>
    </g>
    <g transform="translate(559.65 722.35)">
     <path d="m0 0c0.26-2.259 0.394-4.556 0.394-6.884 0-2.329-0.134-4.626-0.394-6.884-3.414-29.75-28.682-52.854-59.345-52.854-30.673 0-55.946 23.116-59.349 52.877-0.258 2.252-0.39 4.54-0.39 6.861 0 2.491 0.152 4.946 0.448 7.357 3.627 29.521 28.789 52.381 59.291 52.381 30.663 0 55.931-23.104 59.345-52.854z" fill="none" stroke="#c5960b"/>
    </g>
    <g transform="translate(559.65 722.35)">
     <path d="m0 0c0.26-2.259 0.394-4.556 0.394-6.884 0-2.329-0.134-4.626-0.394-6.884-3.414-29.75-28.682-52.854-59.345-52.854-30.673 0-55.946 23.116-59.349 52.877-0.258 2.252-0.39 4.54-0.39 6.861 0 2.491 0.152 4.946 0.448 7.357 3.627 29.521 28.789 52.381 59.291 52.381 30.663 0 55.931-23.104 59.345-52.854z" fill="none" stroke="#c5960b"/>
    </g>
    <g transform="translate(465.2 746.75)">
     <path d="m0 0h-5.06s0.154-1.073 0.614-2.76c0.46-1.686 2.069-3.449 2.069-3.449s-0.613 2.913-0.23 4.216c0.384 1.303 2.607 1.993 2.607 1.993" fill="#c5960b"/>
    </g>
    <g transform="translate(463.05 738.93)">
     <path d="m0 0 7.589-31.353 9.276-34.726v-2.377l-9.889 36.95-7.972 32.349z" fill="#c5960b"/>
    </g>
    <g transform="translate(455.58 746.52)">
     <path d="m0 0 1.84-0.115 21.617-80.145-0.115-4.485-0.804 4.255-20.928 77.846z" fill="#ffd24f"/>
    </g>
    <g transform="translate(453.97 750.37)">
     <path d="m0 0h8.393c2.07 0 6.728 0.345 6.728 0.345s0.114-0.402 0.229-0.977-0.115-2.472-0.115-2.472l-0.46 2.299h-6.209c-3.105 0-8.566 0.805-8.566 0.805" fill="#fff"/>
    </g>
    <g transform="translate(481.68 660.05)">
     <path d="m0 0 17.709 96.013-0.116 5.865-18.513-101.48z" fill="#c5960b"/>
    </g>
    <g transform="translate(480.93 671.77)">
     <path d="m0 0 18.743 102.16v-3.334l-19.95-108.6z" fill="#ffd24f"/>
    </g>
    <g transform="translate(535.28 746.75)">
     <path d="m0 0h5.06s-0.154-1.073-0.614-2.76c-0.46-1.686-2.07-3.449-2.07-3.449s0.614 2.913 0.23 4.216c-0.383 1.303-2.606 1.993-2.606 1.993" fill="#c5960b"/>
    </g>
    <g transform="translate(537.51 738.93)">
     <path d="m0 0-7.589-31.353-9.275-34.726v-2.377l9.888 36.95 7.973 32.349z" fill="#c5960b"/>
    </g>
    <g transform="translate(544.98 746.52)">
     <path d="m0 0-1.839-0.115-21.617-80.145 0.115-4.485 0.805 4.255 20.927 77.846z" fill="#ffd24f"/>
    </g>
    <g transform="translate(546.59 750.37)">
     <path d="m0 0h-8.394c-2.07 0-6.727 0.345-6.727 0.345s-0.114-0.402-0.23-0.977c-0.115-0.575 0.116-2.472 0.116-2.472l0.46 2.299h6.209c3.104 0 8.566 0.805 8.566 0.805" fill="#fff"/>
    </g>
    <g transform="translate(518.42 660.05)">
     <path d="m0 0-17.708 96.013 0.115 5.865l18.513-101.48z" fill="#c5960b"/>
    </g>
    <g transform="translate(519.4 672.54)">
     <path d="m0 0-19.278 101.4 7e-3 -3.096 20.478-108.08z" fill="#ffd24f"/>
    </g>
    <g transform="translate(499.54 772.96)">
     <path d="m0 0h0.69l-0.153-11.077z" fill="#fff"/>
    </g>
    <g transform="translate(499.23 756.56)">
     <path d="m0 0 0.039 5.366 0.651-2.99 0.902 2.99 0.172-5.442-0.996-1.074z" fill="#c5960b"/>
    </g>
    <g transform="translate(453.8 747.55)">
     <path d="m0 0-1.296 0.741c0.036 0.123 0.083 0.258 0.146 0.409 0.46 1.092 1.438 1.954 1.438 1.954l-0.345 0.115-1.495-1.839-1.236-1.668h14.229l0.575 0.288z" fill="#c5960b"/>
    </g>
    <g transform="translate(546.73 747.55)">
     <path d="m0 0 1.298 0.741c-0.037 0.123-0.083 0.258-0.148 0.409-0.46 1.092-1.437 1.954-1.437 1.954l0.345 0.115 1.495-1.839 1.236-1.668h-14.229l-0.576 0.288z" fill="#c5960b"/>
    </g>
   </g>
   <g fill="#f48f9d" stroke-width=".125">
    <path transform="matrix(.26458 0 0 .26458 0 219)" d="m203.36 195.67c-15.586-6.6942-28.568-18.295-37.127-33.178-1.3338-2.3194-3.6552-7.0534-3.6-7.3416 0.0286-0.1491 1.1796-0.79218 3.5408-1.9782 5.4072-2.716 10.249-4.7085 16.374-6.7388 3.1782-1.0535 8.1557-2.515 8.2487-2.422 0.0281 0.0281 1.0628 3.8462 2.2993 8.4846 5.8512 21.95 9.4542 35.314 10.961 40.656 0.44182 1.5663 0.80332 2.9023 0.80332 2.9688 0 0.18217-0.0821 0.15747-1.5-0.45153z"/>
    <path transform="matrix(.26458 0 0 .26458 0 219)" d="m207.02 178c-0.26532-0.80476-5.6296-20.986-8.4677-31.858-0.52697-2.0185-0.91087-3.713-0.85312-3.7656 0.13455-0.12248 5.4095-1.1396 8.4175-1.6231 2.6759-0.43011 8.375-1.1705 8.448-1.0975 0.0364 0.0364-6.5895 34.787-7.299 38.281l-0.10152 0.5z"/>
    <path transform="matrix(.26458 0 0 .26458 0 219)" d="m231.05 201.92c-6.5956-0.30936-13.026-1.3781-19.224-3.1948-1.0953-0.32107-1.3338-0.43246-1.2688-0.59253 0.044-0.10842 2.4967-13.443 5.4503-29.632s5.3819-29.446 5.3961-29.461c0.1548-0.15481 6.5005-0.34103 11.584-0.33994 5.5813 1e-3 7.5782 0.0633 12.196 0.37904l1.1333 0.0775 1.3473 7.2019c6.539 34.954 9.6928 51.731 9.7541 51.89 0.058 0.15018-0.34853 0.3064-2.0227 0.7772-5.0788 1.4282-9.9894 2.2923-15.47 2.7223-1.7812 0.13971-7.2884 0.24649-8.875 0.17208z"/>
    <path transform="matrix(.26458 0 0 .26458 0 219)" d="m256.97 159.21c-2.1061-10.6-3.8103-19.292-3.7871-19.317 0.0565-0.0602 4.4078 0.54045 6.744 0.93101 3.2304 0.54005 10.126 1.9482 10.276 2.0985 0.0782 0.0782-9.2442 35.4-9.3785 35.534-0.014 0.014-1.7485-8.6471-3.8546-19.247z"/>
    <path transform="matrix(.26458 0 0 .26458 0 219)" d="m262.99 196.43c0-0.0317 0.27826-1.028 0.61835-2.214 1.316-4.5893 6.7985-24.923 11.832-43.882l1.487-5.601 0.39406 0.0731c0.63386 0.11762 5.6692 1.7756 7.9959 2.6328 5.664 2.0868 10.745 4.3872 15.773 7.1417 2.0905 1.1452 3.7746 2.2395 3.7746 2.4528 0 0.17397-2.0328 4.0864-2.9364 5.6515-7.736 13.399-19.118 24.153-32.806 30.994-1.2761 0.63782-2.7371 1.342-3.2468 1.5648-2.0853 0.9117-2.8859 1.2408-2.8859 1.1861z"/>
   </g>
  </g>
 </g>
</svg>
