<?xml version="1.0" encoding="UTF-8"?>
<!-- Created with Inkscape (http://www.inkscape.org/) -->
<svg width="124mm" height="78mm" version="1.1" viewBox="0 0 124 78" xmlns="http://www.w3.org/2000/svg" xmlns:cc="http://creativecommons.org/ns#" xmlns:dc="http://purl.org/dc/elements/1.1/" xmlns:rdf="http://www.w3.org/1999/02/22-rdf-syntax-ns#">
 <defs>
  <clipPath id="clipPath20">
   <path d="m0 800h1e3v-800h-1e3z"/>
  </clipPath>
 </defs>
 <metadata>
  <rdf:RDF>
   <cc:Work rdf:about="">
    <dc:format>image/svg+xml</dc:format>
    <dc:type rdf:resource="http://purl.org/dc/dcmitype/StillImage"/>
    <dc:title/>
   </cc:Work>
  </rdf:RDF>
 </metadata>
 <g transform="translate(0,-219)">
  <g transform="matrix(.35278 0 0 -.35278 -114.55 504.17)" clip-path="url(#clipPath20)">
   <g transform="translate(562.8 715.47)">
    <path d="m0 0c0-34.516-27.981-62.497-62.496-62.497-34.516 0-62.496 27.981-62.496 62.497s27.98 62.496 62.496 62.496c34.515 0 62.496-27.98 62.496-62.496" fill="#f4c0d9"/>
   </g>
   <g transform="translate(563.53 674.12)">
    <path d="m0 0c0-17.058-29.285-30.885-65.411-30.885s-65.412 13.827-65.412 30.885c0 17.057 29.286 30.885 65.412 30.885s65.411-13.828 65.411-30.885" fill="#f48f9d"/>
   </g>
   <g transform="translate(552.27 681.36)">
    <path d="m0 0s2.623 13.943 12.657 20.999c14.719 10.349 33.578 1.019 43.005 5.059 14.488 6.21 11.401 17.835 13.29 18.346 1.889 0.512 3.615-1.421 3.557-7.699-0.059-6.277-2.767-10.015-2.767-10.015s2.057-1.244 10.202 5.042c8.144 6.285 14.308 28.466 15.963 28.592 1.656 0.126 5.98-17.018 0-31.736-5.979-14.718-23.01-20.745-23.01-20.745s-0.571-2.834 8.345-2.658 21.548 10.093 22.637 8.532c1.09-1.562-5.441-12.036-15.791-18.015-10.349-5.979-17.408-3.639-17.408-3.639s0.117-4.754 7.29-7.4c9.351-3.449 21.76-0.455 22.537-2.529 0.776-2.074-9.199-7.972-23.917-6.67-12.618 1.118-15.417 5.119-15.417 5.119s2.143-4.691 4.071-7.955c3.986-6.746 14.4-9.334 14.411-10.425 0.012-1.091-9.198-1.227-16.556 2.146-4.904 2.247-11.61 9.894-11.61 9.894s3.024-11.121-1.884-13.574c-4.904-2.453-10.387 5.625-10.387 5.625s-1.876-12.37-7.396-13.597c-5.519-1.226-7.666 12.649-7.666 12.649s-3.067-11.116-9.506-10.503c-6.439 0.614-6.362 12.343-6.362 12.343s-1.149-6.363-7.359-7.36c-6.209-0.996-8.083 5.6-8.083 5.6s-2.266-6.06-9.395-9.739c-11.905-6.145-18.443-1.322-23.457-5.98-7.095-6.59-11.958-16.328-11.958-16.328s-4.635 9.738-11.729 16.328c-5.014 4.658-11.552-0.165-23.457 5.98-7.129 3.679-9.395 9.739-9.395 9.739s-1.874-6.596-8.083-5.6c-6.209 0.997-7.359 7.36-7.359 7.36s0.076-11.729-6.363-12.343c-6.439-0.613-9.505 10.503-9.505 10.503s-2.147-13.875-7.666-12.649c-5.52 1.227-7.395 13.597-7.395 13.597s-5.483-8.078-10.389-5.625-1.884 13.574-1.884 13.574-6.706-7.647-11.608-9.894c-7.359-3.373-16.57-3.237-16.558-2.146s10.425 3.679 14.412 10.425c1.928 3.264 4.071 7.955 4.071 7.955s-2.799-4.001-15.417-5.119c-14.718-1.302-24.693 4.596-23.917 6.67 0.777 2.074 13.185-0.92 22.537 2.529 7.172 2.646 7.29 7.4 7.29 7.4s-7.06-2.34-17.409 3.639c-10.348 5.979-16.88 16.453-15.791 18.015 1.089 1.561 13.722-8.356 22.638-8.532s8.344 2.658 8.344 2.658-17.03 6.027-23.009 20.745c-5.98 14.718-1.656 31.862 0 31.736 1.655-0.126 7.818-22.307 15.963-28.592 8.145-6.286 10.201-5.042 10.201-5.042s-2.707 3.738-2.766 10.015c-0.058 6.278 1.668 8.211 3.557 7.699 1.888-0.511-1.199-12.136 13.29-18.346 9.426-4.04 28.286 5.29 43.004-5.059 10.035-7.056 12.658-20.999 12.658-20.999l23.908-22.236 28.286-5.749 38.865 14.028z" fill="#eeb210"/>
   </g>
   <g transform="translate(464.43 650.27)">
    <path d="m0 0-2.645 4.14s0.23-9.084 10.924-11.039 10.464-0.92 15.293-2.875c4.83-1.954 12.189-11.038 12.189-11.038l-1.724 3.449-4.255 5.75-4.715 4.369-2.989 1.265-5.06 0.69-6.324 0.459-3.68 0.576-3.679 1.38z" fill="#c5960b"/>
   </g>
   <g transform="translate(566.35 685.23)">
    <path d="m0 0s-1.265-2.875-5.06-4.484c-3.794-1.61-6.439-0.575-6.439-0.575l1.495 2.184s1.725-0.919 4.485-0.229c2.759 0.689 5.519 3.104 5.519 3.104" fill="#ffd24f"/>
   </g>
   <g transform="translate(433.96 685.23)">
    <path d="m0 0s1.265-2.875 5.06-4.484c3.794-1.61 6.439-0.575 6.439-0.575l-1.495 2.184s-1.725-0.919-4.484-0.229c-2.76 0.689-5.52 3.104-5.52 3.104" fill="#ffd24f"/>
   </g>
   <g transform="translate(442.81 655.68)">
    <path d="m0 0s0.575-2.07 4.025-2.874c3.449-0.806 4.714 0.229 4.714 0.229l-4.599 2.185-3.795 3.91z" fill="#c5960b"/>
   </g>
   <g transform="translate(430.51 656.02)">
    <path d="m0 0s-0.575-2.645 1.38-3.565c1.955-0.919 3.68-0.23 3.68-0.23l-3.105 2.53-1.84 4.484z" fill="#c5960b"/>
   </g>
   <g transform="translate(427.29 652.23)">
    <path d="m0 0s1.15-0.69 2.759 0.69c1.61 1.38 1.495 3.45 1.495 3.45l-1.379 2.874-0.23-3.449-1.266-2.07z" fill="#c5960b"/>
   </g>
   <g transform="translate(434.69 678.75)">
    <path d="m0 0s1.686-2.453 5.596-3.373 7.36 1.38 7.36 1.38l-0.538 0.92-4.292-0.153-3.373 1.379-5.213 2.07z" fill="#c5960b"/>
   </g>
   <g transform="translate(420.58 675.15)">
    <path d="m0 0s0.383-2.836 3.296-4.216 6.133-0.537 6.133-0.537l-5.289 2.377-2.837 2.913-1.533 1.073z" fill="#c5960b"/>
   </g>
   <g transform="translate(416.06 668.55)">
    <path d="m0 0s3.449-0.537 4.982 1.533 1.227 4.983 1.227 4.983l-1.687 1.456-0.23-4.522-1.226-1.84z" fill="#c5960b"/>
   </g>
   <g transform="translate(399.73 668.63)">
    <path d="m0 0s2.222-0.308 4.446 1.226c2.223 1.533 2.76 3.986 2.76 3.986l-0.92 1.457-2.07-3.066-2.376-2.53z" fill="#c5960b"/>
   </g>
   <g transform="translate(384.1 678.29)">
    <path d="m0 0s2.53-2.146 4.982-2.376c2.454-0.23 3.143 0.306 3.143 0.306l1.38 3.373-3.526-1.38-3.296-0.383z" fill="#c5960b"/>
   </g>
   <g transform="translate(380.95 693.28)">
    <path d="m0 0s0-2.185 0.69-3.45c0.69-1.264 2.645-1.954 2.645-1.954l1.954 1.839-3.104 1.035z" fill="#c5960b"/>
   </g>
   <g transform="translate(393.72 669.13)">
    <path d="m0 0s-0.23-1.495-2.3-4.025c-2.07-2.529-4.944-4.484-4.944-4.484s3.066 0.881 5.749 3.717c2.684 2.837 2.3 4.332 2.3 4.332z" fill="#c5960b"/>
   </g>
   <g transform="translate(384.63 678.1)">
    <path d="m0 0s-1.15-1.61-2.875-2.76c-1.724-1.15-3.564-2.184-3.564-2.184s1.457-0.537 3.986 0.996c2.53 1.533 4.293 3.603 4.293 3.603z" fill="#c5960b"/>
   </g>
   <g transform="translate(375.89 688.68)">
    <path d="m0 0s1.84-0.23 4.024 0c2.185 0.23 4.715 1.495 4.715 1.495l1.227-1.074s-1.15-1.916-5.06-2.222c-3.91-0.307-5.673 1.226-5.673 1.226z" fill="#c5960b"/>
   </g>
   <g transform="translate(446.72 677.98)">
    <path d="m0 0c-2.53-2.76-12.878 3.679-12.878 3.679s3.679-8.969-1.61-10.808c-5.29-1.84-11.959 6.439-11.959 6.439s1.61-7.589-4.599-8.739c-6.21-1.15-9.429 7.129-9.429 7.129s-4.6-9.199-11.039-7.129-1.15 11.728-1.15 11.728-7.359-4.829-11.269-0.92c-3.909 3.91 3.45 10.35 3.45 10.35s-6.439 1.379-5.289 6.208c1.15 4.83 6.362 3.756 6.362 3.756" fill="none" stroke="#c5960b"/>
   </g>
   <g transform="translate(439.14 692.59)">
    <path d="m0 0s-9.659 8.164-18.628 7.934c-7.186-0.184-12.418-2.369-23.457-2.3-12.341 0.077-18.168 9.736-18.168 9.736s3.527-10.886 17.632-11.499 16.558 1.84 24.07 1.993c7.512 0.154 18.551-5.864 18.551-5.864" fill="#c5960b"/>
   </g>
   <g transform="translate(605.67 668.67)">
    <path d="m0 0s2.3-4.83 0.115-7.359c-2.185-2.53-8.164 3.565-8.164 3.565s0-8.97-6.899-10.349c-6.9-1.38-8.279 7.819-8.279 7.819s1.379-10.119-5.98-10.579c-7.358-0.46-6.439 8.969-6.439 8.969s-1.839-9.199-7.819-8.739c-5.979 0.46-5.289 7.359-5.289 7.359s-4.37-6.209-9.659-6.669-7.359 5.059-7.359 5.059-2.53-8.279-9.199-11.038c-6.67-2.76-14.718-0.46-20.007-3.68s-10.541-13.109-10.541-13.109-5.366 9.889-10.656 13.109c-5.289 3.22-13.338 0.92-20.007 3.68-6.669 2.759-9.199 11.038-9.199 11.038s-2.07-5.519-7.359-5.059-9.659 6.669-9.659 6.669 0.69-6.899-5.289-7.359-7.819 8.739-7.819 8.739 0.92-9.429-6.44-8.969c-7.359 0.46-5.979 10.579-5.979 10.579s-1.38-9.199-8.279-7.819c-6.899 1.379-6.899 10.349-6.899 10.349s-5.979-6.095-8.164-3.565c-2.185 2.529 0.115 7.359 0.115 7.359" fill="none" stroke="#c5960b"/>
   </g>
   <g transform="translate(621.31 707.96)">
    <path d="m0 0s-5.825-9.659-18.168-9.736c-11.038-0.069-16.271 2.116-23.457 2.3-8.969 0.23-17.937-7.819-17.937-7.819" fill="none" stroke="#c5960b"/>
   </g>
   <g transform="translate(611.65 699.83)">
    <path d="m0 0s6.439 0.92 7.589-3.91c1.149-4.829-5.29-6.209-5.29-6.209s7.359-6.439 3.45-10.349c-3.909-3.909-11.268 0.92-11.268 0.92s5.289-9.659-1.151-11.728c-6.438-2.07-11.038 7.129-11.038 7.129s-3.22-8.279-9.429-7.129c-6.21 1.149-4.599 8.739-4.599 8.739s-6.669-8.279-11.959-6.44c-5.289 1.84-1.61 10.809-1.61 10.809s-10.348-6.439-12.879-3.679" fill="none" stroke="#c5960b"/>
   </g>
   <g transform="translate(613.72 660.62)">
    <path d="m0 0s-2.875 1.955-4.944 4.484c-2.07 2.53-2.3 4.025-2.3 4.025" fill="none" stroke="#c5960b"/>
   </g>
   <g transform="translate(622 673.15)">
    <path d="m0 0s-1.84 1.035-3.565 2.185c-1.725 1.149-2.875 2.759-2.875 2.759" fill="none" stroke="#c5960b"/>
   </g>
   <g transform="translate(624.3 688.68)">
    <path d="m0 0s-1.84-0.23-4.024 0c-2.186 0.23-4.715 1.495-4.715 1.495" fill="none" stroke="#c5960b"/>
   </g>
   <g transform="translate(552.27 681.36)">
    <path d="m0 0s2.623 13.943 12.657 20.999c14.719 10.349 33.578 1.019 43.005 5.059 14.488 6.21 11.401 17.835 13.29 18.346 1.889 0.512 3.615-1.421 3.557-7.699-0.059-6.277-2.767-10.015-2.767-10.015s2.057-1.244 10.202 5.042c8.144 6.285 14.308 28.466 15.963 28.592 1.656 0.126 5.98-17.018 0-31.736-5.979-14.718-23.01-20.745-23.01-20.745s-0.571-2.834 8.345-2.658 21.548 10.093 22.637 8.532c1.09-1.562-5.441-12.036-15.791-18.015-10.349-5.979-17.408-3.639-17.408-3.639s0.117-4.754 7.29-7.4c9.351-3.449 21.76-0.455 22.537-2.529 0.776-2.074-9.199-7.972-23.917-6.67-12.618 1.118-15.417 5.119-15.417 5.119s2.143-4.691 4.071-7.955c3.986-6.746 14.4-9.334 14.411-10.425 0.012-1.091-9.198-1.227-16.556 2.146-4.904 2.247-11.61 9.894-11.61 9.894s3.024-11.121-1.884-13.574c-4.904-2.453-10.387 5.625-10.387 5.625s-1.876-12.37-7.396-13.597c-5.519-1.226-7.666 12.649-7.666 12.649s-3.067-11.116-9.506-10.503c-6.439 0.614-6.362 12.343-6.362 12.343s-1.149-6.363-7.359-7.36c-6.209-0.996-8.083 5.6-8.083 5.6s-2.266-6.06-9.395-9.739c-11.905-6.145-18.443-1.322-23.457-5.98-7.095-6.59-11.958-16.328-11.958-16.328s-4.635 9.738-11.729 16.328c-5.014 4.658-11.552-0.165-23.457 5.98-7.129 3.679-9.395 9.739-9.395 9.739s-1.874-6.596-8.083-5.6c-6.209 0.997-7.359 7.36-7.359 7.36s0.076-11.729-6.363-12.343c-6.439-0.613-9.505 10.503-9.505 10.503s-2.147-13.875-7.666-12.649c-5.52 1.227-7.395 13.597-7.395 13.597s-5.483-8.078-10.389-5.625-1.884 13.574-1.884 13.574-6.706-7.647-11.608-9.894c-7.359-3.373-16.57-3.237-16.558-2.146s10.425 3.679 14.412 10.425c1.928 3.264 4.071 7.955 4.071 7.955s-2.799-4.001-15.417-5.119c-14.718-1.302-24.693 4.596-23.917 6.67 0.777 2.074 13.185-0.92 22.537 2.529 7.172 2.646 7.29 7.4 7.29 7.4s-7.06-2.34-17.409 3.639c-10.348 5.979-16.88 16.453-15.791 18.015 1.089 1.561 13.722-8.356 22.638-8.532s8.344 2.658 8.344 2.658-17.03 6.027-23.009 20.745c-5.98 14.718-1.656 31.862 0 31.736 1.655-0.126 7.818-22.307 15.963-28.592 8.145-6.286 10.201-5.042 10.201-5.042s-2.707 3.738-2.766 10.015c-0.058 6.278 1.668 8.211 3.557 7.699 1.888-0.511-1.199-12.136 13.29-18.346 9.426-4.04 28.286 5.29 43.004-5.059 10.035-7.056 12.658-20.999 12.658-20.999l23.908-22.236 28.286-5.749 38.865 14.028z" fill="none" stroke="#eeb210"/>
   </g>
   <g transform="translate(437.03 701.2)">
    <path d="m0 0c6.502-28.95 32.363-50.58 63.277-50.58 30.698 0 56.413 21.329 63.138 49.976" fill="none" stroke="#c5960b" stroke-width="2"/>
   </g>
   <g transform="translate(500.31 656.84)">
    <path d="m0 0c-32.378 0-58.625 26.247-58.625 58.624 0 32.378 26.247 58.625 58.625 58.625 32.377 0 58.624-26.247 58.624-58.625 0-32.377-26.247-58.624-58.624-58.624m0 123.48c-35.817 0-64.853-29.036-64.853-64.853 0-35.816 29.036-64.852 64.853-64.852 35.815 0 64.852 29.036 64.852 64.852 0 35.817-29.037 64.853-64.852 64.853" fill="#eeb210"/>
   </g>
   <g transform="translate(550.14 751.28)">
    <path d="m0 0c-0.754 0-3.488-0.362-8.77-0.362-5.845 0-9.146 0.362-10.089 0.362-0.66 0-0.754-0.363-0.754-0.846v-2.78c0-0.726 0.094-1.088 0.661-1.088h2.546c2.546 0 3.3-1.813 3.3-3.747 0-6.891-16.716-68.515-16.716-68.515l-20.468 102.95-19.772-102.95s-16.716 61.624-16.716 68.515c0 1.934 0.755 3.747 3.301 3.747h2.546c0.566 0 0.66 0.362 0.66 1.088v2.78c0 0.483-0.094 0.846-0.754 0.846-0.943 0-4.244-0.362-10.09-0.362-5.281 0-8.015 0.362-8.77 0.362-0.566 0-0.66-0.242-0.66-0.846v-3.022c0-0.484 0-0.846 0.66-0.846h2.263c1.603 0 2.923-1.33 3.772-3.264 0.754-1.692 20.462-76.96 22.349-82.762 0.471-1.33 0.942-3.143 1.98-3.143 1.131 0 1.603 0.966 2.074 2.659l17.272 94.738 17.737-94.738c0.471-1.693 0.944-2.659 2.075-2.659 1.038 0 1.509 1.813 1.981 3.143 1.885 5.802 21.593 81.07 22.348 82.762 0.848 1.934 2.168 3.264 3.771 3.264h2.263c0.661 0 0.661 0.362 0.661 0.846v3.022c0 0.604-0.095 0.846-0.661 0.846" fill="#eeb210"/>
   </g>
   <g transform="translate(563.9 715.47)">
    <path d="m0 0c0-35.12-28.47-63.59-63.588-63.59-35.12 0-63.59 28.47-63.59 63.59 0 35.119 28.47 63.589 63.59 63.589 35.118 0 63.588-28.47 63.588-63.589z" fill="none" stroke="#ffd24f"/>
   </g>
   <g transform="translate(506.81 652.21)">
    <path d="m0 0c-2.137-0.217-4.306-0.329-6.5-0.329-1.941 0-3.861 0.088-5.758 0.258l5.758 0.779z" fill="#fff"/>
   </g>
   <g transform="translate(507.18 778.69)">
    <path d="m0 0c-2.257 0.243-4.551 0.367-6.871 0.367-2.195 0-4.365-0.111-6.503-0.328l6.503-0.862z" fill="#fff"/>
   </g>
   <g transform="translate(559.65 722.35)">
    <path d="m0 0c0.26-2.259 0.394-4.556 0.394-6.884 0-2.329-0.134-4.626-0.394-6.884-3.414-29.75-28.682-52.854-59.345-52.854-30.673 0-55.946 23.116-59.349 52.877-0.258 2.252-0.39 4.54-0.39 6.861 0 2.491 0.152 4.946 0.448 7.357 3.627 29.521 28.789 52.381 59.291 52.381 30.663 0 55.931-23.104 59.345-52.854z" fill="none" stroke="#c5960b"/>
   </g>
   <g transform="translate(559.65 722.35)">
    <path d="m0 0c0.26-2.259 0.394-4.556 0.394-6.884 0-2.329-0.134-4.626-0.394-6.884-3.414-29.75-28.682-52.854-59.345-52.854-30.673 0-55.946 23.116-59.349 52.877-0.258 2.252-0.39 4.54-0.39 6.861 0 2.491 0.152 4.946 0.448 7.357 3.627 29.521 28.789 52.381 59.291 52.381 30.663 0 55.931-23.104 59.345-52.854z" fill="none" stroke="#c5960b"/>
   </g>
   <g transform="translate(465.2 746.75)">
    <path d="m0 0h-5.06s0.154-1.073 0.614-2.76c0.46-1.686 2.069-3.449 2.069-3.449s-0.613 2.913-0.23 4.216c0.384 1.303 2.607 1.993 2.607 1.993" fill="#c5960b"/>
   </g>
   <g transform="translate(463.05 738.93)">
    <path d="m0 0 7.589-31.353 9.276-34.726v-2.377l-9.889 36.95-7.972 32.349z" fill="#c5960b"/>
   </g>
   <g transform="translate(455.58 746.52)">
    <path d="m0 0 1.84-0.115 21.617-80.145-0.115-4.485-0.804 4.255-20.928 77.846z" fill="#ffd24f"/>
   </g>
   <g transform="translate(453.97 750.37)">
    <path d="m0 0h8.393c2.07 0 6.728 0.345 6.728 0.345s0.114-0.402 0.229-0.977-0.115-2.472-0.115-2.472l-0.46 2.299h-6.209c-3.105 0-8.566 0.805-8.566 0.805" fill="#fff"/>
   </g>
   <g transform="translate(481.68 660.05)">
    <path d="m0 0 17.709 96.013-0.116 5.865-18.513-101.48z" fill="#c5960b"/>
   </g>
   <g transform="translate(480.93 671.77)">
    <path d="m0 0 18.743 102.16v-3.334l-19.95-108.6z" fill="#ffd24f"/>
   </g>
   <g transform="translate(535.28 746.75)">
    <path d="m0 0h5.06s-0.154-1.073-0.614-2.76c-0.46-1.686-2.07-3.449-2.07-3.449s0.614 2.913 0.23 4.216c-0.383 1.303-2.606 1.993-2.606 1.993" fill="#c5960b"/>
   </g>
   <g transform="translate(537.51 738.93)">
    <path d="m0 0-7.589-31.353-9.275-34.726v-2.377l9.888 36.95 7.973 32.349z" fill="#c5960b"/>
   </g>
   <g transform="translate(544.98 746.52)">
    <path d="m0 0-1.839-0.115-21.617-80.145 0.115-4.485 0.805 4.255 20.927 77.846z" fill="#ffd24f"/>
   </g>
   <g transform="translate(546.59 750.37)">
    <path d="m0 0h-8.394c-2.07 0-6.727 0.345-6.727 0.345s-0.114-0.402-0.23-0.977c-0.115-0.575 0.116-2.472 0.116-2.472l0.46 2.299h6.209c3.104 0 8.566 0.805 8.566 0.805" fill="#fff"/>
   </g>
   <g transform="translate(518.42 660.05)">
    <path d="m0 0-17.708 96.013 0.115 5.865l18.513-101.48z" fill="#c5960b"/>
   </g>
   <g transform="translate(519.4 672.54)">
    <path d="m0 0-19.278 101.4 7e-3 -3.096 20.478-108.08z" fill="#ffd24f"/>
   </g>
   <g transform="translate(499.54 772.96)">
    <path d="m0 0h0.69l-0.153-11.077z" fill="#fff"/>
   </g>
   <g transform="translate(499.23 756.56)">
    <path d="m0 0 0.039 5.366 0.651-2.99 0.902 2.99 0.172-5.442-0.996-1.074z" fill="#c5960b"/>
   </g>
   <g transform="translate(453.8 747.55)">
    <path d="m0 0-1.296 0.741c0.036 0.123 0.083 0.258 0.146 0.409 0.46 1.092 1.438 1.954 1.438 1.954l-0.345 0.115-1.495-1.839-1.236-1.668h14.229l0.575 0.288z" fill="#c5960b"/>
   </g>
   <g transform="translate(546.73 747.55)">
    <path d="m0 0 1.298 0.741c-0.037 0.123-0.083 0.258-0.148 0.409-0.46 1.092-1.437 1.954-1.437 1.954l0.345 0.115 1.495-1.839 1.236-1.668h-14.229l-0.576 0.288z" fill="#c5960b"/>
   </g>
   <g transform="translate(377.2 721.14)">
    <path d="m0 0s2.299-20.084 18.091-20.851c13.796-0.67 16.098 1.84 24.377 1.993s16.251-5.519 16.251-5.519-6.593 6.439-14.565 7.359-16.189-4.401-28.21-1.533c-13.491 3.22-15.944 18.551-15.944 18.551" fill="#ffd24f"/>
   </g>
   <g transform="translate(381.95 715.16)">
    <path d="m 0,0 c 0,0 5.979,-7.666 11.958,-9.045 5.979,-1.38 18.551,0 18.551,0 0,0 -12.264,-2.76 -18.704,-1.227 C 5.366,-8.739 0,0 0,0" fill="#c5960b"/>
   </g>
   <g transform="translate(385.02 706.12)">
    <path d="m0 0s0.997-2.836 4.37-4.063c3.372-1.226 6.324-0.69 6.324-0.69s-2.951 0.23-6.248 1.917c-3.296 1.686-4.446 2.836-4.446 2.836" fill="#fff"/>
   </g>
   <g transform="translate(379.27 725.36)">
    <path d="m0 0s-1.303 0.23-1.993-1.456c-0.69-1.687-0.076-3.374-0.076-3.374s0.23 2.146 0.766 3.143c0.537 0.997 1.303 1.687 1.303 1.687" fill="#fff"/>
   </g>
   <g transform="translate(352.36 737.7)">
    <path d="m0 0s-4.906-16.098 2.3-29.13c7.205-13.032 22.537-17.784 22.537-17.784l3.066 0.613s-16.864 5.519-23.61 18.244c-6.746 12.726-4.293 28.057-4.293 28.057" fill="#ffd24f"/>
   </g>
   <g transform="translate(354.81 732.95)">
    <path d="m0 0s4.752-13.798 9.965-18.705c5.214-4.905 13.952-8.738 13.952-8.738l1.993-2.3s-10.885 4.753-16.711 9.812-9.199 19.931-9.199 19.931" fill="#c5960b"/>
   </g>
   <g transform="translate(352.97 740.61)">
    <path d="m0 0s-1.227 0.306-1.687-2.146c-0.459-2.454 0-6.593 0-6.593s0.768 3.986 1.074 5.826 0.613 2.913 0.613 2.913" fill="#fff"/>
   </g>
   <g transform="translate(355.12 710.1)">
    <path d="m0 0s0.154-3.296 3.22-6.592c3.066-3.297 7.512-5.213 7.512-5.213s-3.449 2.146-6.669 5.825c-3.219 3.68-4.063 5.98-4.063 5.98" fill="#fff"/>
   </g>
   <g transform="translate(347.45 692.01)">
    <path d="m0 0s3.679-9.659 15.792-15.025c12.112-5.366 18.512-0.613 18.512-0.613s-0.919 0.767-1.226 1.687-0.154 1.38-0.154 1.38-8.24-3.834-17.439-0.154-15.485 12.725-15.485 12.725" fill="#ffd24f"/>
   </g>
   <g transform="translate(353.36 690.48)">
    <path d="m0 0s7.665-4.293 11.499-4.83c3.832-0.536 9.965 0.537 9.965 0.537l1.533-1.149s-5.903-1.611-11.115-0.767c-5.213 0.843-11.882 6.209-11.882 6.209" fill="#c5960b"/>
   </g>
   <g transform="translate(346.53 693.77)">
    <path d="m0 0s-0.153-1.533 0.919-3.372c1.074-1.84 4.523-4.984 4.523-4.984s-2.069 3.067-2.913 5.06c-0.843 1.993-2.529 3.296-2.529 3.296" fill="#fff"/>
   </g>
   <g transform="translate(361.44 679.08)">
    <path d="m0 0s2.207-1.877 5.086-2.636c2.879-0.76 6.508-0.329 6.508-0.329s-3.958 0.661-6.538 1.251c-2.58 0.591-5.056 1.714-5.056 1.714" fill="#fff"/>
   </g>
   <g transform="translate(352.55 663.61)">
    <path d="m0 0s14.028-0.805 19.893 1.61c5.864 2.414 5.864 6.899 5.864 6.899l3.22 0.23s-1.61-6.784-9.314-8.854c-8.008-2.152-19.663 0.115-19.663 0.115" fill="#c5960b"/>
   </g>
   <g transform="translate(352.21 660.39)">
    <path d="m0 0s7.129-2.645 17.018-2.645 13.281 2.013 16.443 3.91 4.944 4.714 4.944 4.714l-1.15 1.955s-3.392-4.427-5.116-5.462c-1.725-1.035-7.532-3.392-14.316-3.737s-17.823 1.265-17.823 1.265" fill="#ffd24f"/>
   </g>
   <g transform="translate(372.73 643.2)">
    <path d="m0 0s8.452 1.323 14.661 5.002c6.209 3.68 10.521 9.659 10.521 9.659s-1.035-0.517-2.013-0.173c-0.977 0.345-0.632 1.093-0.632 1.093s-1.552-4.599-8.221-9.429c-3.952-2.862-14.316-6.152-14.316-6.152" fill="#ffd24f"/>
   </g>
   <g transform="translate(387.45 660.28)">
    <path d="m0 0s-3.507-7.417-5.692-9.372c-2.184-1.954-10.866-6.784-10.866-6.784s8.918 3.657 11.614 6.152c4.656 4.312 6.726 10.866 6.726 10.866z" fill="#c5960b"/>
   </g>
   <g transform="translate(398.51 654.3)">
    <path d="m0 0s-4.139-9.965 1.686-11.651c5.826-1.687 9.123 6.055 9.123 6.055s-5.29-6.975-9.276-4.829c-3.987 2.147-1.533 10.425-1.533 10.425" fill="#c5960b"/>
   </g>
   <g transform="translate(411.23 646.17)">
    <path d="m0 0s1.533-11.191 6.286-11.345c4.753-0.153 4.753 9.045 4.753 9.045s-0.996-8.126-4.83-7.972c-3.833 0.153-6.209 10.272-6.209 10.272" fill="#c5960b"/>
   </g>
   <g transform="translate(427.18 644.48)">
    <path d="m0 0s1.073-7.665 6.439-7.205c5.367 0.46 5.673 9.505 5.673 9.505s-1.303-8.202-5.749-8.662-6.363 6.362-6.363 6.362" fill="#c5960b"/>
   </g>
   <g transform="translate(442.51 648.47)">
    <path d="m0 0s0.307-5.979 6.439-5.979 6.132 6.746 6.132 6.746-1.226-6.133-6.286-5.979c-5.059 0.153-6.285 5.212-6.285 5.212" fill="#c5960b"/>
   </g>
   <g transform="translate(396.02 666.6)">
    <path d="m0 0s-0.69-1.955 1.035-2.414c1.725-0.461 4.485 2.989 4.485 2.989s-3.565-5.519-5.635-4.715c-2.07 0.806 0.115 4.14 0.115 4.14" fill="#ffd24f"/>
   </g>
   <g transform="translate(404.18 665.1)">
    <path d="m0 0s1.38-7.819 5.979-8.394c4.6-0.575 6.554 8.739 6.554 8.739s-3.219-7.129-6.669-6.554-5.864 6.209-5.864 6.209" fill="#ffd24f"/>
   </g>
   <g transform="translate(418.78 665.68)">
    <path d="m0 0s-1.265-10.924 4.484-11.844c5.75-0.92 5.98 11.844 5.98 11.844s-1.84-10.349-5.864-9.889c-4.025 0.46-4.6 9.889-4.6 9.889" fill="#ffd24f"/>
   </g>
   <g transform="translate(430.74 664.42)">
    <path d="m0 0s2.99-11.269 7.819-10.694 1.265 11.154 1.265 11.154 1.265-8.854-1.61-9.199c-2.874-0.345-7.474 8.739-7.474 8.739" fill="#ffd24f"/>
   </g>
   <g transform="translate(442.81 666.48)">
    <path d="m0 0s2.53-9.659 8.624-11.499c6.094-1.839 7.589 4.715 7.589 4.715l0.23 1.84s-1.725-5.749-7.244-4.485c-5.519 1.265-9.199 9.429-9.199 9.429" fill="#ffd24f"/>
   </g>
   <g transform="translate(387.05 697.76)">
    <path d="m0 0s-3.22 1.15-3.795-2.07 6.094-4.024 6.094-4.024-3.679 1.724-4.024 3.564 1.725 2.53 1.725 2.53" fill="#ffd24f"/>
   </g>
   <g transform="translate(386.7 686.95)">
    <path d="m0 0s-4.944-4.484-2.415-6.784c2.53-2.3 9.199 1.61 9.199 1.61s-5.519-2.53-7.359-0.345 0.575 5.519 0.575 5.519" fill="#ffd24f"/>
   </g>
   <g transform="translate(395.56 680.17)">
    <path d="m0 0s-4.254-8.969 0.69-9.774 8.969 7.129 8.969 7.129-4.37-5.749-7.819-4.944c-3.45 0.805-1.84 7.589-1.84 7.589" fill="#ffd24f"/>
   </g>
   <g transform="translate(408.43 676.95)">
    <path d="m0 0s3.105-7.474 7.129-6.669c4.025 0.805 2.53 6.899 2.53 6.899s0.345-3.794-2.875-4.484-6.784 4.254-6.784 4.254" fill="#ffd24f"/>
   </g>
   <g transform="translate(422.58 679.13)">
    <path d="m0 0s3.565-7.014 7.934-6.324c4.37 0.69 1.035 9.544 1.035 9.544s1.035-6.324-1.725-7.129c-2.759-0.805-7.244 3.909-7.244 3.909" fill="#ffd24f"/>
   </g>
   <g transform="translate(394.52 660.74)">
    <path d="m0 0s1.035-2.3 4.254-1.61c3.22 0.69 4.255 1.725 4.255 1.725l-0.46 4.025-3.795-3.45z" fill="#c5960b"/>
   </g>
   <g transform="translate(410.04 654.18)">
    <path d="m0 0s2.3-1.61 5.29-0.805c2.989 0.805 3.104 1.725 3.104 1.725l-0.92 2.99v2.759l-1.495-3.219-1.265-2.3-2.759-0.92z" fill="#c5960b"/>
   </g>
   <g transform="translate(384.86 696.38)">
    <path d="m0 0s-0.517 0.575-0.805-0.46c-0.287-1.035 0.575-1.955 0.575-1.955s-0.115 0.748 0.058 1.437c0.172 0.69 0.172 0.978 0.172 0.978" fill="#fff"/>
   </g>
   <g transform="translate(384.98 683.33)">
    <path d="m0 0s-0.92-0.69-0.345-1.955 1.495-1.035 1.495-1.035-0.518 0.345-0.92 1.265-0.23 1.725-0.23 1.725" fill="#fff"/>
   </g>
   <g transform="translate(394.75 674.07)">
    <path d="m0 0s-0.288-2.357 1.265-2.875c1.552-0.517 3.219 1.035 3.219 1.035s-1.495-0.46-2.759-0.115c-1.265 0.345-1.725 1.955-1.725 1.955" fill="#fff"/>
   </g>
   <g transform="translate(412.34 672.46)">
    <path d="m0 0s2.127-1.955 3.794-1.61c1.668 0.345 1.955 2.3 1.955 2.3s-0.977-1.15-2.415-1.265c-1.437-0.115-3.334 0.575-3.334 0.575" fill="#fff"/>
   </g>
   <g transform="translate(427.41 674.42)">
    <path d="m0 0s1.495-1.667 3.22-1.035c1.724 0.633 1.38 2.875 1.38 2.875s-0.173-1.61-1.668-1.955-2.932 0.115-2.932 0.115" fill="#fff"/>
   </g>
   <g transform="translate(408.2 658.78)">
    <path d="m0 0s-0.172-1.207 1.84-1.495c2.012-0.287 2.644 1.265 2.644 1.265s-1.38-0.862-2.529-0.575c-1.15 0.288-1.955 0.805-1.955 0.805" fill="#fff"/>
   </g>
   <g transform="translate(421.2 656.02)">
    <path d="m0 0s1.495-2.357 3.219-2.07c1.725 0.288 2.3 2.415 2.3 2.415s-0.748-1.322-2.415-1.265c-1.667 0.058-3.104 0.92-3.104 0.92" fill="#fff"/>
   </g>
   <g transform="translate(436.26 655.68)">
    <path d="m0 0s0.862-1.495 2.357-1.38 1.783 1.495 1.783 1.495-0.46-0.69-1.495-0.805-2.645 0.69-2.645 0.69" fill="#fff"/>
   </g>
   <g transform="translate(389.46 687.18)">
    <path d="m 0,0 c 0,0 1.84,1.917 5.06,2.99 3.219,1.072 9.198,1.379 9.198,1.379 0,0 -6.439,1.84 -10.118,0.46 C 0.46,3.45 0,0 0,0" fill="#ffd24f"/>
   </g>
   <g transform="translate(405.71 688.64)">
    <path d="m0 0s-4.293 0-6.439-2.607c-2.147-2.606-2.3-5.059-2.3-5.059s1.38 2.607 3.22 4.293 5.519 3.373 5.519 3.373" fill="#ffd24f"/>
   </g>
   <g transform="translate(410.47 689.56)">
    <path d="m0 0s-2.952-2.722-3.526-5.596c-0.576-2.875 0-5.902 0-5.902s0.69 3.832 1.034 6.132c0.345 2.3 2.492 5.366 2.492 5.366" fill="#ffd24f"/>
   </g>
   <g transform="translate(411.88 692.47)">
    <path d="m 0,0 c 0,0 3.909,-1.15 5.519,-3.909 1.61,-2.76 2.415,-9.889 2.415,-9.889 0,0 1.035,7.589 -0.69,10.694 C 5.519,0 0,0 0,0" fill="#ffd24f"/>
   </g>
   <g transform="translate(422.46 693.16)">
    <path d="m0 0s2.645-0.345 4.6-2.069c1.954-1.725 4.944-7.244 4.944-7.244s-1.61 6.554-4.6 8.508c-2.989 1.955-4.944 0.805-4.944 0.805" fill="#ffd24f"/>
   </g>
   <g transform="translate(409.93 653.03)">
    <path d="m0 0s0.46-1.15 0.345-2.53-0.918-2.845-0.918-2.845 1.378 0.661 1.493 2.385c0.115 1.725-0.92 2.99-0.92 2.99" fill="#c5960b"/>
   </g>
   <g transform="translate(424.19 650.39)">
    <path d="m0 0-0.23-2.3 0.345-2.53 0.805 2.3z" fill="#c5960b"/>
   </g>
   <g transform="translate(439.25 650.85)">
    <path d="m0 0 0.575-2.07 0.92-2.07v2.645z" fill="#c5960b"/>
   </g>
   <g transform="translate(400.19 654.14)">
    <path d="m0 0s-4.37-7.129 0.69-9.275c5.059-2.147 8.815 6.515 8.815 6.515s-5.135-6.362-8.355-4.982-1.15 7.742-1.15 7.742" fill="#ffd24f"/>
   </g>
   <g transform="translate(412.61 646.02)">
    <path d="m0 0s2.07-8.893 4.983-8.739c2.913 0.153 3.296 8.739 3.296 8.739s-0.537-6.746-3.449-6.746c-2.913 0-4.83 6.746-4.83 6.746" fill="#ffd24f"/>
   </g>
   <g transform="translate(427.64 646.32)">
    <path d="m0 0s1.917-8.126 6.056-7.359c4.14 0.766 4.83 8.432 4.83 8.432s-1.61-5.673-4.983-6.133-5.903 5.06-5.903 5.06" fill="#ffd24f"/>
   </g>
   <g transform="translate(444.04 649.08)">
    <path d="m0 0s1.38-4.83 5.06-4.83c3.679 0 4.906 5.443 4.906 5.443s-2.147-4.063-5.06-3.909c-2.912 0.153-4.906 3.296-4.906 3.296" fill="#ffd24f"/>
   </g>
   <g transform="translate(462.29 659.82)">
    <path d="m0 0s0.307-7.359 7.819-11.039c7.513-3.679 13.645-1.073 19.164-3.679s10.885-10.886 10.885-10.886v2.913s-1.656 6.442-9.198 9.659c-10.426 4.446-13.416 0.268-19.778 3.526-6.181 3.166-6.401 7.666-6.401 7.666z" fill="#ffd24f"/>
   </g>
   <g transform="translate(456.31 649.24)">
    <path d="m0 0s3.679-10.119 14.105-12.418c10.425-2.3 17.785-3.22 17.785-3.22s3.066-2.913 5.519-5.826c2.452-2.913 6.439-11.346 6.439-11.346v7.973s-1.379 2.146-4.6 5.059c-3.219 2.914-6.745 5.213-6.745 5.213s-11.565 1.027-18.091 3.066c-9.813 3.066-14.412 11.499-14.412 11.499" fill="#ffd24f"/>
   </g>
   <g transform="translate(535.88 650.27)">
    <path d="m0 0 2.644 4.14s-0.229-9.084-10.922-11.039c-10.695-1.955-10.464-0.92-15.294-2.875-4.829-1.954-12.188-11.038-12.188-11.038l1.725 3.449 4.254 5.75 4.714 4.369 2.99 1.265 5.059 0.69 6.325 0.459 3.679 0.576 3.68 1.38z" fill="#c5960b"/>
   </g>
   <g transform="translate(557.49 655.68)">
    <path d="m0 0s-0.574-2.07-4.024-2.874c-3.45-0.806-4.714 0.229-4.714 0.229l4.599 2.185 3.794 3.91z" fill="#c5960b"/>
   </g>
   <g transform="translate(569.8 656.02)">
    <path d="m0 0s0.575-2.645-1.38-3.565c-1.954-0.919-3.68-0.23-3.68-0.23l3.106 2.53 1.839 4.484z" fill="#c5960b"/>
   </g>
   <g transform="translate(573.02 652.23)">
    <path d="m0 0s-1.149-0.69-2.76 0.69c-1.609 1.38-1.495 3.45-1.495 3.45l1.38 2.874 0.23-3.449 1.265-2.07z" fill="#c5960b"/>
   </g>
   <g transform="translate(565.62 678.75)">
    <path d="m0 0s-1.686-2.453-5.596-3.373-7.359 1.38-7.359 1.38l0.536 0.92 4.293-0.153 3.374 1.379 5.212 2.07z" fill="#c5960b"/>
   </g>
   <g transform="translate(579.73 675.15)">
    <path d="m0 0s-0.383-2.836-3.297-4.216c-2.912-1.38-6.132-0.537-6.132-0.537l5.289 2.377 2.836 2.913 1.533 1.073z" fill="#c5960b"/>
   </g>
   <g transform="translate(584.25 668.55)">
    <path d="m0 0s-3.45-0.537-4.982 1.533c-1.534 2.07-1.228 4.983-1.228 4.983l1.688 1.456 0.229-4.522 1.227-1.84z" fill="#c5960b"/>
   </g>
   <g transform="translate(600.58 668.63)">
    <path d="m0 0s-2.222-0.308-4.445 1.226c-2.224 1.533-2.76 3.986-2.76 3.986l0.92 1.457 2.069-3.066 2.377-2.53z" fill="#c5960b"/>
   </g>
   <g transform="translate(616.21 678.29)">
    <path d="m0 0s-2.53-2.146-4.983-2.376-3.143 0.306-3.143 0.306l-1.379 3.373 3.526-1.38 3.295-0.383z" fill="#c5960b"/>
   </g>
   <g transform="translate(619.36 693.28)">
    <path d="m0 0s0-2.185-0.69-3.45c-0.69-1.264-2.645-1.954-2.645-1.954l-1.955 1.839 3.105 1.035z" fill="#c5960b"/>
   </g>
   <g transform="translate(606.59 669.13)">
    <path d="m0 0s0.229-1.495 2.3-4.025c2.069-2.529 4.944-4.484 4.944-4.484s-3.066 0.881-5.75 3.717c-2.683 2.837-2.299 4.332-2.299 4.332z" fill="#c5960b"/>
   </g>
   <g transform="translate(615.68 678.1)">
    <path d="m0 0s1.149-1.61 2.874-2.76c1.726-1.15 3.565-2.184 3.565-2.184s-1.457-0.537-3.987 0.996c-2.529 1.533-4.292 3.603-4.292 3.603z" fill="#c5960b"/>
   </g>
   <g transform="translate(624.42 688.68)">
    <path d="m0 0s-1.84-0.23-4.024 0c-2.185 0.23-4.714 1.495-4.714 1.495l-1.228-1.074s1.151-1.916 5.06-2.222c3.909-0.307 5.674 1.226 5.674 1.226z" fill="#c5960b"/>
   </g>
   <g transform="translate(553.58 677.98)">
    <path d="m0 0c2.529-2.76 12.879 3.679 12.879 3.679s-3.68-8.969 1.609-10.808c5.289-1.84 11.959 6.439 11.959 6.439s-1.61-7.589 4.599-8.739c6.21-1.15 9.429 7.129 9.429 7.129s4.599-9.199 11.039-7.129c6.439 2.07 1.15 11.728 1.15 11.728s7.358-4.829 11.269-0.92c3.909 3.91-3.451 10.35-3.451 10.35s6.44 1.379 5.29 6.208c-1.15 4.83-6.362 3.756-6.362 3.756" fill="none" stroke="#c5960b"/>
   </g>
   <g transform="translate(561.17 692.59)">
    <path d="m0 0s9.659 8.164 18.628 7.934c7.186-0.184 12.419-2.369 23.457-2.3 12.342 0.077 18.168 9.736 18.168 9.736s-3.527-10.886-17.632-11.499-16.557 1.84-24.069 1.993c-7.513 0.154-18.552-5.864-18.552-5.864" fill="#c5960b"/>
   </g>
   <g transform="translate(394.64 668.67)">
    <path d="m0 0s-2.3-4.83-0.115-7.359c2.185-2.53 8.164 3.565 8.164 3.565s0-8.97 6.899-10.349c6.899-1.38 8.279 7.819 8.279 7.819s-1.38-10.119 5.98-10.579c7.359-0.46 6.439 8.969 6.439 8.969s1.839-9.199 7.819-8.739c5.979 0.46 5.289 7.359 5.289 7.359s4.37-6.209 9.659-6.669 7.359 5.059 7.359 5.059 2.53-8.279 9.199-11.038c6.669-2.76 14.718-0.46 20.008-3.68 5.289-3.22 10.541-13.109 10.541-13.109s5.365 9.889 10.655 13.109c5.289 3.22 13.338 0.92 20.007 3.68 6.67 2.759 9.199 11.038 9.199 11.038s2.069-5.519 7.359-5.059c5.289 0.46 9.658 6.669 9.658 6.669s-0.689-6.899 5.29-7.359 7.819 8.739 7.819 8.739-0.92-9.429 6.439-8.969c7.36 0.46 5.98 10.579 5.98 10.579s1.38-9.199 8.279-7.819c6.899 1.379 6.899 10.349 6.899 10.349s5.979-6.095 8.164-3.565c2.184 2.529-0.115 7.359-0.115 7.359" fill="none" stroke="#c5960b"/>
   </g>
   <g transform="translate(623.11 721.14)">
    <path d="m0 0s-2.299-20.084-18.092-20.851c-13.796-0.67-16.096 1.84-24.376 1.993-8.279 0.153-16.252-5.519-16.252-5.519s6.593 6.439 14.565 7.359c7.971 0.92 16.189-4.401 28.211-1.533 13.49 3.22 15.944 18.551 15.944 18.551" fill="#ffd24f"/>
   </g>
   <g transform="translate(618.36 715.16)">
    <path d="m0 0s-5.979-7.666-11.958-9.045c-5.978-1.38-18.551 0-18.551 0s12.265-2.76 18.704-1.227c6.44 1.533 11.805 10.272 11.805 10.272" fill="#c5960b"/>
   </g>
   <g transform="translate(615.29 706.12)">
    <path d="m0 0s-0.997-2.836-4.37-4.063c-3.373-1.226-6.324-0.69-6.324-0.69s2.95 0.23 6.247 1.917c3.297 1.686 4.447 2.836 4.447 2.836" fill="#fff"/>
   </g>
   <g transform="translate(621.04 725.36)">
    <path d="m0 0s1.303 0.23 1.992-1.456c0.691-1.687 0.078-3.374 0.078-3.374s-0.23 2.146-0.767 3.143-1.303 1.687-1.303 1.687" fill="#fff"/>
   </g>
   <g transform="translate(647.95 737.7)">
    <path d="m0 0s4.905-16.098-2.3-29.13c-7.206-13.032-22.537-17.784-22.537-17.784l-3.066 0.613s16.864 5.519 23.61 18.244c6.746 12.726 4.293 28.057 4.293 28.057" fill="#ffd24f"/>
   </g>
   <g transform="translate(645.5 732.95)">
    <path d="m0 0s-4.752-13.798-9.965-18.705c-5.213-4.905-13.952-8.738-13.952-8.738l-1.992-2.3s10.885 4.753 16.711 9.812 9.198 19.931 9.198 19.931" fill="#c5960b"/>
   </g>
   <g transform="translate(647.34 740.61)">
    <path d="m0 0s1.228 0.306 1.687-2.146c0.461-2.454 0-6.593 0-6.593s-0.767 3.986-1.073 5.826-0.614 2.913-0.614 2.913" fill="#fff"/>
   </g>
   <g transform="translate(645.19 710.1)">
    <path d="m0 0s-0.155-3.296-3.221-6.592c-3.066-3.297-7.512-5.213-7.512-5.213s3.449 2.146 6.669 5.825c3.219 3.68 4.064 5.98 4.064 5.98" fill="#fff"/>
   </g>
   <g transform="translate(652.86 692.01)">
    <path d="m0 0s-3.679-9.659-15.791-15.025c-12.111-5.366-18.513-0.613-18.513-0.613s0.92 0.767 1.227 1.687 0.153 1.38 0.153 1.38 8.24-3.834 17.44-0.154c9.199 3.68 15.484 12.725 15.484 12.725" fill="#ffd24f"/>
   </g>
   <g transform="translate(646.95 690.48)">
    <path d="m0 0s-7.666-4.293-11.498-4.83c-3.832-0.536-9.966 0.537-9.966 0.537l-1.533-1.149s5.903-1.611 11.116-0.767c5.212 0.843 11.881 6.209 11.881 6.209" fill="#c5960b"/>
   </g>
   <g transform="translate(653.78 693.77)">
    <path d="m0 0s0.153-1.533-0.92-3.372c-1.072-1.84-4.522-4.984-4.522-4.984s2.07 3.067 2.913 5.06c0.842 1.993 2.529 3.296 2.529 3.296" fill="#fff"/>
   </g>
   <g transform="translate(638.87 679.08)">
    <path d="m0 0s-2.209-1.877-5.087-2.636c-2.878-0.76-6.508-0.329-6.508-0.329s3.958 0.661 6.538 1.251c2.58 0.591 5.057 1.714 5.057 1.714" fill="#fff"/>
   </g>
   <g transform="translate(647.76 663.61)">
    <path d="m0 0s-14.028-0.805-19.893 1.61c-5.864 2.414-5.864 6.899-5.864 6.899l-3.22 0.23s1.61-6.784 9.314-8.854c8.008-2.152 19.663 0.115 19.663 0.115" fill="#c5960b"/>
   </g>
   <g transform="translate(648.1 660.39)">
    <path d="m0 0s-7.129-2.645-17.018-2.645-13.281 2.013-16.443 3.91-4.944 4.714-4.944 4.714l1.149 1.955s3.393-4.427 5.117-5.462c1.725-1.035 7.532-3.392 14.316-3.737s17.823 1.265 17.823 1.265" fill="#ffd24f"/>
   </g>
   <g transform="translate(627.58 643.2)">
    <path d="m0 0s-8.451 1.323-14.66 5.002c-6.209 3.68-10.522 9.659-10.522 9.659s1.036-0.517 2.013-0.173c0.977 0.345 0.632 1.093 0.632 1.093s1.553-4.599 8.222-9.429c3.953-2.862 14.315-6.152 14.315-6.152" fill="#ffd24f"/>
   </g>
   <g transform="translate(612.86 660.28)">
    <path d="m0 0s3.507-7.417 5.691-9.372c2.185-1.954 10.867-6.784 10.867-6.784s-8.918 3.657-11.614 6.152c-4.657 4.312-6.726 10.866-6.726 10.866z" fill="#c5960b"/>
   </g>
   <g transform="translate(601.8 654.3)">
    <path d="m0 0s4.14-9.965-1.687-11.651c-5.825-1.687-9.121 6.055-9.121 6.055s5.289-6.975 9.276-4.829c3.986 2.147 1.532 10.425 1.532 10.425" fill="#c5960b"/>
   </g>
   <g transform="translate(589.08 646.17)">
    <path d="m0 0s-1.532-11.191-6.286-11.345c-4.753-0.153-4.753 9.045-4.753 9.045s0.996-8.126 4.83-7.972c3.833 0.153 6.209 10.272 6.209 10.272" fill="#c5960b"/>
   </g>
   <g transform="translate(573.13 644.48)">
    <path d="m0 0s-1.073-7.665-6.439-7.205-5.673 9.505-5.673 9.505 1.302-8.202 5.749-8.662 6.363 6.362 6.363 6.362" fill="#c5960b"/>
   </g>
   <g transform="translate(557.8 648.47)">
    <path d="m0 0s-0.308-5.979-6.44-5.979c-6.131 0-6.131 6.746-6.131 6.746s1.226-6.133 6.286-5.979c5.058 0.153 6.285 5.212 6.285 5.212" fill="#c5960b"/>
   </g>
   <g transform="translate(604.29 666.6)">
    <path d="m0 0s0.69-1.955-1.035-2.414c-1.725-0.461-4.484 2.989-4.484 2.989s3.564-5.519 5.634-4.715c2.07 0.806-0.115 4.14-0.115 4.14" fill="#ffd24f"/>
   </g>
   <g transform="translate(596.13 665.1)">
    <path d="m0 0s-1.38-7.819-5.979-8.394c-4.6-0.575-6.554 8.739-6.554 8.739s3.22-7.129 6.669-6.554 5.864 6.209 5.864 6.209" fill="#ffd24f"/>
   </g>
   <g transform="translate(581.53 665.68)">
    <path d="m0 0s1.265-10.924-4.484-11.844-5.98 11.844-5.98 11.844 1.84-10.349 5.864-9.889c4.026 0.46 4.6 9.889 4.6 9.889" fill="#ffd24f"/>
   </g>
   <g transform="translate(569.57 664.42)">
    <path d="m0 0s-2.99-11.269-7.819-10.694-1.265 11.154-1.265 11.154-1.265-8.854 1.609-9.199c2.875-0.345 7.475 8.739 7.475 8.739" fill="#ffd24f"/>
   </g>
   <g transform="translate(557.49 666.48)">
    <path d="m0 0s-2.529-9.659-8.624-11.499c-6.094-1.839-7.589 4.715-7.589 4.715l-0.229 1.84s1.724-5.749 7.244-4.485c5.519 1.265 9.198 9.429 9.198 9.429" fill="#ffd24f"/>
   </g>
   <g transform="translate(613.26 697.76)">
    <path d="m0 0s3.22 1.15 3.795-2.07c0.574-3.22-6.095-4.024-6.095-4.024s3.68 1.724 4.025 3.564c0.344 1.84-1.725 2.53-1.725 2.53" fill="#ffd24f"/>
   </g>
   <g transform="translate(613.61 686.95)">
    <path d="m0 0s4.944-4.484 2.415-6.784-9.199 1.61-9.199 1.61 5.519-2.53 7.359-0.345-0.575 5.519-0.575 5.519" fill="#ffd24f"/>
   </g>
   <g transform="translate(604.75 680.17)">
    <path d="m0 0s4.254-8.969-0.69-9.774c-4.945-0.805-8.969 7.129-8.969 7.129s4.37-5.749 7.819-4.944 1.84 7.589 1.84 7.589" fill="#ffd24f"/>
   </g>
   <g transform="translate(591.88 676.95)">
    <path d="m0 0s-3.104-7.474-7.129-6.669c-4.024 0.805-2.529 6.899-2.529 6.899s-0.346-3.794 2.874-4.484c3.219-0.69 6.784 4.254 6.784 4.254" fill="#ffd24f"/>
   </g>
   <g transform="translate(577.73 679.13)">
    <path d="m0 0s-3.564-7.014-7.934-6.324-1.036 9.544-1.036 9.544-1.034-6.324 1.726-7.129 7.244 3.909 7.244 3.909" fill="#ffd24f"/>
   </g>
   <g transform="translate(605.79 660.74)">
    <path d="m0 0s-1.035-2.3-4.255-1.61-4.255 1.725-4.255 1.725l0.46 4.025 3.795-3.45z" fill="#c5960b"/>
   </g>
   <g transform="translate(590.27 654.18)">
    <path d="m0 0s-2.3-1.61-5.289-0.805c-2.99 0.805-3.105 1.725-3.105 1.725l0.919 2.99v2.759l1.496-3.219 1.264-2.3 2.76-0.92z" fill="#c5960b"/>
   </g>
   <g transform="translate(615.45 696.38)">
    <path d="M 0,0 C 0,0 0.518,0.575 0.805,-0.46 1.093,-1.495 0.23,-2.415 0.23,-2.415 c 0,0 0.115,0.748 -0.057,1.437 C 0,-0.288 0,0 0,0" fill="#fff"/>
   </g>
   <g transform="translate(615.33 683.33)">
    <path d="m0 0s0.92-0.69 0.346-1.955c-0.575-1.265-1.495-1.035-1.495-1.035s0.517 0.345 0.92 1.265c0.402 0.92 0.229 1.725 0.229 1.725" fill="#fff"/>
   </g>
   <g transform="translate(605.56 674.07)">
    <path d="m0 0s0.287-2.357-1.265-2.875c-1.552-0.517-3.219 1.035-3.219 1.035s1.495-0.46 2.759-0.115c1.265 0.345 1.725 1.955 1.725 1.955" fill="#fff"/>
   </g>
   <g transform="translate(587.97 672.46)">
    <path d="m0 0s-2.127-1.955-3.795-1.61c-1.667 0.345-1.954 2.3-1.954 2.3s0.978-1.15 2.414-1.265c1.438-0.115 3.335 0.575 3.335 0.575" fill="#fff"/>
   </g>
   <g transform="translate(572.9 674.42)">
    <path d="m0 0s-1.494-1.667-3.22-1.035c-1.724 0.633-1.38 2.875-1.38 2.875s0.173-1.61 1.668-1.955 2.932 0.115 2.932 0.115" fill="#fff"/>
   </g>
   <g transform="translate(592.11 658.78)">
    <path d="m0 0s0.172-1.207-1.84-1.495c-2.013-0.287-2.644 1.265-2.644 1.265s1.38-0.862 2.529-0.575c1.15 0.288 1.955 0.805 1.955 0.805" fill="#fff"/>
   </g>
   <g transform="translate(579.11 656.02)">
    <path d="m0 0s-1.495-2.357-3.22-2.07c-1.724 0.288-2.3 2.415-2.3 2.415s0.747-1.322 2.414-1.265c1.669 0.058 3.106 0.92 3.106 0.92" fill="#fff"/>
   </g>
   <g transform="translate(564.05 655.68)">
    <path d="m0 0s-0.862-1.495-2.357-1.38-1.783 1.495-1.783 1.495 0.46-0.69 1.496-0.805c1.034-0.115 2.644 0.69 2.644 0.69" fill="#fff"/>
   </g>
   <g transform="translate(610.85 687.18)">
    <path d="m 0,0 c 0,0 -1.84,1.917 -5.059,2.99 -3.219,1.072 -9.199,1.379 -9.199,1.379 0,0 6.44,1.84 10.119,0.46 C -0.46,3.45 0,0 0,0" fill="#ffd24f"/>
   </g>
   <g transform="translate(594.6 688.64)">
    <path d="m0 0s4.292 0 6.438-2.607c2.147-2.606 2.3-5.059 2.3-5.059s-1.38 2.607-3.22 4.293c-1.838 1.686-5.518 3.373-5.518 3.373" fill="#ffd24f"/>
   </g>
   <g transform="translate(589.84 689.56)">
    <path d="m0 0s2.951-2.722 3.526-5.596c0.576-2.875 0-5.902 0-5.902s-0.689 3.832-1.035 6.132c-0.345 2.3-2.491 5.366-2.491 5.366" fill="#ffd24f"/>
   </g>
   <g transform="translate(588.43 692.47)">
    <path d="m0 0s-3.909-1.15-5.519-3.909c-1.61-2.76-2.415-9.889-2.415-9.889s-1.035 7.589 0.69 10.694c1.725 3.104 7.244 3.104 7.244 3.104" fill="#ffd24f"/>
   </g>
   <g transform="translate(577.85 693.16)">
    <path d="m0 0s-2.645-0.345-4.599-2.069c-1.955-1.725-4.945-7.244-4.945-7.244s1.61 6.554 4.6 8.508c2.99 1.955 4.944 0.805 4.944 0.805" fill="#ffd24f"/>
   </g>
   <g transform="translate(590.38 653.03)">
    <path d="m0 0s-0.46-1.15-0.346-2.53c0.116-1.38 0.919-2.845 0.919-2.845s-1.379 0.661-1.493 2.385c-0.115 1.725 0.92 2.99 0.92 2.99" fill="#c5960b"/>
   </g>
   <g transform="translate(576.12 650.39)">
    <path d="m0 0 0.23-2.3-0.345-2.53-0.805 2.3z" fill="#c5960b"/>
   </g>
   <g transform="translate(561.06 650.85)">
    <path d="m0 0-0.575-2.07-0.92-2.07v2.645z" fill="#c5960b"/>
   </g>
   <g transform="translate(600.12 654.14)">
    <path d="m0 0s4.371-7.129-0.689-9.275c-5.06-2.147-8.816 6.515-8.816 6.515s5.136-6.362 8.356-4.982 1.149 7.742 1.149 7.742" fill="#ffd24f"/>
   </g>
   <g transform="translate(587.7 646.02)">
    <path d="m0 0s-2.069-8.893-4.982-8.739c-2.914 0.153-3.297 8.739-3.297 8.739s0.537-6.746 3.45-6.746 4.829 6.746 4.829 6.746" fill="#ffd24f"/>
   </g>
   <g transform="translate(572.67 646.32)">
    <path d="m0 0s-1.916-8.126-6.056-7.359c-4.139 0.766-4.829 8.432-4.829 8.432s1.61-5.673 4.982-6.133 5.903 5.06 5.903 5.06" fill="#ffd24f"/>
   </g>
   <g transform="translate(556.27 649.08)">
    <path d="m0 0s-1.38-4.83-5.06-4.83c-3.679 0-4.906 5.443-4.906 5.443s2.147-4.063 5.059-3.909c2.913 0.153 4.907 3.296 4.907 3.296" fill="#ffd24f"/>
   </g>
   <g transform="translate(538.02 659.82)">
    <path d="m0 0s-0.308-7.359-7.819-11.039c-7.513-3.679-13.645-1.073-19.164-3.679-5.52-2.606-10.886-10.886-10.886-10.886v2.913s1.656 6.442 9.199 9.659c10.426 4.446 13.415 0.268 19.778 3.526 6.181 3.166 6.401 7.666 6.401 7.666z" fill="#ffd24f"/>
   </g>
   <g transform="translate(544.29 649.52)">
    <path d="m0 0s-3.68-10.119-14.104-12.418c-10.426-2.3-17.786-3.22-17.786-3.22s-3.066-2.913-5.519-5.826c-2.452-2.913-6.439-11.346-6.439-11.346v7.973s1.38 2.147 4.599 5.06c3.22 2.913 6.747 5.212 6.747 5.212s11.565 1.027 18.091 3.066c9.811 3.066 14.411 11.499 14.411 11.499" fill="#ffd24f"/>
   </g>
   <g transform="translate(500.19 615.2)">
    <path d="m0 0-0.805 5.06 0.92 5.289 0.574-5.519z" fill="#fff"/>
   </g>
   <g transform="translate(500.08 637.97)">
    <path d="m0 0-0.46-2.3 0.536-1.456 0.269 1.686z" fill="#fff"/>
   </g>
   <g transform="translate(399.58 646.94)">
    <path d="m0 0s-0.039-1.61 1.303-2.07 2.683 0.69 2.683 0.69-1.456-0.192-2.606 0.306c-1.15 0.499-1.38 1.074-1.38 1.074" fill="#fff"/>
   </g>
   <g transform="translate(415.52 639.42)">
    <path d="m0 0s0.652-2.376 2.07-2.146 1.15 2.146 1.15 2.146-0.46-0.766-1.534-0.766c-1.073 0-1.686 0.766-1.686 0.766" fill="#fff"/>
   </g>
   <g transform="translate(431.16 641.26)">
    <path d="m0 0s0.652-2.684 2.53-2.3c1.878 0.383 2.376 3.373 2.376 3.373s-1.188-2.644-2.683-2.414-2.223 1.341-2.223 1.341" fill="#fff"/>
   </g>
   <g transform="translate(446.65 646.02)">
    <path d="m0 0s0.92-1.572 2.453-1.764c1.533-0.191 2.3 1.457 2.3 1.457s-1.457-0.421-2.607-0.46c-1.149-0.038-2.146 0.767-2.146 0.767" fill="#fff"/>
   </g>
   <g transform="translate(601.19 646.94)">
    <path d="m0 0s0.039-1.61-1.303-2.07-2.683 0.69-2.683 0.69 1.456-0.192 2.606 0.306c1.15 0.499 1.38 1.074 1.38 1.074" fill="#fff"/>
   </g>
   <g transform="translate(585.24 639.42)">
    <path d="m0 0s-0.651-2.376-2.07-2.146c-1.418 0.23-1.15 2.146-1.15 2.146s0.459-0.766 1.533-0.766c1.073 0 1.687 0.766 1.687 0.766" fill="#fff"/>
   </g>
   <g transform="translate(569.61 641.26)">
    <path d="m0 0s-0.651-2.684-2.529-2.3c-1.879 0.383-2.376 3.373-2.376 3.373s1.187-2.644 2.682-2.414 2.223 1.341 2.223 1.341" fill="#fff"/>
   </g>
   <g transform="translate(554.12 646.02)">
    <path d="m0 0s-0.92-1.572-2.453-1.764c-1.533-0.191-2.3 1.457-2.3 1.457s1.456-0.421 2.607-0.46c1.149-0.038 2.146 0.767 2.146 0.767" fill="#fff"/>
   </g>
  </g>
 </g>
</svg>
